%TF.GenerationSoftware,KiCad,Pcbnew,9.0.8-9.0.8~ubuntu24.04.1*%
%TF.CreationDate,2026-03-28T11:04:09+00:00*%
%TF.ProjectId,azrael,617a7261-656c-42e6-9b69-6361645f7063,rev?*%
%TF.SameCoordinates,PX30291a0PY5f21070*%
%TF.FileFunction,Legend,Top*%
%TF.FilePolarity,Positive*%
%FSLAX46Y46*%
G04 Gerber Fmt 4.6, Leading zero omitted, Abs format (unit mm)*
G04 Created by KiCad (PCBNEW 9.0.8-9.0.8~ubuntu24.04.1) date 2026-03-28 11:04:09*
%MOMM*%
%LPD*%
G01*
G04 APERTURE LIST*
G04 Aperture macros list*
%AMRoundRect*
0 Rectangle with rounded corners*
0 $1 Rounding radius*
0 $2 $3 $4 $5 $6 $7 $8 $9 X,Y pos of 4 corners*
0 Add a 4 corners polygon primitive as box body*
4,1,4,$2,$3,$4,$5,$6,$7,$8,$9,$2,$3,0*
0 Add four circle primitives for the rounded corners*
1,1,$1+$1,$2,$3*
1,1,$1+$1,$4,$5*
1,1,$1+$1,$6,$7*
1,1,$1+$1,$8,$9*
0 Add four rect primitives between the rounded corners*
20,1,$1+$1,$2,$3,$4,$5,0*
20,1,$1+$1,$4,$5,$6,$7,0*
20,1,$1+$1,$6,$7,$8,$9,0*
20,1,$1+$1,$8,$9,$2,$3,0*%
G04 Aperture macros list end*
%ADD10C,0.170000*%
%ADD11C,0.080000*%
%ADD12C,0.125000*%
%ADD13C,0.100000*%
%ADD14C,0.300000*%
%ADD15C,0.150000*%
%ADD16C,0.120000*%
%ADD17RoundRect,0.250000X0.650000X-0.412500X0.650000X0.412500X-0.650000X0.412500X-0.650000X-0.412500X0*%
%ADD18C,2.600000*%
%ADD19RoundRect,0.250000X0.825000X0.825000X-0.825000X0.825000X-0.825000X-0.825000X0.825000X-0.825000X0*%
%ADD20C,2.150000*%
%ADD21RoundRect,0.237500X-0.300000X-0.237500X0.300000X-0.237500X0.300000X0.237500X-0.300000X0.237500X0*%
%ADD22RoundRect,0.237500X0.237500X-0.300000X0.237500X0.300000X-0.237500X0.300000X-0.237500X-0.300000X0*%
%ADD23RoundRect,0.237500X0.300000X0.237500X-0.300000X0.237500X-0.300000X-0.237500X0.300000X-0.237500X0*%
%ADD24RoundRect,0.150000X-0.150000X0.587500X-0.150000X-0.587500X0.150000X-0.587500X0.150000X0.587500X0*%
%ADD25C,0.650000*%
%ADD26RoundRect,0.150000X-0.425000X0.150000X-0.425000X-0.150000X0.425000X-0.150000X0.425000X0.150000X0*%
%ADD27RoundRect,0.075000X-0.500000X0.075000X-0.500000X-0.075000X0.500000X-0.075000X0.500000X0.075000X0*%
%ADD28O,2.100000X1.000000*%
%ADD29O,1.800000X1.000000*%
%ADD30RoundRect,0.150000X-0.512500X-0.150000X0.512500X-0.150000X0.512500X0.150000X-0.512500X0.150000X0*%
%ADD31C,1.000000*%
%ADD32RoundRect,0.250000X-0.350000X-0.625000X0.350000X-0.625000X0.350000X0.625000X-0.350000X0.625000X0*%
%ADD33O,1.200000X1.750000*%
%ADD34RoundRect,0.237500X0.250000X0.237500X-0.250000X0.237500X-0.250000X-0.237500X0.250000X-0.237500X0*%
%ADD35RoundRect,0.250000X-0.650000X0.412500X-0.650000X-0.412500X0.650000X-0.412500X0.650000X0.412500X0*%
%ADD36RoundRect,0.250000X0.450000X-0.325000X0.450000X0.325000X-0.450000X0.325000X-0.450000X-0.325000X0*%
%ADD37RoundRect,0.237500X-0.237500X0.300000X-0.237500X-0.300000X0.237500X-0.300000X0.237500X0.300000X0*%
%ADD38RoundRect,0.237500X-0.237500X0.250000X-0.237500X-0.250000X0.237500X-0.250000X0.237500X0.250000X0*%
%ADD39RoundRect,0.200000X0.200000X0.800000X-0.200000X0.800000X-0.200000X-0.800000X0.200000X-0.800000X0*%
%ADD40RoundRect,0.237500X-0.250000X-0.237500X0.250000X-0.237500X0.250000X0.237500X-0.250000X0.237500X0*%
%ADD41C,0.800000*%
%ADD42C,6.400000*%
%ADD43RoundRect,0.155000X0.212500X0.155000X-0.212500X0.155000X-0.212500X-0.155000X0.212500X-0.155000X0*%
%ADD44RoundRect,0.250000X-0.475000X0.337500X-0.475000X-0.337500X0.475000X-0.337500X0.475000X0.337500X0*%
%ADD45RoundRect,0.250001X0.949999X-1.499999X0.949999X1.499999X-0.949999X1.499999X-0.949999X-1.499999X0*%
%ADD46RoundRect,0.087500X-0.187500X-0.087500X0.187500X-0.087500X0.187500X0.087500X-0.187500X0.087500X0*%
%ADD47RoundRect,0.087500X-0.087500X-0.187500X0.087500X-0.187500X0.087500X0.187500X-0.087500X0.187500X0*%
%ADD48RoundRect,0.250000X0.625000X-0.350000X0.625000X0.350000X-0.625000X0.350000X-0.625000X-0.350000X0*%
%ADD49O,1.750000X1.200000*%
%ADD50RoundRect,0.237500X0.287500X0.237500X-0.287500X0.237500X-0.287500X-0.237500X0.287500X-0.237500X0*%
%ADD51RoundRect,0.155000X0.155000X-0.212500X0.155000X0.212500X-0.155000X0.212500X-0.155000X-0.212500X0*%
%ADD52RoundRect,0.155000X-0.212500X-0.155000X0.212500X-0.155000X0.212500X0.155000X-0.212500X0.155000X0*%
%ADD53RoundRect,0.200000X-0.800000X0.200000X-0.800000X-0.200000X0.800000X-0.200000X0.800000X0.200000X0*%
%ADD54C,3.000000*%
%ADD55RoundRect,0.250000X-0.337500X-0.475000X0.337500X-0.475000X0.337500X0.475000X-0.337500X0.475000X0*%
%ADD56RoundRect,0.062500X-0.337500X-0.062500X0.337500X-0.062500X0.337500X0.062500X-0.337500X0.062500X0*%
%ADD57RoundRect,0.062500X-0.062500X-0.337500X0.062500X-0.337500X0.062500X0.337500X-0.062500X0.337500X0*%
%ADD58R,3.350000X3.350000*%
%ADD59RoundRect,0.155000X-0.155000X0.212500X-0.155000X-0.212500X0.155000X-0.212500X0.155000X0.212500X0*%
%ADD60RoundRect,0.375000X-0.625000X-0.375000X0.625000X-0.375000X0.625000X0.375000X-0.625000X0.375000X0*%
%ADD61RoundRect,0.500000X-0.500000X-1.400000X0.500000X-1.400000X0.500000X1.400000X-0.500000X1.400000X0*%
%ADD62RoundRect,0.075000X0.662500X0.075000X-0.662500X0.075000X-0.662500X-0.075000X0.662500X-0.075000X0*%
%ADD63RoundRect,0.075000X0.075000X0.662500X-0.075000X0.662500X-0.075000X-0.662500X0.075000X-0.662500X0*%
%ADD64RoundRect,0.237500X0.237500X-0.250000X0.237500X0.250000X-0.237500X0.250000X-0.237500X-0.250000X0*%
%ADD65R,1.800000X1.000000*%
%ADD66C,1.500000*%
%ADD67RoundRect,0.250000X-0.550000X-0.550000X0.550000X-0.550000X0.550000X0.550000X-0.550000X0.550000X0*%
%ADD68C,1.600000*%
%ADD69RoundRect,0.250000X-0.325000X-0.450000X0.325000X-0.450000X0.325000X0.450000X-0.325000X0.450000X0*%
%ADD70R,0.500000X0.300000*%
%ADD71R,1.700000X1.700000*%
%ADD72C,1.700000*%
%ADD73RoundRect,0.112500X0.187500X0.112500X-0.187500X0.112500X-0.187500X-0.112500X0.187500X-0.112500X0*%
%ADD74RoundRect,0.050000X-0.312500X-0.050000X0.312500X-0.050000X0.312500X0.050000X-0.312500X0.050000X0*%
%ADD75R,0.900000X1.500000*%
%ADD76RoundRect,0.250000X-0.450000X0.325000X-0.450000X-0.325000X0.450000X-0.325000X0.450000X0.325000X0*%
%ADD77RoundRect,0.237500X-0.237500X0.287500X-0.237500X-0.287500X0.237500X-0.287500X0.237500X0.287500X0*%
%ADD78RoundRect,0.218750X0.218750X0.256250X-0.218750X0.256250X-0.218750X-0.256250X0.218750X-0.256250X0*%
G04 APERTURE END LIST*
D10*
X66800000Y30600000D02*
X67800000Y30600000D01*
X67800000Y30600000D02*
X70000000Y30600000D01*
X70000000Y30600000D02*
X71800000Y30600000D01*
X71800000Y30600000D02*
X72000000Y30600000D01*
X72000000Y30600000D02*
X72000000Y29000000D01*
D11*
X887030Y11207393D02*
X910840Y11183584D01*
X910840Y11183584D02*
X934649Y11112155D01*
X934649Y11112155D02*
X934649Y11064536D01*
X934649Y11064536D02*
X910840Y10993108D01*
X910840Y10993108D02*
X863220Y10945489D01*
X863220Y10945489D02*
X815601Y10921679D01*
X815601Y10921679D02*
X720363Y10897870D01*
X720363Y10897870D02*
X648935Y10897870D01*
X648935Y10897870D02*
X553697Y10921679D01*
X553697Y10921679D02*
X506078Y10945489D01*
X506078Y10945489D02*
X458459Y10993108D01*
X458459Y10993108D02*
X434649Y11064536D01*
X434649Y11064536D02*
X434649Y11112155D01*
X434649Y11112155D02*
X458459Y11183584D01*
X458459Y11183584D02*
X482268Y11207393D01*
X934649Y11421679D02*
X434649Y11421679D01*
X672744Y11421679D02*
X672744Y11707393D01*
X934649Y11707393D02*
X434649Y11707393D01*
X458459Y12207394D02*
X434649Y12159775D01*
X434649Y12159775D02*
X434649Y12088346D01*
X434649Y12088346D02*
X458459Y12016918D01*
X458459Y12016918D02*
X506078Y11969299D01*
X506078Y11969299D02*
X553697Y11945489D01*
X553697Y11945489D02*
X648935Y11921680D01*
X648935Y11921680D02*
X720363Y11921680D01*
X720363Y11921680D02*
X815601Y11945489D01*
X815601Y11945489D02*
X863220Y11969299D01*
X863220Y11969299D02*
X910840Y12016918D01*
X910840Y12016918D02*
X934649Y12088346D01*
X934649Y12088346D02*
X934649Y12135965D01*
X934649Y12135965D02*
X910840Y12207394D01*
X910840Y12207394D02*
X887030Y12231203D01*
X887030Y12231203D02*
X720363Y12231203D01*
X720363Y12231203D02*
X720363Y12135965D01*
X982268Y12326441D02*
X982268Y12707394D01*
X934649Y13064536D02*
X934649Y12826441D01*
X934649Y12826441D02*
X434649Y12826441D01*
X672744Y13231203D02*
X672744Y13397870D01*
X934649Y13469298D02*
X934649Y13231203D01*
X934649Y13231203D02*
X434649Y13231203D01*
X434649Y13231203D02*
X434649Y13469298D01*
X934649Y13683584D02*
X434649Y13683584D01*
X434649Y13683584D02*
X434649Y13802632D01*
X434649Y13802632D02*
X458459Y13874060D01*
X458459Y13874060D02*
X506078Y13921679D01*
X506078Y13921679D02*
X553697Y13945489D01*
X553697Y13945489D02*
X648935Y13969298D01*
X648935Y13969298D02*
X720363Y13969298D01*
X720363Y13969298D02*
X815601Y13945489D01*
X815601Y13945489D02*
X863220Y13921679D01*
X863220Y13921679D02*
X910840Y13874060D01*
X910840Y13874060D02*
X934649Y13802632D01*
X934649Y13802632D02*
X934649Y13683584D01*
D10*
X64087826Y14478509D02*
X64087826Y15011842D01*
X64487826Y22078509D02*
X64487826Y22611842D01*
X64868779Y22345176D02*
X64106874Y22345176D01*
X64544969Y17311842D02*
X64592588Y17411842D01*
X64592588Y17411842D02*
X64640207Y17445176D01*
X64640207Y17445176D02*
X64735445Y17478509D01*
X64735445Y17478509D02*
X64878302Y17478509D01*
X64878302Y17478509D02*
X64973540Y17445176D01*
X64973540Y17445176D02*
X65021160Y17411842D01*
X65021160Y17411842D02*
X65068779Y17345176D01*
X65068779Y17345176D02*
X65068779Y17078509D01*
X65068779Y17078509D02*
X64068779Y17078509D01*
X64068779Y17078509D02*
X64068779Y17311842D01*
X64068779Y17311842D02*
X64116398Y17378509D01*
X64116398Y17378509D02*
X64164017Y17411842D01*
X64164017Y17411842D02*
X64259255Y17445176D01*
X64259255Y17445176D02*
X64354493Y17445176D01*
X64354493Y17445176D02*
X64449731Y17411842D01*
X64449731Y17411842D02*
X64497350Y17378509D01*
X64497350Y17378509D02*
X64544969Y17311842D01*
X64544969Y17311842D02*
X64544969Y17078509D01*
X65068779Y17878509D02*
X65021160Y17811842D01*
X65021160Y17811842D02*
X64973540Y17778509D01*
X64973540Y17778509D02*
X64878302Y17745176D01*
X64878302Y17745176D02*
X64592588Y17745176D01*
X64592588Y17745176D02*
X64497350Y17778509D01*
X64497350Y17778509D02*
X64449731Y17811842D01*
X64449731Y17811842D02*
X64402112Y17878509D01*
X64402112Y17878509D02*
X64402112Y17978509D01*
X64402112Y17978509D02*
X64449731Y18045176D01*
X64449731Y18045176D02*
X64497350Y18078509D01*
X64497350Y18078509D02*
X64592588Y18111842D01*
X64592588Y18111842D02*
X64878302Y18111842D01*
X64878302Y18111842D02*
X64973540Y18078509D01*
X64973540Y18078509D02*
X65021160Y18045176D01*
X65021160Y18045176D02*
X65068779Y17978509D01*
X65068779Y17978509D02*
X65068779Y17878509D01*
X65068779Y18511842D02*
X65021160Y18445175D01*
X65021160Y18445175D02*
X64973540Y18411842D01*
X64973540Y18411842D02*
X64878302Y18378509D01*
X64878302Y18378509D02*
X64592588Y18378509D01*
X64592588Y18378509D02*
X64497350Y18411842D01*
X64497350Y18411842D02*
X64449731Y18445175D01*
X64449731Y18445175D02*
X64402112Y18511842D01*
X64402112Y18511842D02*
X64402112Y18611842D01*
X64402112Y18611842D02*
X64449731Y18678509D01*
X64449731Y18678509D02*
X64497350Y18711842D01*
X64497350Y18711842D02*
X64592588Y18745175D01*
X64592588Y18745175D02*
X64878302Y18745175D01*
X64878302Y18745175D02*
X64973540Y18711842D01*
X64973540Y18711842D02*
X65021160Y18678509D01*
X65021160Y18678509D02*
X65068779Y18611842D01*
X65068779Y18611842D02*
X65068779Y18511842D01*
X64402112Y18945175D02*
X64402112Y19211842D01*
X64068779Y19045175D02*
X64925921Y19045175D01*
X64925921Y19045175D02*
X65021160Y19078508D01*
X65021160Y19078508D02*
X65068779Y19145175D01*
X65068779Y19145175D02*
X65068779Y19211842D01*
X64068779Y19578508D02*
X64068779Y19645175D01*
X64068779Y19645175D02*
X64116398Y19711842D01*
X64116398Y19711842D02*
X64164017Y19745175D01*
X64164017Y19745175D02*
X64259255Y19778508D01*
X64259255Y19778508D02*
X64449731Y19811842D01*
X64449731Y19811842D02*
X64687826Y19811842D01*
X64687826Y19811842D02*
X64878302Y19778508D01*
X64878302Y19778508D02*
X64973540Y19745175D01*
X64973540Y19745175D02*
X65021160Y19711842D01*
X65021160Y19711842D02*
X65068779Y19645175D01*
X65068779Y19645175D02*
X65068779Y19578508D01*
X65068779Y19578508D02*
X65021160Y19511842D01*
X65021160Y19511842D02*
X64973540Y19478508D01*
X64973540Y19478508D02*
X64878302Y19445175D01*
X64878302Y19445175D02*
X64687826Y19411842D01*
X64687826Y19411842D02*
X64449731Y19411842D01*
X64449731Y19411842D02*
X64259255Y19445175D01*
X64259255Y19445175D02*
X64164017Y19478508D01*
X64164017Y19478508D02*
X64116398Y19511842D01*
X64116398Y19511842D02*
X64068779Y19578508D01*
D11*
X55843107Y8521113D02*
X56109773Y8521113D01*
X56224059Y8102065D02*
X55843107Y8102065D01*
X55843107Y8102065D02*
X55843107Y8902065D01*
X55843107Y8902065D02*
X56224059Y8902065D01*
X56490726Y8902065D02*
X57024060Y8102065D01*
X57024060Y8902065D02*
X56490726Y8102065D01*
X57328822Y8102065D02*
X57328822Y8902065D01*
X57595488Y8902065D02*
X58052631Y8902065D01*
X57824059Y8102065D02*
X57824059Y8902065D01*
X58128822Y8025875D02*
X58738345Y8025875D01*
X59195488Y8521113D02*
X59309774Y8483018D01*
X59309774Y8483018D02*
X59347869Y8444922D01*
X59347869Y8444922D02*
X59385965Y8368732D01*
X59385965Y8368732D02*
X59385965Y8254446D01*
X59385965Y8254446D02*
X59347869Y8178256D01*
X59347869Y8178256D02*
X59309774Y8140160D01*
X59309774Y8140160D02*
X59233584Y8102065D01*
X59233584Y8102065D02*
X58928822Y8102065D01*
X58928822Y8102065D02*
X58928822Y8902065D01*
X58928822Y8902065D02*
X59195488Y8902065D01*
X59195488Y8902065D02*
X59271679Y8863970D01*
X59271679Y8863970D02*
X59309774Y8825875D01*
X59309774Y8825875D02*
X59347869Y8749684D01*
X59347869Y8749684D02*
X59347869Y8673494D01*
X59347869Y8673494D02*
X59309774Y8597303D01*
X59309774Y8597303D02*
X59271679Y8559208D01*
X59271679Y8559208D02*
X59195488Y8521113D01*
X59195488Y8521113D02*
X58928822Y8521113D01*
X59614536Y8902065D02*
X60071679Y8902065D01*
X59843107Y8102065D02*
X59843107Y8902065D01*
X60338346Y8102065D02*
X60338346Y8902065D01*
X60338346Y8902065D02*
X60795489Y8102065D01*
X60795489Y8102065D02*
X60795489Y8902065D01*
X66097935Y17643108D02*
X65297935Y17643108D01*
X65297935Y17643108D02*
X65297935Y17833584D01*
X65297935Y17833584D02*
X65336030Y17947870D01*
X65336030Y17947870D02*
X65412220Y18024060D01*
X65412220Y18024060D02*
X65488411Y18062155D01*
X65488411Y18062155D02*
X65640792Y18100251D01*
X65640792Y18100251D02*
X65755078Y18100251D01*
X65755078Y18100251D02*
X65907459Y18062155D01*
X65907459Y18062155D02*
X65983649Y18024060D01*
X65983649Y18024060D02*
X66059840Y17947870D01*
X66059840Y17947870D02*
X66097935Y17833584D01*
X66097935Y17833584D02*
X66097935Y17643108D01*
X66097935Y18443108D02*
X65564601Y18443108D01*
X65297935Y18443108D02*
X65336030Y18405012D01*
X65336030Y18405012D02*
X65374125Y18443108D01*
X65374125Y18443108D02*
X65336030Y18481203D01*
X65336030Y18481203D02*
X65297935Y18443108D01*
X65297935Y18443108D02*
X65374125Y18443108D01*
X66059840Y18785964D02*
X66097935Y18862155D01*
X66097935Y18862155D02*
X66097935Y19014536D01*
X66097935Y19014536D02*
X66059840Y19090726D01*
X66059840Y19090726D02*
X65983649Y19128822D01*
X65983649Y19128822D02*
X65945554Y19128822D01*
X65945554Y19128822D02*
X65869363Y19090726D01*
X65869363Y19090726D02*
X65831268Y19014536D01*
X65831268Y19014536D02*
X65831268Y18900250D01*
X65831268Y18900250D02*
X65793173Y18824060D01*
X65793173Y18824060D02*
X65716982Y18785964D01*
X65716982Y18785964D02*
X65678887Y18785964D01*
X65678887Y18785964D02*
X65602697Y18824060D01*
X65602697Y18824060D02*
X65564601Y18900250D01*
X65564601Y18900250D02*
X65564601Y19014536D01*
X65564601Y19014536D02*
X65602697Y19090726D01*
X65564601Y19471679D02*
X66364601Y19471679D01*
X65602697Y19471679D02*
X65564601Y19547869D01*
X65564601Y19547869D02*
X65564601Y19700250D01*
X65564601Y19700250D02*
X65602697Y19776441D01*
X65602697Y19776441D02*
X65640792Y19814536D01*
X65640792Y19814536D02*
X65716982Y19852631D01*
X65716982Y19852631D02*
X65945554Y19852631D01*
X65945554Y19852631D02*
X66021744Y19814536D01*
X66021744Y19814536D02*
X66059840Y19776441D01*
X66059840Y19776441D02*
X66097935Y19700250D01*
X66097935Y19700250D02*
X66097935Y19547869D01*
X66097935Y19547869D02*
X66059840Y19471679D01*
X66097935Y20309774D02*
X66059840Y20233584D01*
X66059840Y20233584D02*
X65983649Y20195489D01*
X65983649Y20195489D02*
X65297935Y20195489D01*
X66097935Y20957394D02*
X65678887Y20957394D01*
X65678887Y20957394D02*
X65602697Y20919299D01*
X65602697Y20919299D02*
X65564601Y20843108D01*
X65564601Y20843108D02*
X65564601Y20690727D01*
X65564601Y20690727D02*
X65602697Y20614537D01*
X66059840Y20957394D02*
X66097935Y20881203D01*
X66097935Y20881203D02*
X66097935Y20690727D01*
X66097935Y20690727D02*
X66059840Y20614537D01*
X66059840Y20614537D02*
X65983649Y20576441D01*
X65983649Y20576441D02*
X65907459Y20576441D01*
X65907459Y20576441D02*
X65831268Y20614537D01*
X65831268Y20614537D02*
X65793173Y20690727D01*
X65793173Y20690727D02*
X65793173Y20881203D01*
X65793173Y20881203D02*
X65755078Y20957394D01*
X65564601Y21262156D02*
X66097935Y21452632D01*
X65564601Y21643109D02*
X66097935Y21452632D01*
X66097935Y21452632D02*
X66288411Y21376442D01*
X66288411Y21376442D02*
X66326506Y21338347D01*
X66326506Y21338347D02*
X66364601Y21262156D01*
X66021744Y23014538D02*
X66059840Y22976442D01*
X66059840Y22976442D02*
X66097935Y22862157D01*
X66097935Y22862157D02*
X66097935Y22785966D01*
X66097935Y22785966D02*
X66059840Y22671680D01*
X66059840Y22671680D02*
X65983649Y22595490D01*
X65983649Y22595490D02*
X65907459Y22557395D01*
X65907459Y22557395D02*
X65755078Y22519299D01*
X65755078Y22519299D02*
X65640792Y22519299D01*
X65640792Y22519299D02*
X65488411Y22557395D01*
X65488411Y22557395D02*
X65412220Y22595490D01*
X65412220Y22595490D02*
X65336030Y22671680D01*
X65336030Y22671680D02*
X65297935Y22785966D01*
X65297935Y22785966D02*
X65297935Y22862157D01*
X65297935Y22862157D02*
X65336030Y22976442D01*
X65336030Y22976442D02*
X65374125Y23014538D01*
X66097935Y23471680D02*
X66059840Y23395490D01*
X66059840Y23395490D02*
X66021744Y23357395D01*
X66021744Y23357395D02*
X65945554Y23319299D01*
X65945554Y23319299D02*
X65716982Y23319299D01*
X65716982Y23319299D02*
X65640792Y23357395D01*
X65640792Y23357395D02*
X65602697Y23395490D01*
X65602697Y23395490D02*
X65564601Y23471680D01*
X65564601Y23471680D02*
X65564601Y23585966D01*
X65564601Y23585966D02*
X65602697Y23662157D01*
X65602697Y23662157D02*
X65640792Y23700252D01*
X65640792Y23700252D02*
X65716982Y23738347D01*
X65716982Y23738347D02*
X65945554Y23738347D01*
X65945554Y23738347D02*
X66021744Y23700252D01*
X66021744Y23700252D02*
X66059840Y23662157D01*
X66059840Y23662157D02*
X66097935Y23585966D01*
X66097935Y23585966D02*
X66097935Y23471680D01*
X65564601Y24081205D02*
X66097935Y24081205D01*
X65640792Y24081205D02*
X65602697Y24119300D01*
X65602697Y24119300D02*
X65564601Y24195490D01*
X65564601Y24195490D02*
X65564601Y24309776D01*
X65564601Y24309776D02*
X65602697Y24385967D01*
X65602697Y24385967D02*
X65678887Y24424062D01*
X65678887Y24424062D02*
X66097935Y24424062D01*
X65564601Y24805015D02*
X66097935Y24805015D01*
X65640792Y24805015D02*
X65602697Y24843110D01*
X65602697Y24843110D02*
X65564601Y24919300D01*
X65564601Y24919300D02*
X65564601Y25033586D01*
X65564601Y25033586D02*
X65602697Y25109777D01*
X65602697Y25109777D02*
X65678887Y25147872D01*
X65678887Y25147872D02*
X66097935Y25147872D01*
X66059840Y25833587D02*
X66097935Y25757396D01*
X66097935Y25757396D02*
X66097935Y25605015D01*
X66097935Y25605015D02*
X66059840Y25528825D01*
X66059840Y25528825D02*
X65983649Y25490729D01*
X65983649Y25490729D02*
X65678887Y25490729D01*
X65678887Y25490729D02*
X65602697Y25528825D01*
X65602697Y25528825D02*
X65564601Y25605015D01*
X65564601Y25605015D02*
X65564601Y25757396D01*
X65564601Y25757396D02*
X65602697Y25833587D01*
X65602697Y25833587D02*
X65678887Y25871682D01*
X65678887Y25871682D02*
X65755078Y25871682D01*
X65755078Y25871682D02*
X65831268Y25490729D01*
X66059840Y26557396D02*
X66097935Y26481205D01*
X66097935Y26481205D02*
X66097935Y26328824D01*
X66097935Y26328824D02*
X66059840Y26252634D01*
X66059840Y26252634D02*
X66021744Y26214539D01*
X66021744Y26214539D02*
X65945554Y26176443D01*
X65945554Y26176443D02*
X65716982Y26176443D01*
X65716982Y26176443D02*
X65640792Y26214539D01*
X65640792Y26214539D02*
X65602697Y26252634D01*
X65602697Y26252634D02*
X65564601Y26328824D01*
X65564601Y26328824D02*
X65564601Y26481205D01*
X65564601Y26481205D02*
X65602697Y26557396D01*
X65564601Y26785967D02*
X65564601Y27090729D01*
X65297935Y26900253D02*
X65983649Y26900253D01*
X65983649Y26900253D02*
X66059840Y26938348D01*
X66059840Y26938348D02*
X66097935Y27014538D01*
X66097935Y27014538D02*
X66097935Y27090729D01*
X66097935Y27471681D02*
X66059840Y27395491D01*
X66059840Y27395491D02*
X66021744Y27357396D01*
X66021744Y27357396D02*
X65945554Y27319300D01*
X65945554Y27319300D02*
X65716982Y27319300D01*
X65716982Y27319300D02*
X65640792Y27357396D01*
X65640792Y27357396D02*
X65602697Y27395491D01*
X65602697Y27395491D02*
X65564601Y27471681D01*
X65564601Y27471681D02*
X65564601Y27585967D01*
X65564601Y27585967D02*
X65602697Y27662158D01*
X65602697Y27662158D02*
X65640792Y27700253D01*
X65640792Y27700253D02*
X65716982Y27738348D01*
X65716982Y27738348D02*
X65945554Y27738348D01*
X65945554Y27738348D02*
X66021744Y27700253D01*
X66021744Y27700253D02*
X66059840Y27662158D01*
X66059840Y27662158D02*
X66097935Y27585967D01*
X66097935Y27585967D02*
X66097935Y27471681D01*
X66097935Y28081206D02*
X65564601Y28081206D01*
X65716982Y28081206D02*
X65640792Y28119301D01*
X65640792Y28119301D02*
X65602697Y28157396D01*
X65602697Y28157396D02*
X65564601Y28233587D01*
X65564601Y28233587D02*
X65564601Y28309777D01*
D12*
X11891759Y33466310D02*
X11815569Y33504405D01*
X11815569Y33504405D02*
X11701283Y33504405D01*
X11701283Y33504405D02*
X11586997Y33466310D01*
X11586997Y33466310D02*
X11510807Y33390120D01*
X11510807Y33390120D02*
X11472712Y33313929D01*
X11472712Y33313929D02*
X11434616Y33161548D01*
X11434616Y33161548D02*
X11434616Y33047262D01*
X11434616Y33047262D02*
X11472712Y32894881D01*
X11472712Y32894881D02*
X11510807Y32818691D01*
X11510807Y32818691D02*
X11586997Y32742500D01*
X11586997Y32742500D02*
X11701283Y32704405D01*
X11701283Y32704405D02*
X11777474Y32704405D01*
X11777474Y32704405D02*
X11891759Y32742500D01*
X11891759Y32742500D02*
X11929855Y32780596D01*
X11929855Y32780596D02*
X11929855Y33047262D01*
X11929855Y33047262D02*
X11777474Y33047262D01*
X12272712Y32704405D02*
X12272712Y33504405D01*
X12272712Y33504405D02*
X12729855Y32704405D01*
X12729855Y32704405D02*
X12729855Y33504405D01*
X13110807Y32704405D02*
X13110807Y33504405D01*
X13110807Y33504405D02*
X13301283Y33504405D01*
X13301283Y33504405D02*
X13415569Y33466310D01*
X13415569Y33466310D02*
X13491759Y33390120D01*
X13491759Y33390120D02*
X13529854Y33313929D01*
X13529854Y33313929D02*
X13567950Y33161548D01*
X13567950Y33161548D02*
X13567950Y33047262D01*
X13567950Y33047262D02*
X13529854Y32894881D01*
X13529854Y32894881D02*
X13491759Y32818691D01*
X13491759Y32818691D02*
X13415569Y32742500D01*
X13415569Y32742500D02*
X13301283Y32704405D01*
X13301283Y32704405D02*
X13110807Y32704405D01*
X16272712Y33659167D02*
X16882236Y33659167D01*
X16577474Y33354405D02*
X16577474Y33963929D01*
X17148902Y34154405D02*
X17415569Y33354405D01*
X17415569Y33354405D02*
X17682235Y34154405D01*
X17948902Y33773453D02*
X18215568Y33773453D01*
X18329854Y33354405D02*
X17948902Y33354405D01*
X17948902Y33354405D02*
X17948902Y34154405D01*
X17948902Y34154405D02*
X18329854Y34154405D01*
D10*
X1093255Y28549938D02*
X293255Y28549938D01*
X293255Y28549938D02*
X293255Y28930890D01*
X293255Y28930890D02*
X331350Y29026128D01*
X331350Y29026128D02*
X369445Y29073747D01*
X369445Y29073747D02*
X445636Y29121366D01*
X445636Y29121366D02*
X559921Y29121366D01*
X559921Y29121366D02*
X636112Y29073747D01*
X636112Y29073747D02*
X674207Y29026128D01*
X674207Y29026128D02*
X712302Y28930890D01*
X712302Y28930890D02*
X712302Y28549938D01*
X293255Y29454700D02*
X1093255Y29692795D01*
X1093255Y29692795D02*
X521826Y29883271D01*
X521826Y29883271D02*
X1093255Y30073747D01*
X1093255Y30073747D02*
X293255Y30311842D01*
X1093255Y31264223D02*
X712302Y30930890D01*
X1093255Y30692795D02*
X293255Y30692795D01*
X293255Y30692795D02*
X293255Y31073747D01*
X293255Y31073747D02*
X331350Y31168985D01*
X331350Y31168985D02*
X369445Y31216604D01*
X369445Y31216604D02*
X445636Y31264223D01*
X445636Y31264223D02*
X559921Y31264223D01*
X559921Y31264223D02*
X636112Y31216604D01*
X636112Y31216604D02*
X674207Y31168985D01*
X674207Y31168985D02*
X712302Y31073747D01*
X712302Y31073747D02*
X712302Y30692795D01*
X1169445Y31454699D02*
X1169445Y32216604D01*
X1093255Y32930890D02*
X1093255Y32454700D01*
X1093255Y32454700D02*
X293255Y32454700D01*
X674207Y33264224D02*
X674207Y33597557D01*
X1093255Y33740414D02*
X1093255Y33264224D01*
X1093255Y33264224D02*
X293255Y33264224D01*
X293255Y33264224D02*
X293255Y33740414D01*
X1093255Y34168986D02*
X293255Y34168986D01*
X293255Y34168986D02*
X293255Y34407081D01*
X293255Y34407081D02*
X331350Y34549938D01*
X331350Y34549938D02*
X407540Y34645176D01*
X407540Y34645176D02*
X483731Y34692795D01*
X483731Y34692795D02*
X636112Y34740414D01*
X636112Y34740414D02*
X750398Y34740414D01*
X750398Y34740414D02*
X902779Y34692795D01*
X902779Y34692795D02*
X978969Y34645176D01*
X978969Y34645176D02*
X1055160Y34549938D01*
X1055160Y34549938D02*
X1093255Y34407081D01*
X1093255Y34407081D02*
X1093255Y34168986D01*
D13*
X56894360Y46327581D02*
X57084836Y46327581D01*
X57084836Y46327581D02*
X57180074Y46279962D01*
X57180074Y46279962D02*
X57275312Y46184724D01*
X57275312Y46184724D02*
X57322931Y45994248D01*
X57322931Y45994248D02*
X57322931Y45660915D01*
X57322931Y45660915D02*
X57275312Y45470439D01*
X57275312Y45470439D02*
X57180074Y45375200D01*
X57180074Y45375200D02*
X57084836Y45327581D01*
X57084836Y45327581D02*
X56894360Y45327581D01*
X56894360Y45327581D02*
X56799122Y45375200D01*
X56799122Y45375200D02*
X56703884Y45470439D01*
X56703884Y45470439D02*
X56656265Y45660915D01*
X56656265Y45660915D02*
X56656265Y45994248D01*
X56656265Y45994248D02*
X56703884Y46184724D01*
X56703884Y46184724D02*
X56799122Y46279962D01*
X56799122Y46279962D02*
X56894360Y46327581D01*
X57751503Y45327581D02*
X57751503Y46327581D01*
X58322931Y45327581D02*
X57894360Y45899010D01*
X58322931Y46327581D02*
X57751503Y45756153D01*
X58513408Y45232343D02*
X59275312Y45232343D01*
X59846741Y45851391D02*
X59989598Y45803772D01*
X59989598Y45803772D02*
X60037217Y45756153D01*
X60037217Y45756153D02*
X60084836Y45660915D01*
X60084836Y45660915D02*
X60084836Y45518058D01*
X60084836Y45518058D02*
X60037217Y45422820D01*
X60037217Y45422820D02*
X59989598Y45375200D01*
X59989598Y45375200D02*
X59894360Y45327581D01*
X59894360Y45327581D02*
X59513408Y45327581D01*
X59513408Y45327581D02*
X59513408Y46327581D01*
X59513408Y46327581D02*
X59846741Y46327581D01*
X59846741Y46327581D02*
X59941979Y46279962D01*
X59941979Y46279962D02*
X59989598Y46232343D01*
X59989598Y46232343D02*
X60037217Y46137105D01*
X60037217Y46137105D02*
X60037217Y46041867D01*
X60037217Y46041867D02*
X59989598Y45946629D01*
X59989598Y45946629D02*
X59941979Y45899010D01*
X59941979Y45899010D02*
X59846741Y45851391D01*
X59846741Y45851391D02*
X59513408Y45851391D01*
X60370551Y46327581D02*
X60941979Y46327581D01*
X60656265Y45327581D02*
X60656265Y46327581D01*
X61275313Y45327581D02*
X61275313Y46327581D01*
X61275313Y46327581D02*
X61846741Y45327581D01*
X61846741Y45327581D02*
X61846741Y46327581D01*
X5872419Y35075313D02*
X5396228Y34741980D01*
X5872419Y34503885D02*
X4872419Y34503885D01*
X4872419Y34503885D02*
X4872419Y34884837D01*
X4872419Y34884837D02*
X4920038Y34980075D01*
X4920038Y34980075D02*
X4967657Y35027694D01*
X4967657Y35027694D02*
X5062895Y35075313D01*
X5062895Y35075313D02*
X5205752Y35075313D01*
X5205752Y35075313D02*
X5300990Y35027694D01*
X5300990Y35027694D02*
X5348609Y34980075D01*
X5348609Y34980075D02*
X5396228Y34884837D01*
X5396228Y34884837D02*
X5396228Y34503885D01*
X5824800Y35456266D02*
X5872419Y35599123D01*
X5872419Y35599123D02*
X5872419Y35837218D01*
X5872419Y35837218D02*
X5824800Y35932456D01*
X5824800Y35932456D02*
X5777180Y35980075D01*
X5777180Y35980075D02*
X5681942Y36027694D01*
X5681942Y36027694D02*
X5586704Y36027694D01*
X5586704Y36027694D02*
X5491466Y35980075D01*
X5491466Y35980075D02*
X5443847Y35932456D01*
X5443847Y35932456D02*
X5396228Y35837218D01*
X5396228Y35837218D02*
X5348609Y35646742D01*
X5348609Y35646742D02*
X5300990Y35551504D01*
X5300990Y35551504D02*
X5253371Y35503885D01*
X5253371Y35503885D02*
X5158133Y35456266D01*
X5158133Y35456266D02*
X5062895Y35456266D01*
X5062895Y35456266D02*
X4967657Y35503885D01*
X4967657Y35503885D02*
X4920038Y35551504D01*
X4920038Y35551504D02*
X4872419Y35646742D01*
X4872419Y35646742D02*
X4872419Y35884837D01*
X4872419Y35884837D02*
X4920038Y36027694D01*
X4872419Y36313409D02*
X4872419Y36884837D01*
X5872419Y36599123D02*
X4872419Y36599123D01*
D14*
X14883082Y3027743D02*
X15597368Y3027743D01*
X14740225Y2599172D02*
X15240225Y4099172D01*
X15240225Y4099172D02*
X15740225Y2599172D01*
X16097367Y3599172D02*
X16883082Y3599172D01*
X16883082Y3599172D02*
X16097367Y2599172D01*
X16097367Y2599172D02*
X16883082Y2599172D01*
X17454510Y2599172D02*
X17454510Y3599172D01*
X17454510Y3313458D02*
X17525939Y3456315D01*
X17525939Y3456315D02*
X17597368Y3527743D01*
X17597368Y3527743D02*
X17740225Y3599172D01*
X17740225Y3599172D02*
X17883082Y3599172D01*
X19025939Y2599172D02*
X19025939Y3384886D01*
X19025939Y3384886D02*
X18954510Y3527743D01*
X18954510Y3527743D02*
X18811653Y3599172D01*
X18811653Y3599172D02*
X18525939Y3599172D01*
X18525939Y3599172D02*
X18383081Y3527743D01*
X19025939Y2670600D02*
X18883081Y2599172D01*
X18883081Y2599172D02*
X18525939Y2599172D01*
X18525939Y2599172D02*
X18383081Y2670600D01*
X18383081Y2670600D02*
X18311653Y2813458D01*
X18311653Y2813458D02*
X18311653Y2956315D01*
X18311653Y2956315D02*
X18383081Y3099172D01*
X18383081Y3099172D02*
X18525939Y3170600D01*
X18525939Y3170600D02*
X18883081Y3170600D01*
X18883081Y3170600D02*
X19025939Y3242029D01*
X20311653Y2670600D02*
X20168796Y2599172D01*
X20168796Y2599172D02*
X19883082Y2599172D01*
X19883082Y2599172D02*
X19740224Y2670600D01*
X19740224Y2670600D02*
X19668796Y2813458D01*
X19668796Y2813458D02*
X19668796Y3384886D01*
X19668796Y3384886D02*
X19740224Y3527743D01*
X19740224Y3527743D02*
X19883082Y3599172D01*
X19883082Y3599172D02*
X20168796Y3599172D01*
X20168796Y3599172D02*
X20311653Y3527743D01*
X20311653Y3527743D02*
X20383082Y3384886D01*
X20383082Y3384886D02*
X20383082Y3242029D01*
X20383082Y3242029D02*
X19668796Y3099172D01*
X21240224Y2599172D02*
X21097367Y2670600D01*
X21097367Y2670600D02*
X21025938Y2813458D01*
X21025938Y2813458D02*
X21025938Y4099172D01*
X22811652Y3599172D02*
X23168795Y2599172D01*
X23168795Y2599172D02*
X23525938Y3599172D01*
X24883081Y2599172D02*
X24025938Y2599172D01*
X24454509Y2599172D02*
X24454509Y4099172D01*
X24454509Y4099172D02*
X24311652Y3884886D01*
X24311652Y3884886D02*
X24168795Y3742029D01*
X24168795Y3742029D02*
X24025938Y3670600D01*
D15*
X24609580Y47833334D02*
X24657200Y47785715D01*
X24657200Y47785715D02*
X24704819Y47642858D01*
X24704819Y47642858D02*
X24704819Y47547620D01*
X24704819Y47547620D02*
X24657200Y47404763D01*
X24657200Y47404763D02*
X24561961Y47309525D01*
X24561961Y47309525D02*
X24466723Y47261906D01*
X24466723Y47261906D02*
X24276247Y47214287D01*
X24276247Y47214287D02*
X24133390Y47214287D01*
X24133390Y47214287D02*
X23942914Y47261906D01*
X23942914Y47261906D02*
X23847676Y47309525D01*
X23847676Y47309525D02*
X23752438Y47404763D01*
X23752438Y47404763D02*
X23704819Y47547620D01*
X23704819Y47547620D02*
X23704819Y47642858D01*
X23704819Y47642858D02*
X23752438Y47785715D01*
X23752438Y47785715D02*
X23800057Y47833334D01*
X24704819Y48309525D02*
X24704819Y48500001D01*
X24704819Y48500001D02*
X24657200Y48595239D01*
X24657200Y48595239D02*
X24609580Y48642858D01*
X24609580Y48642858D02*
X24466723Y48738096D01*
X24466723Y48738096D02*
X24276247Y48785715D01*
X24276247Y48785715D02*
X23895295Y48785715D01*
X23895295Y48785715D02*
X23800057Y48738096D01*
X23800057Y48738096D02*
X23752438Y48690477D01*
X23752438Y48690477D02*
X23704819Y48595239D01*
X23704819Y48595239D02*
X23704819Y48404763D01*
X23704819Y48404763D02*
X23752438Y48309525D01*
X23752438Y48309525D02*
X23800057Y48261906D01*
X23800057Y48261906D02*
X23895295Y48214287D01*
X23895295Y48214287D02*
X24133390Y48214287D01*
X24133390Y48214287D02*
X24228628Y48261906D01*
X24228628Y48261906D02*
X24276247Y48309525D01*
X24276247Y48309525D02*
X24323866Y48404763D01*
X24323866Y48404763D02*
X24323866Y48595239D01*
X24323866Y48595239D02*
X24276247Y48690477D01*
X24276247Y48690477D02*
X24228628Y48738096D01*
X24228628Y48738096D02*
X24133390Y48785715D01*
X9931009Y39714286D02*
X9978628Y39857143D01*
X9978628Y39857143D02*
X10026247Y39904762D01*
X10026247Y39904762D02*
X10121485Y39952381D01*
X10121485Y39952381D02*
X10264342Y39952381D01*
X10264342Y39952381D02*
X10359580Y39904762D01*
X10359580Y39904762D02*
X10407200Y39857143D01*
X10407200Y39857143D02*
X10454819Y39761905D01*
X10454819Y39761905D02*
X10454819Y39380953D01*
X10454819Y39380953D02*
X9454819Y39380953D01*
X9454819Y39380953D02*
X9454819Y39714286D01*
X9454819Y39714286D02*
X9502438Y39809524D01*
X9502438Y39809524D02*
X9550057Y39857143D01*
X9550057Y39857143D02*
X9645295Y39904762D01*
X9645295Y39904762D02*
X9740533Y39904762D01*
X9740533Y39904762D02*
X9835771Y39857143D01*
X9835771Y39857143D02*
X9883390Y39809524D01*
X9883390Y39809524D02*
X9931009Y39714286D01*
X9931009Y39714286D02*
X9931009Y39380953D01*
X9454819Y40238096D02*
X9454819Y40809524D01*
X10454819Y40523810D02*
X9454819Y40523810D01*
X10454819Y41666667D02*
X10454819Y41095239D01*
X10454819Y41380953D02*
X9454819Y41380953D01*
X9454819Y41380953D02*
X9597676Y41285715D01*
X9597676Y41285715D02*
X9692914Y41190477D01*
X9692914Y41190477D02*
X9740533Y41095239D01*
X61357142Y28390420D02*
X61309523Y28342800D01*
X61309523Y28342800D02*
X61166666Y28295181D01*
X61166666Y28295181D02*
X61071428Y28295181D01*
X61071428Y28295181D02*
X60928571Y28342800D01*
X60928571Y28342800D02*
X60833333Y28438039D01*
X60833333Y28438039D02*
X60785714Y28533277D01*
X60785714Y28533277D02*
X60738095Y28723753D01*
X60738095Y28723753D02*
X60738095Y28866610D01*
X60738095Y28866610D02*
X60785714Y29057086D01*
X60785714Y29057086D02*
X60833333Y29152324D01*
X60833333Y29152324D02*
X60928571Y29247562D01*
X60928571Y29247562D02*
X61071428Y29295181D01*
X61071428Y29295181D02*
X61166666Y29295181D01*
X61166666Y29295181D02*
X61309523Y29247562D01*
X61309523Y29247562D02*
X61357142Y29199943D01*
X62309523Y28295181D02*
X61738095Y28295181D01*
X62023809Y28295181D02*
X62023809Y29295181D01*
X62023809Y29295181D02*
X61928571Y29152324D01*
X61928571Y29152324D02*
X61833333Y29057086D01*
X61833333Y29057086D02*
X61738095Y29009467D01*
X62642857Y29295181D02*
X63261904Y29295181D01*
X63261904Y29295181D02*
X62928571Y28914229D01*
X62928571Y28914229D02*
X63071428Y28914229D01*
X63071428Y28914229D02*
X63166666Y28866610D01*
X63166666Y28866610D02*
X63214285Y28818991D01*
X63214285Y28818991D02*
X63261904Y28723753D01*
X63261904Y28723753D02*
X63261904Y28485658D01*
X63261904Y28485658D02*
X63214285Y28390420D01*
X63214285Y28390420D02*
X63166666Y28342800D01*
X63166666Y28342800D02*
X63071428Y28295181D01*
X63071428Y28295181D02*
X62785714Y28295181D01*
X62785714Y28295181D02*
X62690476Y28342800D01*
X62690476Y28342800D02*
X62642857Y28390420D01*
X68859580Y39133334D02*
X68907200Y39085715D01*
X68907200Y39085715D02*
X68954819Y38942858D01*
X68954819Y38942858D02*
X68954819Y38847620D01*
X68954819Y38847620D02*
X68907200Y38704763D01*
X68907200Y38704763D02*
X68811961Y38609525D01*
X68811961Y38609525D02*
X68716723Y38561906D01*
X68716723Y38561906D02*
X68526247Y38514287D01*
X68526247Y38514287D02*
X68383390Y38514287D01*
X68383390Y38514287D02*
X68192914Y38561906D01*
X68192914Y38561906D02*
X68097676Y38609525D01*
X68097676Y38609525D02*
X68002438Y38704763D01*
X68002438Y38704763D02*
X67954819Y38847620D01*
X67954819Y38847620D02*
X67954819Y38942858D01*
X67954819Y38942858D02*
X68002438Y39085715D01*
X68002438Y39085715D02*
X68050057Y39133334D01*
X67954819Y39466668D02*
X67954819Y40133334D01*
X67954819Y40133334D02*
X68954819Y39704763D01*
X24083333Y33390420D02*
X24035714Y33342800D01*
X24035714Y33342800D02*
X23892857Y33295181D01*
X23892857Y33295181D02*
X23797619Y33295181D01*
X23797619Y33295181D02*
X23654762Y33342800D01*
X23654762Y33342800D02*
X23559524Y33438039D01*
X23559524Y33438039D02*
X23511905Y33533277D01*
X23511905Y33533277D02*
X23464286Y33723753D01*
X23464286Y33723753D02*
X23464286Y33866610D01*
X23464286Y33866610D02*
X23511905Y34057086D01*
X23511905Y34057086D02*
X23559524Y34152324D01*
X23559524Y34152324D02*
X23654762Y34247562D01*
X23654762Y34247562D02*
X23797619Y34295181D01*
X23797619Y34295181D02*
X23892857Y34295181D01*
X23892857Y34295181D02*
X24035714Y34247562D01*
X24035714Y34247562D02*
X24083333Y34199943D01*
X25035714Y33295181D02*
X24464286Y33295181D01*
X24750000Y33295181D02*
X24750000Y34295181D01*
X24750000Y34295181D02*
X24654762Y34152324D01*
X24654762Y34152324D02*
X24559524Y34057086D01*
X24559524Y34057086D02*
X24464286Y34009467D01*
X60150057Y14304762D02*
X60102438Y14209524D01*
X60102438Y14209524D02*
X60007200Y14114286D01*
X60007200Y14114286D02*
X59864342Y13971429D01*
X59864342Y13971429D02*
X59816723Y13876191D01*
X59816723Y13876191D02*
X59816723Y13780953D01*
X60054819Y13828572D02*
X60007200Y13733334D01*
X60007200Y13733334D02*
X59911961Y13638096D01*
X59911961Y13638096D02*
X59721485Y13590477D01*
X59721485Y13590477D02*
X59388152Y13590477D01*
X59388152Y13590477D02*
X59197676Y13638096D01*
X59197676Y13638096D02*
X59102438Y13733334D01*
X59102438Y13733334D02*
X59054819Y13828572D01*
X59054819Y13828572D02*
X59054819Y14019048D01*
X59054819Y14019048D02*
X59102438Y14114286D01*
X59102438Y14114286D02*
X59197676Y14209524D01*
X59197676Y14209524D02*
X59388152Y14257143D01*
X59388152Y14257143D02*
X59721485Y14257143D01*
X59721485Y14257143D02*
X59911961Y14209524D01*
X59911961Y14209524D02*
X60007200Y14114286D01*
X60007200Y14114286D02*
X60054819Y14019048D01*
X60054819Y14019048D02*
X60054819Y13828572D01*
X60054819Y15209524D02*
X60054819Y14638096D01*
X60054819Y14923810D02*
X59054819Y14923810D01*
X59054819Y14923810D02*
X59197676Y14828572D01*
X59197676Y14828572D02*
X59292914Y14733334D01*
X59292914Y14733334D02*
X59340533Y14638096D01*
X9045180Y17833334D02*
X8330895Y17833334D01*
X8330895Y17833334D02*
X8188038Y17880953D01*
X8188038Y17880953D02*
X8092800Y17976191D01*
X8092800Y17976191D02*
X8045180Y18119048D01*
X8045180Y18119048D02*
X8045180Y18214286D01*
X8045180Y16833334D02*
X8045180Y17404762D01*
X8045180Y17119048D02*
X9045180Y17119048D01*
X9045180Y17119048D02*
X8902323Y17214286D01*
X8902323Y17214286D02*
X8807085Y17309524D01*
X8807085Y17309524D02*
X8759466Y17404762D01*
X10625595Y18045181D02*
X10625595Y17235658D01*
X10625595Y17235658D02*
X10673214Y17140420D01*
X10673214Y17140420D02*
X10720833Y17092800D01*
X10720833Y17092800D02*
X10816071Y17045181D01*
X10816071Y17045181D02*
X11006547Y17045181D01*
X11006547Y17045181D02*
X11101785Y17092800D01*
X11101785Y17092800D02*
X11149404Y17140420D01*
X11149404Y17140420D02*
X11197023Y17235658D01*
X11197023Y17235658D02*
X11197023Y18045181D01*
X12197023Y17045181D02*
X11625595Y17045181D01*
X11911309Y17045181D02*
X11911309Y18045181D01*
X11911309Y18045181D02*
X11816071Y17902324D01*
X11816071Y17902324D02*
X11720833Y17807086D01*
X11720833Y17807086D02*
X11625595Y17759467D01*
X39938095Y12593181D02*
X40509523Y12593181D01*
X40223809Y11593181D02*
X40223809Y12593181D01*
X40842857Y11593181D02*
X40842857Y12593181D01*
X40842857Y12593181D02*
X41223809Y12593181D01*
X41223809Y12593181D02*
X41319047Y12545562D01*
X41319047Y12545562D02*
X41366666Y12497943D01*
X41366666Y12497943D02*
X41414285Y12402705D01*
X41414285Y12402705D02*
X41414285Y12259848D01*
X41414285Y12259848D02*
X41366666Y12164610D01*
X41366666Y12164610D02*
X41319047Y12116991D01*
X41319047Y12116991D02*
X41223809Y12069372D01*
X41223809Y12069372D02*
X40842857Y12069372D01*
X41795238Y12497943D02*
X41842857Y12545562D01*
X41842857Y12545562D02*
X41938095Y12593181D01*
X41938095Y12593181D02*
X42176190Y12593181D01*
X42176190Y12593181D02*
X42271428Y12545562D01*
X42271428Y12545562D02*
X42319047Y12497943D01*
X42319047Y12497943D02*
X42366666Y12402705D01*
X42366666Y12402705D02*
X42366666Y12307467D01*
X42366666Y12307467D02*
X42319047Y12164610D01*
X42319047Y12164610D02*
X41747619Y11593181D01*
X41747619Y11593181D02*
X42366666Y11593181D01*
X41916666Y7245181D02*
X41916666Y6530896D01*
X41916666Y6530896D02*
X41869047Y6388039D01*
X41869047Y6388039D02*
X41773809Y6292800D01*
X41773809Y6292800D02*
X41630952Y6245181D01*
X41630952Y6245181D02*
X41535714Y6245181D01*
X42297619Y7245181D02*
X42916666Y7245181D01*
X42916666Y7245181D02*
X42583333Y6864229D01*
X42583333Y6864229D02*
X42726190Y6864229D01*
X42726190Y6864229D02*
X42821428Y6816610D01*
X42821428Y6816610D02*
X42869047Y6768991D01*
X42869047Y6768991D02*
X42916666Y6673753D01*
X42916666Y6673753D02*
X42916666Y6435658D01*
X42916666Y6435658D02*
X42869047Y6340420D01*
X42869047Y6340420D02*
X42821428Y6292800D01*
X42821428Y6292800D02*
X42726190Y6245181D01*
X42726190Y6245181D02*
X42440476Y6245181D01*
X42440476Y6245181D02*
X42345238Y6292800D01*
X42345238Y6292800D02*
X42297619Y6340420D01*
X2670833Y9365181D02*
X2337500Y9841372D01*
X2099405Y9365181D02*
X2099405Y10365181D01*
X2099405Y10365181D02*
X2480357Y10365181D01*
X2480357Y10365181D02*
X2575595Y10317562D01*
X2575595Y10317562D02*
X2623214Y10269943D01*
X2623214Y10269943D02*
X2670833Y10174705D01*
X2670833Y10174705D02*
X2670833Y10031848D01*
X2670833Y10031848D02*
X2623214Y9936610D01*
X2623214Y9936610D02*
X2575595Y9888991D01*
X2575595Y9888991D02*
X2480357Y9841372D01*
X2480357Y9841372D02*
X2099405Y9841372D01*
X3147024Y9365181D02*
X3337500Y9365181D01*
X3337500Y9365181D02*
X3432738Y9412800D01*
X3432738Y9412800D02*
X3480357Y9460420D01*
X3480357Y9460420D02*
X3575595Y9603277D01*
X3575595Y9603277D02*
X3623214Y9793753D01*
X3623214Y9793753D02*
X3623214Y10174705D01*
X3623214Y10174705D02*
X3575595Y10269943D01*
X3575595Y10269943D02*
X3527976Y10317562D01*
X3527976Y10317562D02*
X3432738Y10365181D01*
X3432738Y10365181D02*
X3242262Y10365181D01*
X3242262Y10365181D02*
X3147024Y10317562D01*
X3147024Y10317562D02*
X3099405Y10269943D01*
X3099405Y10269943D02*
X3051786Y10174705D01*
X3051786Y10174705D02*
X3051786Y9936610D01*
X3051786Y9936610D02*
X3099405Y9841372D01*
X3099405Y9841372D02*
X3147024Y9793753D01*
X3147024Y9793753D02*
X3242262Y9746134D01*
X3242262Y9746134D02*
X3432738Y9746134D01*
X3432738Y9746134D02*
X3527976Y9793753D01*
X3527976Y9793753D02*
X3575595Y9841372D01*
X3575595Y9841372D02*
X3623214Y9936610D01*
X26359580Y37333334D02*
X26407200Y37285715D01*
X26407200Y37285715D02*
X26454819Y37142858D01*
X26454819Y37142858D02*
X26454819Y37047620D01*
X26454819Y37047620D02*
X26407200Y36904763D01*
X26407200Y36904763D02*
X26311961Y36809525D01*
X26311961Y36809525D02*
X26216723Y36761906D01*
X26216723Y36761906D02*
X26026247Y36714287D01*
X26026247Y36714287D02*
X25883390Y36714287D01*
X25883390Y36714287D02*
X25692914Y36761906D01*
X25692914Y36761906D02*
X25597676Y36809525D01*
X25597676Y36809525D02*
X25502438Y36904763D01*
X25502438Y36904763D02*
X25454819Y37047620D01*
X25454819Y37047620D02*
X25454819Y37142858D01*
X25454819Y37142858D02*
X25502438Y37285715D01*
X25502438Y37285715D02*
X25550057Y37333334D01*
X25454819Y38238096D02*
X25454819Y37761906D01*
X25454819Y37761906D02*
X25931009Y37714287D01*
X25931009Y37714287D02*
X25883390Y37761906D01*
X25883390Y37761906D02*
X25835771Y37857144D01*
X25835771Y37857144D02*
X25835771Y38095239D01*
X25835771Y38095239D02*
X25883390Y38190477D01*
X25883390Y38190477D02*
X25931009Y38238096D01*
X25931009Y38238096D02*
X26026247Y38285715D01*
X26026247Y38285715D02*
X26264342Y38285715D01*
X26264342Y38285715D02*
X26359580Y38238096D01*
X26359580Y38238096D02*
X26407200Y38190477D01*
X26407200Y38190477D02*
X26454819Y38095239D01*
X26454819Y38095239D02*
X26454819Y37857144D01*
X26454819Y37857144D02*
X26407200Y37761906D01*
X26407200Y37761906D02*
X26359580Y37714287D01*
X24954819Y21511906D02*
X23954819Y21511906D01*
X23954819Y21511906D02*
X23954819Y21750001D01*
X23954819Y21750001D02*
X24002438Y21892858D01*
X24002438Y21892858D02*
X24097676Y21988096D01*
X24097676Y21988096D02*
X24192914Y22035715D01*
X24192914Y22035715D02*
X24383390Y22083334D01*
X24383390Y22083334D02*
X24526247Y22083334D01*
X24526247Y22083334D02*
X24716723Y22035715D01*
X24716723Y22035715D02*
X24811961Y21988096D01*
X24811961Y21988096D02*
X24907200Y21892858D01*
X24907200Y21892858D02*
X24954819Y21750001D01*
X24954819Y21750001D02*
X24954819Y21511906D01*
X23954819Y22416668D02*
X23954819Y23083334D01*
X23954819Y23083334D02*
X24954819Y22654763D01*
X54564580Y15107143D02*
X54612200Y15059524D01*
X54612200Y15059524D02*
X54659819Y14916667D01*
X54659819Y14916667D02*
X54659819Y14821429D01*
X54659819Y14821429D02*
X54612200Y14678572D01*
X54612200Y14678572D02*
X54516961Y14583334D01*
X54516961Y14583334D02*
X54421723Y14535715D01*
X54421723Y14535715D02*
X54231247Y14488096D01*
X54231247Y14488096D02*
X54088390Y14488096D01*
X54088390Y14488096D02*
X53897914Y14535715D01*
X53897914Y14535715D02*
X53802676Y14583334D01*
X53802676Y14583334D02*
X53707438Y14678572D01*
X53707438Y14678572D02*
X53659819Y14821429D01*
X53659819Y14821429D02*
X53659819Y14916667D01*
X53659819Y14916667D02*
X53707438Y15059524D01*
X53707438Y15059524D02*
X53755057Y15107143D01*
X54659819Y16059524D02*
X54659819Y15488096D01*
X54659819Y15773810D02*
X53659819Y15773810D01*
X53659819Y15773810D02*
X53802676Y15678572D01*
X53802676Y15678572D02*
X53897914Y15583334D01*
X53897914Y15583334D02*
X53945533Y15488096D01*
X54659819Y16535715D02*
X54659819Y16726191D01*
X54659819Y16726191D02*
X54612200Y16821429D01*
X54612200Y16821429D02*
X54564580Y16869048D01*
X54564580Y16869048D02*
X54421723Y16964286D01*
X54421723Y16964286D02*
X54231247Y17011905D01*
X54231247Y17011905D02*
X53850295Y17011905D01*
X53850295Y17011905D02*
X53755057Y16964286D01*
X53755057Y16964286D02*
X53707438Y16916667D01*
X53707438Y16916667D02*
X53659819Y16821429D01*
X53659819Y16821429D02*
X53659819Y16630953D01*
X53659819Y16630953D02*
X53707438Y16535715D01*
X53707438Y16535715D02*
X53755057Y16488096D01*
X53755057Y16488096D02*
X53850295Y16440477D01*
X53850295Y16440477D02*
X54088390Y16440477D01*
X54088390Y16440477D02*
X54183628Y16488096D01*
X54183628Y16488096D02*
X54231247Y16535715D01*
X54231247Y16535715D02*
X54278866Y16630953D01*
X54278866Y16630953D02*
X54278866Y16821429D01*
X54278866Y16821429D02*
X54231247Y16916667D01*
X54231247Y16916667D02*
X54183628Y16964286D01*
X54183628Y16964286D02*
X54088390Y17011905D01*
X23384819Y14857143D02*
X22908628Y14523810D01*
X23384819Y14285715D02*
X22384819Y14285715D01*
X22384819Y14285715D02*
X22384819Y14666667D01*
X22384819Y14666667D02*
X22432438Y14761905D01*
X22432438Y14761905D02*
X22480057Y14809524D01*
X22480057Y14809524D02*
X22575295Y14857143D01*
X22575295Y14857143D02*
X22718152Y14857143D01*
X22718152Y14857143D02*
X22813390Y14809524D01*
X22813390Y14809524D02*
X22861009Y14761905D01*
X22861009Y14761905D02*
X22908628Y14666667D01*
X22908628Y14666667D02*
X22908628Y14285715D01*
X23384819Y15809524D02*
X23384819Y15238096D01*
X23384819Y15523810D02*
X22384819Y15523810D01*
X22384819Y15523810D02*
X22527676Y15428572D01*
X22527676Y15428572D02*
X22622914Y15333334D01*
X22622914Y15333334D02*
X22670533Y15238096D01*
X23384819Y16761905D02*
X23384819Y16190477D01*
X23384819Y16476191D02*
X22384819Y16476191D01*
X22384819Y16476191D02*
X22527676Y16380953D01*
X22527676Y16380953D02*
X22622914Y16285715D01*
X22622914Y16285715D02*
X22670533Y16190477D01*
X57666667Y40392800D02*
X57809524Y40345181D01*
X57809524Y40345181D02*
X58047619Y40345181D01*
X58047619Y40345181D02*
X58142857Y40392800D01*
X58142857Y40392800D02*
X58190476Y40440420D01*
X58190476Y40440420D02*
X58238095Y40535658D01*
X58238095Y40535658D02*
X58238095Y40630896D01*
X58238095Y40630896D02*
X58190476Y40726134D01*
X58190476Y40726134D02*
X58142857Y40773753D01*
X58142857Y40773753D02*
X58047619Y40821372D01*
X58047619Y40821372D02*
X57857143Y40868991D01*
X57857143Y40868991D02*
X57761905Y40916610D01*
X57761905Y40916610D02*
X57714286Y40964229D01*
X57714286Y40964229D02*
X57666667Y41059467D01*
X57666667Y41059467D02*
X57666667Y41154705D01*
X57666667Y41154705D02*
X57714286Y41249943D01*
X57714286Y41249943D02*
X57761905Y41297562D01*
X57761905Y41297562D02*
X57857143Y41345181D01*
X57857143Y41345181D02*
X58095238Y41345181D01*
X58095238Y41345181D02*
X58238095Y41297562D01*
X58571429Y41345181D02*
X58809524Y40345181D01*
X58809524Y40345181D02*
X59000000Y41059467D01*
X59000000Y41059467D02*
X59190476Y40345181D01*
X59190476Y40345181D02*
X59428572Y41345181D01*
X60333333Y40345181D02*
X59761905Y40345181D01*
X60047619Y40345181D02*
X60047619Y41345181D01*
X60047619Y41345181D02*
X59952381Y41202324D01*
X59952381Y41202324D02*
X59857143Y41107086D01*
X59857143Y41107086D02*
X59761905Y41059467D01*
X9357142Y11225181D02*
X9023809Y11701372D01*
X8785714Y11225181D02*
X8785714Y12225181D01*
X8785714Y12225181D02*
X9166666Y12225181D01*
X9166666Y12225181D02*
X9261904Y12177562D01*
X9261904Y12177562D02*
X9309523Y12129943D01*
X9309523Y12129943D02*
X9357142Y12034705D01*
X9357142Y12034705D02*
X9357142Y11891848D01*
X9357142Y11891848D02*
X9309523Y11796610D01*
X9309523Y11796610D02*
X9261904Y11748991D01*
X9261904Y11748991D02*
X9166666Y11701372D01*
X9166666Y11701372D02*
X8785714Y11701372D01*
X9738095Y12129943D02*
X9785714Y12177562D01*
X9785714Y12177562D02*
X9880952Y12225181D01*
X9880952Y12225181D02*
X10119047Y12225181D01*
X10119047Y12225181D02*
X10214285Y12177562D01*
X10214285Y12177562D02*
X10261904Y12129943D01*
X10261904Y12129943D02*
X10309523Y12034705D01*
X10309523Y12034705D02*
X10309523Y11939467D01*
X10309523Y11939467D02*
X10261904Y11796610D01*
X10261904Y11796610D02*
X9690476Y11225181D01*
X9690476Y11225181D02*
X10309523Y11225181D01*
X10690476Y12129943D02*
X10738095Y12177562D01*
X10738095Y12177562D02*
X10833333Y12225181D01*
X10833333Y12225181D02*
X11071428Y12225181D01*
X11071428Y12225181D02*
X11166666Y12177562D01*
X11166666Y12177562D02*
X11214285Y12129943D01*
X11214285Y12129943D02*
X11261904Y12034705D01*
X11261904Y12034705D02*
X11261904Y11939467D01*
X11261904Y11939467D02*
X11214285Y11796610D01*
X11214285Y11796610D02*
X10642857Y11225181D01*
X10642857Y11225181D02*
X11261904Y11225181D01*
X67690476Y41957681D02*
X67690476Y42957681D01*
X67690476Y42957681D02*
X68023809Y42243396D01*
X68023809Y42243396D02*
X68357142Y42957681D01*
X68357142Y42957681D02*
X68357142Y41957681D01*
X68738095Y42957681D02*
X69357142Y42957681D01*
X69357142Y42957681D02*
X69023809Y42576729D01*
X69023809Y42576729D02*
X69166666Y42576729D01*
X69166666Y42576729D02*
X69261904Y42529110D01*
X69261904Y42529110D02*
X69309523Y42481491D01*
X69309523Y42481491D02*
X69357142Y42386253D01*
X69357142Y42386253D02*
X69357142Y42148158D01*
X69357142Y42148158D02*
X69309523Y42052920D01*
X69309523Y42052920D02*
X69261904Y42005300D01*
X69261904Y42005300D02*
X69166666Y41957681D01*
X69166666Y41957681D02*
X68880952Y41957681D01*
X68880952Y41957681D02*
X68785714Y42005300D01*
X68785714Y42005300D02*
X68738095Y42052920D01*
X49357142Y20240420D02*
X49309523Y20192800D01*
X49309523Y20192800D02*
X49166666Y20145181D01*
X49166666Y20145181D02*
X49071428Y20145181D01*
X49071428Y20145181D02*
X48928571Y20192800D01*
X48928571Y20192800D02*
X48833333Y20288039D01*
X48833333Y20288039D02*
X48785714Y20383277D01*
X48785714Y20383277D02*
X48738095Y20573753D01*
X48738095Y20573753D02*
X48738095Y20716610D01*
X48738095Y20716610D02*
X48785714Y20907086D01*
X48785714Y20907086D02*
X48833333Y21002324D01*
X48833333Y21002324D02*
X48928571Y21097562D01*
X48928571Y21097562D02*
X49071428Y21145181D01*
X49071428Y21145181D02*
X49166666Y21145181D01*
X49166666Y21145181D02*
X49309523Y21097562D01*
X49309523Y21097562D02*
X49357142Y21049943D01*
X49738095Y21049943D02*
X49785714Y21097562D01*
X49785714Y21097562D02*
X49880952Y21145181D01*
X49880952Y21145181D02*
X50119047Y21145181D01*
X50119047Y21145181D02*
X50214285Y21097562D01*
X50214285Y21097562D02*
X50261904Y21049943D01*
X50261904Y21049943D02*
X50309523Y20954705D01*
X50309523Y20954705D02*
X50309523Y20859467D01*
X50309523Y20859467D02*
X50261904Y20716610D01*
X50261904Y20716610D02*
X49690476Y20145181D01*
X49690476Y20145181D02*
X50309523Y20145181D01*
X51214285Y21145181D02*
X50738095Y21145181D01*
X50738095Y21145181D02*
X50690476Y20668991D01*
X50690476Y20668991D02*
X50738095Y20716610D01*
X50738095Y20716610D02*
X50833333Y20764229D01*
X50833333Y20764229D02*
X51071428Y20764229D01*
X51071428Y20764229D02*
X51166666Y20716610D01*
X51166666Y20716610D02*
X51214285Y20668991D01*
X51214285Y20668991D02*
X51261904Y20573753D01*
X51261904Y20573753D02*
X51261904Y20335658D01*
X51261904Y20335658D02*
X51214285Y20240420D01*
X51214285Y20240420D02*
X51166666Y20192800D01*
X51166666Y20192800D02*
X51071428Y20145181D01*
X51071428Y20145181D02*
X50833333Y20145181D01*
X50833333Y20145181D02*
X50738095Y20192800D01*
X50738095Y20192800D02*
X50690476Y20240420D01*
X54109580Y32107143D02*
X54157200Y32059524D01*
X54157200Y32059524D02*
X54204819Y31916667D01*
X54204819Y31916667D02*
X54204819Y31821429D01*
X54204819Y31821429D02*
X54157200Y31678572D01*
X54157200Y31678572D02*
X54061961Y31583334D01*
X54061961Y31583334D02*
X53966723Y31535715D01*
X53966723Y31535715D02*
X53776247Y31488096D01*
X53776247Y31488096D02*
X53633390Y31488096D01*
X53633390Y31488096D02*
X53442914Y31535715D01*
X53442914Y31535715D02*
X53347676Y31583334D01*
X53347676Y31583334D02*
X53252438Y31678572D01*
X53252438Y31678572D02*
X53204819Y31821429D01*
X53204819Y31821429D02*
X53204819Y31916667D01*
X53204819Y31916667D02*
X53252438Y32059524D01*
X53252438Y32059524D02*
X53300057Y32107143D01*
X53300057Y32488096D02*
X53252438Y32535715D01*
X53252438Y32535715D02*
X53204819Y32630953D01*
X53204819Y32630953D02*
X53204819Y32869048D01*
X53204819Y32869048D02*
X53252438Y32964286D01*
X53252438Y32964286D02*
X53300057Y33011905D01*
X53300057Y33011905D02*
X53395295Y33059524D01*
X53395295Y33059524D02*
X53490533Y33059524D01*
X53490533Y33059524D02*
X53633390Y33011905D01*
X53633390Y33011905D02*
X54204819Y32440477D01*
X54204819Y32440477D02*
X54204819Y33059524D01*
X53538152Y33916667D02*
X54204819Y33916667D01*
X53157200Y33678572D02*
X53871485Y33440477D01*
X53871485Y33440477D02*
X53871485Y34059524D01*
X61228628Y36936310D02*
X61704819Y36936310D01*
X60704819Y36602977D02*
X61228628Y36936310D01*
X61228628Y36936310D02*
X60704819Y37269643D01*
X60800057Y37555358D02*
X60752438Y37602977D01*
X60752438Y37602977D02*
X60704819Y37698215D01*
X60704819Y37698215D02*
X60704819Y37936310D01*
X60704819Y37936310D02*
X60752438Y38031548D01*
X60752438Y38031548D02*
X60800057Y38079167D01*
X60800057Y38079167D02*
X60895295Y38126786D01*
X60895295Y38126786D02*
X60990533Y38126786D01*
X60990533Y38126786D02*
X61133390Y38079167D01*
X61133390Y38079167D02*
X61704819Y37507739D01*
X61704819Y37507739D02*
X61704819Y38126786D01*
X49013095Y13045181D02*
X49013095Y12235658D01*
X49013095Y12235658D02*
X49060714Y12140420D01*
X49060714Y12140420D02*
X49108333Y12092800D01*
X49108333Y12092800D02*
X49203571Y12045181D01*
X49203571Y12045181D02*
X49394047Y12045181D01*
X49394047Y12045181D02*
X49489285Y12092800D01*
X49489285Y12092800D02*
X49536904Y12140420D01*
X49536904Y12140420D02*
X49584523Y12235658D01*
X49584523Y12235658D02*
X49584523Y13045181D01*
X50536904Y13045181D02*
X50060714Y13045181D01*
X50060714Y13045181D02*
X50013095Y12568991D01*
X50013095Y12568991D02*
X50060714Y12616610D01*
X50060714Y12616610D02*
X50155952Y12664229D01*
X50155952Y12664229D02*
X50394047Y12664229D01*
X50394047Y12664229D02*
X50489285Y12616610D01*
X50489285Y12616610D02*
X50536904Y12568991D01*
X50536904Y12568991D02*
X50584523Y12473753D01*
X50584523Y12473753D02*
X50584523Y12235658D01*
X50584523Y12235658D02*
X50536904Y12140420D01*
X50536904Y12140420D02*
X50489285Y12092800D01*
X50489285Y12092800D02*
X50394047Y12045181D01*
X50394047Y12045181D02*
X50155952Y12045181D01*
X50155952Y12045181D02*
X50060714Y12092800D01*
X50060714Y12092800D02*
X50013095Y12140420D01*
X65054819Y13079167D02*
X65769104Y13079167D01*
X65769104Y13079167D02*
X65911961Y13031548D01*
X65911961Y13031548D02*
X66007200Y12936310D01*
X66007200Y12936310D02*
X66054819Y12793453D01*
X66054819Y12793453D02*
X66054819Y12698215D01*
X65483390Y13698215D02*
X65435771Y13602977D01*
X65435771Y13602977D02*
X65388152Y13555358D01*
X65388152Y13555358D02*
X65292914Y13507739D01*
X65292914Y13507739D02*
X65245295Y13507739D01*
X65245295Y13507739D02*
X65150057Y13555358D01*
X65150057Y13555358D02*
X65102438Y13602977D01*
X65102438Y13602977D02*
X65054819Y13698215D01*
X65054819Y13698215D02*
X65054819Y13888691D01*
X65054819Y13888691D02*
X65102438Y13983929D01*
X65102438Y13983929D02*
X65150057Y14031548D01*
X65150057Y14031548D02*
X65245295Y14079167D01*
X65245295Y14079167D02*
X65292914Y14079167D01*
X65292914Y14079167D02*
X65388152Y14031548D01*
X65388152Y14031548D02*
X65435771Y13983929D01*
X65435771Y13983929D02*
X65483390Y13888691D01*
X65483390Y13888691D02*
X65483390Y13698215D01*
X65483390Y13698215D02*
X65531009Y13602977D01*
X65531009Y13602977D02*
X65578628Y13555358D01*
X65578628Y13555358D02*
X65673866Y13507739D01*
X65673866Y13507739D02*
X65864342Y13507739D01*
X65864342Y13507739D02*
X65959580Y13555358D01*
X65959580Y13555358D02*
X66007200Y13602977D01*
X66007200Y13602977D02*
X66054819Y13698215D01*
X66054819Y13698215D02*
X66054819Y13888691D01*
X66054819Y13888691D02*
X66007200Y13983929D01*
X66007200Y13983929D02*
X65959580Y14031548D01*
X65959580Y14031548D02*
X65864342Y14079167D01*
X65864342Y14079167D02*
X65673866Y14079167D01*
X65673866Y14079167D02*
X65578628Y14031548D01*
X65578628Y14031548D02*
X65531009Y13983929D01*
X65531009Y13983929D02*
X65483390Y13888691D01*
X23083333Y29115181D02*
X22750000Y29591372D01*
X22511905Y29115181D02*
X22511905Y30115181D01*
X22511905Y30115181D02*
X22892857Y30115181D01*
X22892857Y30115181D02*
X22988095Y30067562D01*
X22988095Y30067562D02*
X23035714Y30019943D01*
X23035714Y30019943D02*
X23083333Y29924705D01*
X23083333Y29924705D02*
X23083333Y29781848D01*
X23083333Y29781848D02*
X23035714Y29686610D01*
X23035714Y29686610D02*
X22988095Y29638991D01*
X22988095Y29638991D02*
X22892857Y29591372D01*
X22892857Y29591372D02*
X22511905Y29591372D01*
X24035714Y29115181D02*
X23464286Y29115181D01*
X23750000Y29115181D02*
X23750000Y30115181D01*
X23750000Y30115181D02*
X23654762Y29972324D01*
X23654762Y29972324D02*
X23559524Y29877086D01*
X23559524Y29877086D02*
X23464286Y29829467D01*
X27833333Y34390420D02*
X27785714Y34342800D01*
X27785714Y34342800D02*
X27642857Y34295181D01*
X27642857Y34295181D02*
X27547619Y34295181D01*
X27547619Y34295181D02*
X27404762Y34342800D01*
X27404762Y34342800D02*
X27309524Y34438039D01*
X27309524Y34438039D02*
X27261905Y34533277D01*
X27261905Y34533277D02*
X27214286Y34723753D01*
X27214286Y34723753D02*
X27214286Y34866610D01*
X27214286Y34866610D02*
X27261905Y35057086D01*
X27261905Y35057086D02*
X27309524Y35152324D01*
X27309524Y35152324D02*
X27404762Y35247562D01*
X27404762Y35247562D02*
X27547619Y35295181D01*
X27547619Y35295181D02*
X27642857Y35295181D01*
X27642857Y35295181D02*
X27785714Y35247562D01*
X27785714Y35247562D02*
X27833333Y35199943D01*
X28214286Y35199943D02*
X28261905Y35247562D01*
X28261905Y35247562D02*
X28357143Y35295181D01*
X28357143Y35295181D02*
X28595238Y35295181D01*
X28595238Y35295181D02*
X28690476Y35247562D01*
X28690476Y35247562D02*
X28738095Y35199943D01*
X28738095Y35199943D02*
X28785714Y35104705D01*
X28785714Y35104705D02*
X28785714Y35009467D01*
X28785714Y35009467D02*
X28738095Y34866610D01*
X28738095Y34866610D02*
X28166667Y34295181D01*
X28166667Y34295181D02*
X28785714Y34295181D01*
X2174405Y28945181D02*
X2174405Y29945181D01*
X2174405Y29945181D02*
X2412500Y29945181D01*
X2412500Y29945181D02*
X2555357Y29897562D01*
X2555357Y29897562D02*
X2650595Y29802324D01*
X2650595Y29802324D02*
X2698214Y29707086D01*
X2698214Y29707086D02*
X2745833Y29516610D01*
X2745833Y29516610D02*
X2745833Y29373753D01*
X2745833Y29373753D02*
X2698214Y29183277D01*
X2698214Y29183277D02*
X2650595Y29088039D01*
X2650595Y29088039D02*
X2555357Y28992800D01*
X2555357Y28992800D02*
X2412500Y28945181D01*
X2412500Y28945181D02*
X2174405Y28945181D01*
X3126786Y29849943D02*
X3174405Y29897562D01*
X3174405Y29897562D02*
X3269643Y29945181D01*
X3269643Y29945181D02*
X3507738Y29945181D01*
X3507738Y29945181D02*
X3602976Y29897562D01*
X3602976Y29897562D02*
X3650595Y29849943D01*
X3650595Y29849943D02*
X3698214Y29754705D01*
X3698214Y29754705D02*
X3698214Y29659467D01*
X3698214Y29659467D02*
X3650595Y29516610D01*
X3650595Y29516610D02*
X3079167Y28945181D01*
X3079167Y28945181D02*
X3698214Y28945181D01*
X57289580Y29107143D02*
X57337200Y29059524D01*
X57337200Y29059524D02*
X57384819Y28916667D01*
X57384819Y28916667D02*
X57384819Y28821429D01*
X57384819Y28821429D02*
X57337200Y28678572D01*
X57337200Y28678572D02*
X57241961Y28583334D01*
X57241961Y28583334D02*
X57146723Y28535715D01*
X57146723Y28535715D02*
X56956247Y28488096D01*
X56956247Y28488096D02*
X56813390Y28488096D01*
X56813390Y28488096D02*
X56622914Y28535715D01*
X56622914Y28535715D02*
X56527676Y28583334D01*
X56527676Y28583334D02*
X56432438Y28678572D01*
X56432438Y28678572D02*
X56384819Y28821429D01*
X56384819Y28821429D02*
X56384819Y28916667D01*
X56384819Y28916667D02*
X56432438Y29059524D01*
X56432438Y29059524D02*
X56480057Y29107143D01*
X56480057Y29488096D02*
X56432438Y29535715D01*
X56432438Y29535715D02*
X56384819Y29630953D01*
X56384819Y29630953D02*
X56384819Y29869048D01*
X56384819Y29869048D02*
X56432438Y29964286D01*
X56432438Y29964286D02*
X56480057Y30011905D01*
X56480057Y30011905D02*
X56575295Y30059524D01*
X56575295Y30059524D02*
X56670533Y30059524D01*
X56670533Y30059524D02*
X56813390Y30011905D01*
X56813390Y30011905D02*
X57384819Y29440477D01*
X57384819Y29440477D02*
X57384819Y30059524D01*
X56480057Y30440477D02*
X56432438Y30488096D01*
X56432438Y30488096D02*
X56384819Y30583334D01*
X56384819Y30583334D02*
X56384819Y30821429D01*
X56384819Y30821429D02*
X56432438Y30916667D01*
X56432438Y30916667D02*
X56480057Y30964286D01*
X56480057Y30964286D02*
X56575295Y31011905D01*
X56575295Y31011905D02*
X56670533Y31011905D01*
X56670533Y31011905D02*
X56813390Y30964286D01*
X56813390Y30964286D02*
X57384819Y30392858D01*
X57384819Y30392858D02*
X57384819Y31011905D01*
X37857142Y21975181D02*
X37523809Y22451372D01*
X37285714Y21975181D02*
X37285714Y22975181D01*
X37285714Y22975181D02*
X37666666Y22975181D01*
X37666666Y22975181D02*
X37761904Y22927562D01*
X37761904Y22927562D02*
X37809523Y22879943D01*
X37809523Y22879943D02*
X37857142Y22784705D01*
X37857142Y22784705D02*
X37857142Y22641848D01*
X37857142Y22641848D02*
X37809523Y22546610D01*
X37809523Y22546610D02*
X37761904Y22498991D01*
X37761904Y22498991D02*
X37666666Y22451372D01*
X37666666Y22451372D02*
X37285714Y22451372D01*
X38809523Y21975181D02*
X38238095Y21975181D01*
X38523809Y21975181D02*
X38523809Y22975181D01*
X38523809Y22975181D02*
X38428571Y22832324D01*
X38428571Y22832324D02*
X38333333Y22737086D01*
X38333333Y22737086D02*
X38238095Y22689467D01*
X39285714Y21975181D02*
X39476190Y21975181D01*
X39476190Y21975181D02*
X39571428Y22022800D01*
X39571428Y22022800D02*
X39619047Y22070420D01*
X39619047Y22070420D02*
X39714285Y22213277D01*
X39714285Y22213277D02*
X39761904Y22403753D01*
X39761904Y22403753D02*
X39761904Y22784705D01*
X39761904Y22784705D02*
X39714285Y22879943D01*
X39714285Y22879943D02*
X39666666Y22927562D01*
X39666666Y22927562D02*
X39571428Y22975181D01*
X39571428Y22975181D02*
X39380952Y22975181D01*
X39380952Y22975181D02*
X39285714Y22927562D01*
X39285714Y22927562D02*
X39238095Y22879943D01*
X39238095Y22879943D02*
X39190476Y22784705D01*
X39190476Y22784705D02*
X39190476Y22546610D01*
X39190476Y22546610D02*
X39238095Y22451372D01*
X39238095Y22451372D02*
X39285714Y22403753D01*
X39285714Y22403753D02*
X39380952Y22356134D01*
X39380952Y22356134D02*
X39571428Y22356134D01*
X39571428Y22356134D02*
X39666666Y22403753D01*
X39666666Y22403753D02*
X39714285Y22451372D01*
X39714285Y22451372D02*
X39761904Y22546610D01*
X23449580Y44583334D02*
X23497200Y44535715D01*
X23497200Y44535715D02*
X23544819Y44392858D01*
X23544819Y44392858D02*
X23544819Y44297620D01*
X23544819Y44297620D02*
X23497200Y44154763D01*
X23497200Y44154763D02*
X23401961Y44059525D01*
X23401961Y44059525D02*
X23306723Y44011906D01*
X23306723Y44011906D02*
X23116247Y43964287D01*
X23116247Y43964287D02*
X22973390Y43964287D01*
X22973390Y43964287D02*
X22782914Y44011906D01*
X22782914Y44011906D02*
X22687676Y44059525D01*
X22687676Y44059525D02*
X22592438Y44154763D01*
X22592438Y44154763D02*
X22544819Y44297620D01*
X22544819Y44297620D02*
X22544819Y44392858D01*
X22544819Y44392858D02*
X22592438Y44535715D01*
X22592438Y44535715D02*
X22640057Y44583334D01*
X22973390Y45154763D02*
X22925771Y45059525D01*
X22925771Y45059525D02*
X22878152Y45011906D01*
X22878152Y45011906D02*
X22782914Y44964287D01*
X22782914Y44964287D02*
X22735295Y44964287D01*
X22735295Y44964287D02*
X22640057Y45011906D01*
X22640057Y45011906D02*
X22592438Y45059525D01*
X22592438Y45059525D02*
X22544819Y45154763D01*
X22544819Y45154763D02*
X22544819Y45345239D01*
X22544819Y45345239D02*
X22592438Y45440477D01*
X22592438Y45440477D02*
X22640057Y45488096D01*
X22640057Y45488096D02*
X22735295Y45535715D01*
X22735295Y45535715D02*
X22782914Y45535715D01*
X22782914Y45535715D02*
X22878152Y45488096D01*
X22878152Y45488096D02*
X22925771Y45440477D01*
X22925771Y45440477D02*
X22973390Y45345239D01*
X22973390Y45345239D02*
X22973390Y45154763D01*
X22973390Y45154763D02*
X23021009Y45059525D01*
X23021009Y45059525D02*
X23068628Y45011906D01*
X23068628Y45011906D02*
X23163866Y44964287D01*
X23163866Y44964287D02*
X23354342Y44964287D01*
X23354342Y44964287D02*
X23449580Y45011906D01*
X23449580Y45011906D02*
X23497200Y45059525D01*
X23497200Y45059525D02*
X23544819Y45154763D01*
X23544819Y45154763D02*
X23544819Y45345239D01*
X23544819Y45345239D02*
X23497200Y45440477D01*
X23497200Y45440477D02*
X23449580Y45488096D01*
X23449580Y45488096D02*
X23354342Y45535715D01*
X23354342Y45535715D02*
X23163866Y45535715D01*
X23163866Y45535715D02*
X23068628Y45488096D01*
X23068628Y45488096D02*
X23021009Y45440477D01*
X23021009Y45440477D02*
X22973390Y45345239D01*
X25204819Y17944643D02*
X24728628Y17611310D01*
X25204819Y17373215D02*
X24204819Y17373215D01*
X24204819Y17373215D02*
X24204819Y17754167D01*
X24204819Y17754167D02*
X24252438Y17849405D01*
X24252438Y17849405D02*
X24300057Y17897024D01*
X24300057Y17897024D02*
X24395295Y17944643D01*
X24395295Y17944643D02*
X24538152Y17944643D01*
X24538152Y17944643D02*
X24633390Y17897024D01*
X24633390Y17897024D02*
X24681009Y17849405D01*
X24681009Y17849405D02*
X24728628Y17754167D01*
X24728628Y17754167D02*
X24728628Y17373215D01*
X25204819Y18897024D02*
X25204819Y18325596D01*
X25204819Y18611310D02*
X24204819Y18611310D01*
X24204819Y18611310D02*
X24347676Y18516072D01*
X24347676Y18516072D02*
X24442914Y18420834D01*
X24442914Y18420834D02*
X24490533Y18325596D01*
X24300057Y19277977D02*
X24252438Y19325596D01*
X24252438Y19325596D02*
X24204819Y19420834D01*
X24204819Y19420834D02*
X24204819Y19658929D01*
X24204819Y19658929D02*
X24252438Y19754167D01*
X24252438Y19754167D02*
X24300057Y19801786D01*
X24300057Y19801786D02*
X24395295Y19849405D01*
X24395295Y19849405D02*
X24490533Y19849405D01*
X24490533Y19849405D02*
X24633390Y19801786D01*
X24633390Y19801786D02*
X25204819Y19230358D01*
X25204819Y19230358D02*
X25204819Y19849405D01*
X28704819Y17857143D02*
X28228628Y17523810D01*
X28704819Y17285715D02*
X27704819Y17285715D01*
X27704819Y17285715D02*
X27704819Y17666667D01*
X27704819Y17666667D02*
X27752438Y17761905D01*
X27752438Y17761905D02*
X27800057Y17809524D01*
X27800057Y17809524D02*
X27895295Y17857143D01*
X27895295Y17857143D02*
X28038152Y17857143D01*
X28038152Y17857143D02*
X28133390Y17809524D01*
X28133390Y17809524D02*
X28181009Y17761905D01*
X28181009Y17761905D02*
X28228628Y17666667D01*
X28228628Y17666667D02*
X28228628Y17285715D01*
X28704819Y18809524D02*
X28704819Y18238096D01*
X28704819Y18523810D02*
X27704819Y18523810D01*
X27704819Y18523810D02*
X27847676Y18428572D01*
X27847676Y18428572D02*
X27942914Y18333334D01*
X27942914Y18333334D02*
X27990533Y18238096D01*
X27704819Y19142858D02*
X27704819Y19761905D01*
X27704819Y19761905D02*
X28085771Y19428572D01*
X28085771Y19428572D02*
X28085771Y19571429D01*
X28085771Y19571429D02*
X28133390Y19666667D01*
X28133390Y19666667D02*
X28181009Y19714286D01*
X28181009Y19714286D02*
X28276247Y19761905D01*
X28276247Y19761905D02*
X28514342Y19761905D01*
X28514342Y19761905D02*
X28609580Y19714286D01*
X28609580Y19714286D02*
X28657200Y19666667D01*
X28657200Y19666667D02*
X28704819Y19571429D01*
X28704819Y19571429D02*
X28704819Y19285715D01*
X28704819Y19285715D02*
X28657200Y19190477D01*
X28657200Y19190477D02*
X28609580Y19142858D01*
X45338095Y11793181D02*
X45909523Y11793181D01*
X45623809Y10793181D02*
X45623809Y11793181D01*
X46242857Y10793181D02*
X46242857Y11793181D01*
X46242857Y11793181D02*
X46623809Y11793181D01*
X46623809Y11793181D02*
X46719047Y11745562D01*
X46719047Y11745562D02*
X46766666Y11697943D01*
X46766666Y11697943D02*
X46814285Y11602705D01*
X46814285Y11602705D02*
X46814285Y11459848D01*
X46814285Y11459848D02*
X46766666Y11364610D01*
X46766666Y11364610D02*
X46719047Y11316991D01*
X46719047Y11316991D02*
X46623809Y11269372D01*
X46623809Y11269372D02*
X46242857Y11269372D01*
X47766666Y10793181D02*
X47195238Y10793181D01*
X47480952Y10793181D02*
X47480952Y11793181D01*
X47480952Y11793181D02*
X47385714Y11650324D01*
X47385714Y11650324D02*
X47290476Y11555086D01*
X47290476Y11555086D02*
X47195238Y11507467D01*
X2833333Y33475181D02*
X2500000Y33951372D01*
X2261905Y33475181D02*
X2261905Y34475181D01*
X2261905Y34475181D02*
X2642857Y34475181D01*
X2642857Y34475181D02*
X2738095Y34427562D01*
X2738095Y34427562D02*
X2785714Y34379943D01*
X2785714Y34379943D02*
X2833333Y34284705D01*
X2833333Y34284705D02*
X2833333Y34141848D01*
X2833333Y34141848D02*
X2785714Y34046610D01*
X2785714Y34046610D02*
X2738095Y33998991D01*
X2738095Y33998991D02*
X2642857Y33951372D01*
X2642857Y33951372D02*
X2261905Y33951372D01*
X3166667Y34475181D02*
X3785714Y34475181D01*
X3785714Y34475181D02*
X3452381Y34094229D01*
X3452381Y34094229D02*
X3595238Y34094229D01*
X3595238Y34094229D02*
X3690476Y34046610D01*
X3690476Y34046610D02*
X3738095Y33998991D01*
X3738095Y33998991D02*
X3785714Y33903753D01*
X3785714Y33903753D02*
X3785714Y33665658D01*
X3785714Y33665658D02*
X3738095Y33570420D01*
X3738095Y33570420D02*
X3690476Y33522800D01*
X3690476Y33522800D02*
X3595238Y33475181D01*
X3595238Y33475181D02*
X3309524Y33475181D01*
X3309524Y33475181D02*
X3214286Y33522800D01*
X3214286Y33522800D02*
X3166667Y33570420D01*
X51557142Y22040420D02*
X51509523Y21992800D01*
X51509523Y21992800D02*
X51366666Y21945181D01*
X51366666Y21945181D02*
X51271428Y21945181D01*
X51271428Y21945181D02*
X51128571Y21992800D01*
X51128571Y21992800D02*
X51033333Y22088039D01*
X51033333Y22088039D02*
X50985714Y22183277D01*
X50985714Y22183277D02*
X50938095Y22373753D01*
X50938095Y22373753D02*
X50938095Y22516610D01*
X50938095Y22516610D02*
X50985714Y22707086D01*
X50985714Y22707086D02*
X51033333Y22802324D01*
X51033333Y22802324D02*
X51128571Y22897562D01*
X51128571Y22897562D02*
X51271428Y22945181D01*
X51271428Y22945181D02*
X51366666Y22945181D01*
X51366666Y22945181D02*
X51509523Y22897562D01*
X51509523Y22897562D02*
X51557142Y22849943D01*
X52509523Y21945181D02*
X51938095Y21945181D01*
X52223809Y21945181D02*
X52223809Y22945181D01*
X52223809Y22945181D02*
X52128571Y22802324D01*
X52128571Y22802324D02*
X52033333Y22707086D01*
X52033333Y22707086D02*
X51938095Y22659467D01*
X53366666Y22611848D02*
X53366666Y21945181D01*
X53128571Y22992800D02*
X52890476Y22278515D01*
X52890476Y22278515D02*
X53509523Y22278515D01*
X1074200Y36166668D02*
X1112295Y36309525D01*
X1112295Y36309525D02*
X1112295Y36547620D01*
X1112295Y36547620D02*
X1074200Y36642858D01*
X1074200Y36642858D02*
X1036104Y36690477D01*
X1036104Y36690477D02*
X959914Y36738096D01*
X959914Y36738096D02*
X883723Y36738096D01*
X883723Y36738096D02*
X807533Y36690477D01*
X807533Y36690477D02*
X769438Y36642858D01*
X769438Y36642858D02*
X731342Y36547620D01*
X731342Y36547620D02*
X693247Y36357144D01*
X693247Y36357144D02*
X655152Y36261906D01*
X655152Y36261906D02*
X617057Y36214287D01*
X617057Y36214287D02*
X540866Y36166668D01*
X540866Y36166668D02*
X464676Y36166668D01*
X464676Y36166668D02*
X388485Y36214287D01*
X388485Y36214287D02*
X350390Y36261906D01*
X350390Y36261906D02*
X312295Y36357144D01*
X312295Y36357144D02*
X312295Y36595239D01*
X312295Y36595239D02*
X350390Y36738096D01*
X312295Y37071430D02*
X1112295Y37309525D01*
X1112295Y37309525D02*
X540866Y37500001D01*
X540866Y37500001D02*
X1112295Y37690477D01*
X1112295Y37690477D02*
X312295Y37928572D01*
X312295Y38214287D02*
X312295Y38833334D01*
X312295Y38833334D02*
X617057Y38500001D01*
X617057Y38500001D02*
X617057Y38642858D01*
X617057Y38642858D02*
X655152Y38738096D01*
X655152Y38738096D02*
X693247Y38785715D01*
X693247Y38785715D02*
X769438Y38833334D01*
X769438Y38833334D02*
X959914Y38833334D01*
X959914Y38833334D02*
X1036104Y38785715D01*
X1036104Y38785715D02*
X1074200Y38738096D01*
X1074200Y38738096D02*
X1112295Y38642858D01*
X1112295Y38642858D02*
X1112295Y38357144D01*
X1112295Y38357144D02*
X1074200Y38261906D01*
X1074200Y38261906D02*
X1036104Y38214287D01*
X8678571Y6268991D02*
X8345238Y6268991D01*
X8345238Y5745181D02*
X8345238Y6745181D01*
X8345238Y6745181D02*
X8821428Y6745181D01*
X9202381Y5745181D02*
X9202381Y6745181D01*
X9678571Y5745181D02*
X9678571Y6745181D01*
X9678571Y6745181D02*
X9916666Y6745181D01*
X9916666Y6745181D02*
X10059523Y6697562D01*
X10059523Y6697562D02*
X10154761Y6602324D01*
X10154761Y6602324D02*
X10202380Y6507086D01*
X10202380Y6507086D02*
X10249999Y6316610D01*
X10249999Y6316610D02*
X10249999Y6173753D01*
X10249999Y6173753D02*
X10202380Y5983277D01*
X10202380Y5983277D02*
X10154761Y5888039D01*
X10154761Y5888039D02*
X10059523Y5792800D01*
X10059523Y5792800D02*
X9916666Y5745181D01*
X9916666Y5745181D02*
X9678571Y5745181D01*
X11202380Y5745181D02*
X10630952Y5745181D01*
X10916666Y5745181D02*
X10916666Y6745181D01*
X10916666Y6745181D02*
X10821428Y6602324D01*
X10821428Y6602324D02*
X10726190Y6507086D01*
X10726190Y6507086D02*
X10630952Y6459467D01*
X6083333Y13795181D02*
X5750000Y14271372D01*
X5511905Y13795181D02*
X5511905Y14795181D01*
X5511905Y14795181D02*
X5892857Y14795181D01*
X5892857Y14795181D02*
X5988095Y14747562D01*
X5988095Y14747562D02*
X6035714Y14699943D01*
X6035714Y14699943D02*
X6083333Y14604705D01*
X6083333Y14604705D02*
X6083333Y14461848D01*
X6083333Y14461848D02*
X6035714Y14366610D01*
X6035714Y14366610D02*
X5988095Y14318991D01*
X5988095Y14318991D02*
X5892857Y14271372D01*
X5892857Y14271372D02*
X5511905Y14271372D01*
X6940476Y14461848D02*
X6940476Y13795181D01*
X6702381Y14842800D02*
X6464286Y14128515D01*
X6464286Y14128515D02*
X7083333Y14128515D01*
X28554819Y21536906D02*
X27554819Y21536906D01*
X27554819Y21536906D02*
X27554819Y21775001D01*
X27554819Y21775001D02*
X27602438Y21917858D01*
X27602438Y21917858D02*
X27697676Y22013096D01*
X27697676Y22013096D02*
X27792914Y22060715D01*
X27792914Y22060715D02*
X27983390Y22108334D01*
X27983390Y22108334D02*
X28126247Y22108334D01*
X28126247Y22108334D02*
X28316723Y22060715D01*
X28316723Y22060715D02*
X28411961Y22013096D01*
X28411961Y22013096D02*
X28507200Y21917858D01*
X28507200Y21917858D02*
X28554819Y21775001D01*
X28554819Y21775001D02*
X28554819Y21536906D01*
X27983390Y22679763D02*
X27935771Y22584525D01*
X27935771Y22584525D02*
X27888152Y22536906D01*
X27888152Y22536906D02*
X27792914Y22489287D01*
X27792914Y22489287D02*
X27745295Y22489287D01*
X27745295Y22489287D02*
X27650057Y22536906D01*
X27650057Y22536906D02*
X27602438Y22584525D01*
X27602438Y22584525D02*
X27554819Y22679763D01*
X27554819Y22679763D02*
X27554819Y22870239D01*
X27554819Y22870239D02*
X27602438Y22965477D01*
X27602438Y22965477D02*
X27650057Y23013096D01*
X27650057Y23013096D02*
X27745295Y23060715D01*
X27745295Y23060715D02*
X27792914Y23060715D01*
X27792914Y23060715D02*
X27888152Y23013096D01*
X27888152Y23013096D02*
X27935771Y22965477D01*
X27935771Y22965477D02*
X27983390Y22870239D01*
X27983390Y22870239D02*
X27983390Y22679763D01*
X27983390Y22679763D02*
X28031009Y22584525D01*
X28031009Y22584525D02*
X28078628Y22536906D01*
X28078628Y22536906D02*
X28173866Y22489287D01*
X28173866Y22489287D02*
X28364342Y22489287D01*
X28364342Y22489287D02*
X28459580Y22536906D01*
X28459580Y22536906D02*
X28507200Y22584525D01*
X28507200Y22584525D02*
X28554819Y22679763D01*
X28554819Y22679763D02*
X28554819Y22870239D01*
X28554819Y22870239D02*
X28507200Y22965477D01*
X28507200Y22965477D02*
X28459580Y23013096D01*
X28459580Y23013096D02*
X28364342Y23060715D01*
X28364342Y23060715D02*
X28173866Y23060715D01*
X28173866Y23060715D02*
X28078628Y23013096D01*
X28078628Y23013096D02*
X28031009Y22965477D01*
X28031009Y22965477D02*
X27983390Y22870239D01*
X3690476Y49195181D02*
X3690476Y50195181D01*
X3690476Y50195181D02*
X4023809Y49480896D01*
X4023809Y49480896D02*
X4357142Y50195181D01*
X4357142Y50195181D02*
X4357142Y49195181D01*
X4785714Y50099943D02*
X4833333Y50147562D01*
X4833333Y50147562D02*
X4928571Y50195181D01*
X4928571Y50195181D02*
X5166666Y50195181D01*
X5166666Y50195181D02*
X5261904Y50147562D01*
X5261904Y50147562D02*
X5309523Y50099943D01*
X5309523Y50099943D02*
X5357142Y50004705D01*
X5357142Y50004705D02*
X5357142Y49909467D01*
X5357142Y49909467D02*
X5309523Y49766610D01*
X5309523Y49766610D02*
X4738095Y49195181D01*
X4738095Y49195181D02*
X5357142Y49195181D01*
X47882142Y18050420D02*
X47834523Y18002800D01*
X47834523Y18002800D02*
X47691666Y17955181D01*
X47691666Y17955181D02*
X47596428Y17955181D01*
X47596428Y17955181D02*
X47453571Y18002800D01*
X47453571Y18002800D02*
X47358333Y18098039D01*
X47358333Y18098039D02*
X47310714Y18193277D01*
X47310714Y18193277D02*
X47263095Y18383753D01*
X47263095Y18383753D02*
X47263095Y18526610D01*
X47263095Y18526610D02*
X47310714Y18717086D01*
X47310714Y18717086D02*
X47358333Y18812324D01*
X47358333Y18812324D02*
X47453571Y18907562D01*
X47453571Y18907562D02*
X47596428Y18955181D01*
X47596428Y18955181D02*
X47691666Y18955181D01*
X47691666Y18955181D02*
X47834523Y18907562D01*
X47834523Y18907562D02*
X47882142Y18859943D01*
X48834523Y17955181D02*
X48263095Y17955181D01*
X48548809Y17955181D02*
X48548809Y18955181D01*
X48548809Y18955181D02*
X48453571Y18812324D01*
X48453571Y18812324D02*
X48358333Y18717086D01*
X48358333Y18717086D02*
X48263095Y18669467D01*
X49691666Y18955181D02*
X49501190Y18955181D01*
X49501190Y18955181D02*
X49405952Y18907562D01*
X49405952Y18907562D02*
X49358333Y18859943D01*
X49358333Y18859943D02*
X49263095Y18717086D01*
X49263095Y18717086D02*
X49215476Y18526610D01*
X49215476Y18526610D02*
X49215476Y18145658D01*
X49215476Y18145658D02*
X49263095Y18050420D01*
X49263095Y18050420D02*
X49310714Y18002800D01*
X49310714Y18002800D02*
X49405952Y17955181D01*
X49405952Y17955181D02*
X49596428Y17955181D01*
X49596428Y17955181D02*
X49691666Y18002800D01*
X49691666Y18002800D02*
X49739285Y18050420D01*
X49739285Y18050420D02*
X49786904Y18145658D01*
X49786904Y18145658D02*
X49786904Y18383753D01*
X49786904Y18383753D02*
X49739285Y18478991D01*
X49739285Y18478991D02*
X49691666Y18526610D01*
X49691666Y18526610D02*
X49596428Y18574229D01*
X49596428Y18574229D02*
X49405952Y18574229D01*
X49405952Y18574229D02*
X49310714Y18526610D01*
X49310714Y18526610D02*
X49263095Y18478991D01*
X49263095Y18478991D02*
X49215476Y18383753D01*
X68859580Y34245834D02*
X68907200Y34198215D01*
X68907200Y34198215D02*
X68954819Y34055358D01*
X68954819Y34055358D02*
X68954819Y33960120D01*
X68954819Y33960120D02*
X68907200Y33817263D01*
X68907200Y33817263D02*
X68811961Y33722025D01*
X68811961Y33722025D02*
X68716723Y33674406D01*
X68716723Y33674406D02*
X68526247Y33626787D01*
X68526247Y33626787D02*
X68383390Y33626787D01*
X68383390Y33626787D02*
X68192914Y33674406D01*
X68192914Y33674406D02*
X68097676Y33722025D01*
X68097676Y33722025D02*
X68002438Y33817263D01*
X68002438Y33817263D02*
X67954819Y33960120D01*
X67954819Y33960120D02*
X67954819Y34055358D01*
X67954819Y34055358D02*
X68002438Y34198215D01*
X68002438Y34198215D02*
X68050057Y34245834D01*
X68288152Y35102977D02*
X68954819Y35102977D01*
X67907200Y34864882D02*
X68621485Y34626787D01*
X68621485Y34626787D02*
X68621485Y35245834D01*
X40199580Y23957143D02*
X40247200Y23909524D01*
X40247200Y23909524D02*
X40294819Y23766667D01*
X40294819Y23766667D02*
X40294819Y23671429D01*
X40294819Y23671429D02*
X40247200Y23528572D01*
X40247200Y23528572D02*
X40151961Y23433334D01*
X40151961Y23433334D02*
X40056723Y23385715D01*
X40056723Y23385715D02*
X39866247Y23338096D01*
X39866247Y23338096D02*
X39723390Y23338096D01*
X39723390Y23338096D02*
X39532914Y23385715D01*
X39532914Y23385715D02*
X39437676Y23433334D01*
X39437676Y23433334D02*
X39342438Y23528572D01*
X39342438Y23528572D02*
X39294819Y23671429D01*
X39294819Y23671429D02*
X39294819Y23766667D01*
X39294819Y23766667D02*
X39342438Y23909524D01*
X39342438Y23909524D02*
X39390057Y23957143D01*
X39390057Y24338096D02*
X39342438Y24385715D01*
X39342438Y24385715D02*
X39294819Y24480953D01*
X39294819Y24480953D02*
X39294819Y24719048D01*
X39294819Y24719048D02*
X39342438Y24814286D01*
X39342438Y24814286D02*
X39390057Y24861905D01*
X39390057Y24861905D02*
X39485295Y24909524D01*
X39485295Y24909524D02*
X39580533Y24909524D01*
X39580533Y24909524D02*
X39723390Y24861905D01*
X39723390Y24861905D02*
X40294819Y24290477D01*
X40294819Y24290477D02*
X40294819Y24909524D01*
X39294819Y25528572D02*
X39294819Y25623810D01*
X39294819Y25623810D02*
X39342438Y25719048D01*
X39342438Y25719048D02*
X39390057Y25766667D01*
X39390057Y25766667D02*
X39485295Y25814286D01*
X39485295Y25814286D02*
X39675771Y25861905D01*
X39675771Y25861905D02*
X39913866Y25861905D01*
X39913866Y25861905D02*
X40104342Y25814286D01*
X40104342Y25814286D02*
X40199580Y25766667D01*
X40199580Y25766667D02*
X40247200Y25719048D01*
X40247200Y25719048D02*
X40294819Y25623810D01*
X40294819Y25623810D02*
X40294819Y25528572D01*
X40294819Y25528572D02*
X40247200Y25433334D01*
X40247200Y25433334D02*
X40199580Y25385715D01*
X40199580Y25385715D02*
X40104342Y25338096D01*
X40104342Y25338096D02*
X39913866Y25290477D01*
X39913866Y25290477D02*
X39675771Y25290477D01*
X39675771Y25290477D02*
X39485295Y25338096D01*
X39485295Y25338096D02*
X39390057Y25385715D01*
X39390057Y25385715D02*
X39342438Y25433334D01*
X39342438Y25433334D02*
X39294819Y25528572D01*
X61678571Y49518991D02*
X61345238Y49518991D01*
X61345238Y48995181D02*
X61345238Y49995181D01*
X61345238Y49995181D02*
X61821428Y49995181D01*
X62202381Y48995181D02*
X62202381Y49995181D01*
X62678571Y48995181D02*
X62678571Y49995181D01*
X62678571Y49995181D02*
X62916666Y49995181D01*
X62916666Y49995181D02*
X63059523Y49947562D01*
X63059523Y49947562D02*
X63154761Y49852324D01*
X63154761Y49852324D02*
X63202380Y49757086D01*
X63202380Y49757086D02*
X63249999Y49566610D01*
X63249999Y49566610D02*
X63249999Y49423753D01*
X63249999Y49423753D02*
X63202380Y49233277D01*
X63202380Y49233277D02*
X63154761Y49138039D01*
X63154761Y49138039D02*
X63059523Y49042800D01*
X63059523Y49042800D02*
X62916666Y48995181D01*
X62916666Y48995181D02*
X62678571Y48995181D01*
X63583333Y49995181D02*
X64202380Y49995181D01*
X64202380Y49995181D02*
X63869047Y49614229D01*
X63869047Y49614229D02*
X64011904Y49614229D01*
X64011904Y49614229D02*
X64107142Y49566610D01*
X64107142Y49566610D02*
X64154761Y49518991D01*
X64154761Y49518991D02*
X64202380Y49423753D01*
X64202380Y49423753D02*
X64202380Y49185658D01*
X64202380Y49185658D02*
X64154761Y49090420D01*
X64154761Y49090420D02*
X64107142Y49042800D01*
X64107142Y49042800D02*
X64011904Y48995181D01*
X64011904Y48995181D02*
X63726190Y48995181D01*
X63726190Y48995181D02*
X63630952Y49042800D01*
X63630952Y49042800D02*
X63583333Y49090420D01*
X56107142Y20140420D02*
X56059523Y20092800D01*
X56059523Y20092800D02*
X55916666Y20045181D01*
X55916666Y20045181D02*
X55821428Y20045181D01*
X55821428Y20045181D02*
X55678571Y20092800D01*
X55678571Y20092800D02*
X55583333Y20188039D01*
X55583333Y20188039D02*
X55535714Y20283277D01*
X55535714Y20283277D02*
X55488095Y20473753D01*
X55488095Y20473753D02*
X55488095Y20616610D01*
X55488095Y20616610D02*
X55535714Y20807086D01*
X55535714Y20807086D02*
X55583333Y20902324D01*
X55583333Y20902324D02*
X55678571Y20997562D01*
X55678571Y20997562D02*
X55821428Y21045181D01*
X55821428Y21045181D02*
X55916666Y21045181D01*
X55916666Y21045181D02*
X56059523Y20997562D01*
X56059523Y20997562D02*
X56107142Y20949943D01*
X57059523Y20045181D02*
X56488095Y20045181D01*
X56773809Y20045181D02*
X56773809Y21045181D01*
X56773809Y21045181D02*
X56678571Y20902324D01*
X56678571Y20902324D02*
X56583333Y20807086D01*
X56583333Y20807086D02*
X56488095Y20759467D01*
X57440476Y20949943D02*
X57488095Y20997562D01*
X57488095Y20997562D02*
X57583333Y21045181D01*
X57583333Y21045181D02*
X57821428Y21045181D01*
X57821428Y21045181D02*
X57916666Y20997562D01*
X57916666Y20997562D02*
X57964285Y20949943D01*
X57964285Y20949943D02*
X58011904Y20854705D01*
X58011904Y20854705D02*
X58011904Y20759467D01*
X58011904Y20759467D02*
X57964285Y20616610D01*
X57964285Y20616610D02*
X57392857Y20045181D01*
X57392857Y20045181D02*
X58011904Y20045181D01*
X20634819Y15107143D02*
X20158628Y14773810D01*
X20634819Y14535715D02*
X19634819Y14535715D01*
X19634819Y14535715D02*
X19634819Y14916667D01*
X19634819Y14916667D02*
X19682438Y15011905D01*
X19682438Y15011905D02*
X19730057Y15059524D01*
X19730057Y15059524D02*
X19825295Y15107143D01*
X19825295Y15107143D02*
X19968152Y15107143D01*
X19968152Y15107143D02*
X20063390Y15059524D01*
X20063390Y15059524D02*
X20111009Y15011905D01*
X20111009Y15011905D02*
X20158628Y14916667D01*
X20158628Y14916667D02*
X20158628Y14535715D01*
X20634819Y16059524D02*
X20634819Y15488096D01*
X20634819Y15773810D02*
X19634819Y15773810D01*
X19634819Y15773810D02*
X19777676Y15678572D01*
X19777676Y15678572D02*
X19872914Y15583334D01*
X19872914Y15583334D02*
X19920533Y15488096D01*
X19634819Y16678572D02*
X19634819Y16773810D01*
X19634819Y16773810D02*
X19682438Y16869048D01*
X19682438Y16869048D02*
X19730057Y16916667D01*
X19730057Y16916667D02*
X19825295Y16964286D01*
X19825295Y16964286D02*
X20015771Y17011905D01*
X20015771Y17011905D02*
X20253866Y17011905D01*
X20253866Y17011905D02*
X20444342Y16964286D01*
X20444342Y16964286D02*
X20539580Y16916667D01*
X20539580Y16916667D02*
X20587200Y16869048D01*
X20587200Y16869048D02*
X20634819Y16773810D01*
X20634819Y16773810D02*
X20634819Y16678572D01*
X20634819Y16678572D02*
X20587200Y16583334D01*
X20587200Y16583334D02*
X20539580Y16535715D01*
X20539580Y16535715D02*
X20444342Y16488096D01*
X20444342Y16488096D02*
X20253866Y16440477D01*
X20253866Y16440477D02*
X20015771Y16440477D01*
X20015771Y16440477D02*
X19825295Y16488096D01*
X19825295Y16488096D02*
X19730057Y16535715D01*
X19730057Y16535715D02*
X19682438Y16583334D01*
X19682438Y16583334D02*
X19634819Y16678572D01*
X69138095Y36145181D02*
X69709523Y36145181D01*
X69423809Y35145181D02*
X69423809Y36145181D01*
X70042857Y35145181D02*
X70042857Y36145181D01*
X70042857Y36145181D02*
X70423809Y36145181D01*
X70423809Y36145181D02*
X70519047Y36097562D01*
X70519047Y36097562D02*
X70566666Y36049943D01*
X70566666Y36049943D02*
X70614285Y35954705D01*
X70614285Y35954705D02*
X70614285Y35811848D01*
X70614285Y35811848D02*
X70566666Y35716610D01*
X70566666Y35716610D02*
X70519047Y35668991D01*
X70519047Y35668991D02*
X70423809Y35621372D01*
X70423809Y35621372D02*
X70042857Y35621372D01*
X71519047Y36145181D02*
X71042857Y36145181D01*
X71042857Y36145181D02*
X70995238Y35668991D01*
X70995238Y35668991D02*
X71042857Y35716610D01*
X71042857Y35716610D02*
X71138095Y35764229D01*
X71138095Y35764229D02*
X71376190Y35764229D01*
X71376190Y35764229D02*
X71471428Y35716610D01*
X71471428Y35716610D02*
X71519047Y35668991D01*
X71519047Y35668991D02*
X71566666Y35573753D01*
X71566666Y35573753D02*
X71566666Y35335658D01*
X71566666Y35335658D02*
X71519047Y35240420D01*
X71519047Y35240420D02*
X71471428Y35192800D01*
X71471428Y35192800D02*
X71376190Y35145181D01*
X71376190Y35145181D02*
X71138095Y35145181D01*
X71138095Y35145181D02*
X71042857Y35192800D01*
X71042857Y35192800D02*
X70995238Y35240420D01*
X31583333Y32475181D02*
X31250000Y32951372D01*
X31011905Y32475181D02*
X31011905Y33475181D01*
X31011905Y33475181D02*
X31392857Y33475181D01*
X31392857Y33475181D02*
X31488095Y33427562D01*
X31488095Y33427562D02*
X31535714Y33379943D01*
X31535714Y33379943D02*
X31583333Y33284705D01*
X31583333Y33284705D02*
X31583333Y33141848D01*
X31583333Y33141848D02*
X31535714Y33046610D01*
X31535714Y33046610D02*
X31488095Y32998991D01*
X31488095Y32998991D02*
X31392857Y32951372D01*
X31392857Y32951372D02*
X31011905Y32951372D01*
X31916667Y33475181D02*
X32583333Y33475181D01*
X32583333Y33475181D02*
X32154762Y32475181D01*
X40608095Y21207681D02*
X40608095Y20398158D01*
X40608095Y20398158D02*
X40655714Y20302920D01*
X40655714Y20302920D02*
X40703333Y20255300D01*
X40703333Y20255300D02*
X40798571Y20207681D01*
X40798571Y20207681D02*
X40989047Y20207681D01*
X40989047Y20207681D02*
X41084285Y20255300D01*
X41084285Y20255300D02*
X41131904Y20302920D01*
X41131904Y20302920D02*
X41179523Y20398158D01*
X41179523Y20398158D02*
X41179523Y21207681D01*
X42084285Y21207681D02*
X41893809Y21207681D01*
X41893809Y21207681D02*
X41798571Y21160062D01*
X41798571Y21160062D02*
X41750952Y21112443D01*
X41750952Y21112443D02*
X41655714Y20969586D01*
X41655714Y20969586D02*
X41608095Y20779110D01*
X41608095Y20779110D02*
X41608095Y20398158D01*
X41608095Y20398158D02*
X41655714Y20302920D01*
X41655714Y20302920D02*
X41703333Y20255300D01*
X41703333Y20255300D02*
X41798571Y20207681D01*
X41798571Y20207681D02*
X41989047Y20207681D01*
X41989047Y20207681D02*
X42084285Y20255300D01*
X42084285Y20255300D02*
X42131904Y20302920D01*
X42131904Y20302920D02*
X42179523Y20398158D01*
X42179523Y20398158D02*
X42179523Y20636253D01*
X42179523Y20636253D02*
X42131904Y20731491D01*
X42131904Y20731491D02*
X42084285Y20779110D01*
X42084285Y20779110D02*
X41989047Y20826729D01*
X41989047Y20826729D02*
X41798571Y20826729D01*
X41798571Y20826729D02*
X41703333Y20779110D01*
X41703333Y20779110D02*
X41655714Y20731491D01*
X41655714Y20731491D02*
X41608095Y20636253D01*
X3493420Y7892237D02*
X3493420Y8892237D01*
X3493420Y8892237D02*
X3826753Y8177952D01*
X3826753Y8177952D02*
X4160086Y8892237D01*
X4160086Y8892237D02*
X4160086Y7892237D01*
X5160086Y7892237D02*
X4588658Y7892237D01*
X4874372Y7892237D02*
X4874372Y8892237D01*
X4874372Y8892237D02*
X4779134Y8749380D01*
X4779134Y8749380D02*
X4683896Y8654142D01*
X4683896Y8654142D02*
X4588658Y8606523D01*
X5583333Y29295181D02*
X5250000Y29771372D01*
X5011905Y29295181D02*
X5011905Y30295181D01*
X5011905Y30295181D02*
X5392857Y30295181D01*
X5392857Y30295181D02*
X5488095Y30247562D01*
X5488095Y30247562D02*
X5535714Y30199943D01*
X5535714Y30199943D02*
X5583333Y30104705D01*
X5583333Y30104705D02*
X5583333Y29961848D01*
X5583333Y29961848D02*
X5535714Y29866610D01*
X5535714Y29866610D02*
X5488095Y29818991D01*
X5488095Y29818991D02*
X5392857Y29771372D01*
X5392857Y29771372D02*
X5011905Y29771372D01*
X6488095Y30295181D02*
X6011905Y30295181D01*
X6011905Y30295181D02*
X5964286Y29818991D01*
X5964286Y29818991D02*
X6011905Y29866610D01*
X6011905Y29866610D02*
X6107143Y29914229D01*
X6107143Y29914229D02*
X6345238Y29914229D01*
X6345238Y29914229D02*
X6440476Y29866610D01*
X6440476Y29866610D02*
X6488095Y29818991D01*
X6488095Y29818991D02*
X6535714Y29723753D01*
X6535714Y29723753D02*
X6535714Y29485658D01*
X6535714Y29485658D02*
X6488095Y29390420D01*
X6488095Y29390420D02*
X6440476Y29342800D01*
X6440476Y29342800D02*
X6345238Y29295181D01*
X6345238Y29295181D02*
X6107143Y29295181D01*
X6107143Y29295181D02*
X6011905Y29342800D01*
X6011905Y29342800D02*
X5964286Y29390420D01*
X58333333Y16045181D02*
X58000000Y16521372D01*
X57761905Y16045181D02*
X57761905Y17045181D01*
X57761905Y17045181D02*
X58142857Y17045181D01*
X58142857Y17045181D02*
X58238095Y16997562D01*
X58238095Y16997562D02*
X58285714Y16949943D01*
X58285714Y16949943D02*
X58333333Y16854705D01*
X58333333Y16854705D02*
X58333333Y16711848D01*
X58333333Y16711848D02*
X58285714Y16616610D01*
X58285714Y16616610D02*
X58238095Y16568991D01*
X58238095Y16568991D02*
X58142857Y16521372D01*
X58142857Y16521372D02*
X57761905Y16521372D01*
X58904762Y16616610D02*
X58809524Y16664229D01*
X58809524Y16664229D02*
X58761905Y16711848D01*
X58761905Y16711848D02*
X58714286Y16807086D01*
X58714286Y16807086D02*
X58714286Y16854705D01*
X58714286Y16854705D02*
X58761905Y16949943D01*
X58761905Y16949943D02*
X58809524Y16997562D01*
X58809524Y16997562D02*
X58904762Y17045181D01*
X58904762Y17045181D02*
X59095238Y17045181D01*
X59095238Y17045181D02*
X59190476Y16997562D01*
X59190476Y16997562D02*
X59238095Y16949943D01*
X59238095Y16949943D02*
X59285714Y16854705D01*
X59285714Y16854705D02*
X59285714Y16807086D01*
X59285714Y16807086D02*
X59238095Y16711848D01*
X59238095Y16711848D02*
X59190476Y16664229D01*
X59190476Y16664229D02*
X59095238Y16616610D01*
X59095238Y16616610D02*
X58904762Y16616610D01*
X58904762Y16616610D02*
X58809524Y16568991D01*
X58809524Y16568991D02*
X58761905Y16521372D01*
X58761905Y16521372D02*
X58714286Y16426134D01*
X58714286Y16426134D02*
X58714286Y16235658D01*
X58714286Y16235658D02*
X58761905Y16140420D01*
X58761905Y16140420D02*
X58809524Y16092800D01*
X58809524Y16092800D02*
X58904762Y16045181D01*
X58904762Y16045181D02*
X59095238Y16045181D01*
X59095238Y16045181D02*
X59190476Y16092800D01*
X59190476Y16092800D02*
X59238095Y16140420D01*
X59238095Y16140420D02*
X59285714Y16235658D01*
X59285714Y16235658D02*
X59285714Y16426134D01*
X59285714Y16426134D02*
X59238095Y16521372D01*
X59238095Y16521372D02*
X59190476Y16568991D01*
X59190476Y16568991D02*
X59095238Y16616610D01*
X23559580Y41083334D02*
X23607200Y41035715D01*
X23607200Y41035715D02*
X23654819Y40892858D01*
X23654819Y40892858D02*
X23654819Y40797620D01*
X23654819Y40797620D02*
X23607200Y40654763D01*
X23607200Y40654763D02*
X23511961Y40559525D01*
X23511961Y40559525D02*
X23416723Y40511906D01*
X23416723Y40511906D02*
X23226247Y40464287D01*
X23226247Y40464287D02*
X23083390Y40464287D01*
X23083390Y40464287D02*
X22892914Y40511906D01*
X22892914Y40511906D02*
X22797676Y40559525D01*
X22797676Y40559525D02*
X22702438Y40654763D01*
X22702438Y40654763D02*
X22654819Y40797620D01*
X22654819Y40797620D02*
X22654819Y40892858D01*
X22654819Y40892858D02*
X22702438Y41035715D01*
X22702438Y41035715D02*
X22750057Y41083334D01*
X22654819Y41416668D02*
X22654819Y42035715D01*
X22654819Y42035715D02*
X23035771Y41702382D01*
X23035771Y41702382D02*
X23035771Y41845239D01*
X23035771Y41845239D02*
X23083390Y41940477D01*
X23083390Y41940477D02*
X23131009Y41988096D01*
X23131009Y41988096D02*
X23226247Y42035715D01*
X23226247Y42035715D02*
X23464342Y42035715D01*
X23464342Y42035715D02*
X23559580Y41988096D01*
X23559580Y41988096D02*
X23607200Y41940477D01*
X23607200Y41940477D02*
X23654819Y41845239D01*
X23654819Y41845239D02*
X23654819Y41559525D01*
X23654819Y41559525D02*
X23607200Y41464287D01*
X23607200Y41464287D02*
X23559580Y41416668D01*
X49054819Y44511906D02*
X48054819Y44511906D01*
X48054819Y44511906D02*
X48054819Y44750001D01*
X48054819Y44750001D02*
X48102438Y44892858D01*
X48102438Y44892858D02*
X48197676Y44988096D01*
X48197676Y44988096D02*
X48292914Y45035715D01*
X48292914Y45035715D02*
X48483390Y45083334D01*
X48483390Y45083334D02*
X48626247Y45083334D01*
X48626247Y45083334D02*
X48816723Y45035715D01*
X48816723Y45035715D02*
X48911961Y44988096D01*
X48911961Y44988096D02*
X49007200Y44892858D01*
X49007200Y44892858D02*
X49054819Y44750001D01*
X49054819Y44750001D02*
X49054819Y44511906D01*
X48388152Y45940477D02*
X49054819Y45940477D01*
X48007200Y45702382D02*
X48721485Y45464287D01*
X48721485Y45464287D02*
X48721485Y46083334D01*
X43107142Y34390420D02*
X43059523Y34342800D01*
X43059523Y34342800D02*
X42916666Y34295181D01*
X42916666Y34295181D02*
X42821428Y34295181D01*
X42821428Y34295181D02*
X42678571Y34342800D01*
X42678571Y34342800D02*
X42583333Y34438039D01*
X42583333Y34438039D02*
X42535714Y34533277D01*
X42535714Y34533277D02*
X42488095Y34723753D01*
X42488095Y34723753D02*
X42488095Y34866610D01*
X42488095Y34866610D02*
X42535714Y35057086D01*
X42535714Y35057086D02*
X42583333Y35152324D01*
X42583333Y35152324D02*
X42678571Y35247562D01*
X42678571Y35247562D02*
X42821428Y35295181D01*
X42821428Y35295181D02*
X42916666Y35295181D01*
X42916666Y35295181D02*
X43059523Y35247562D01*
X43059523Y35247562D02*
X43107142Y35199943D01*
X44059523Y34295181D02*
X43488095Y34295181D01*
X43773809Y34295181D02*
X43773809Y35295181D01*
X43773809Y35295181D02*
X43678571Y35152324D01*
X43678571Y35152324D02*
X43583333Y35057086D01*
X43583333Y35057086D02*
X43488095Y35009467D01*
X44630952Y34866610D02*
X44535714Y34914229D01*
X44535714Y34914229D02*
X44488095Y34961848D01*
X44488095Y34961848D02*
X44440476Y35057086D01*
X44440476Y35057086D02*
X44440476Y35104705D01*
X44440476Y35104705D02*
X44488095Y35199943D01*
X44488095Y35199943D02*
X44535714Y35247562D01*
X44535714Y35247562D02*
X44630952Y35295181D01*
X44630952Y35295181D02*
X44821428Y35295181D01*
X44821428Y35295181D02*
X44916666Y35247562D01*
X44916666Y35247562D02*
X44964285Y35199943D01*
X44964285Y35199943D02*
X45011904Y35104705D01*
X45011904Y35104705D02*
X45011904Y35057086D01*
X45011904Y35057086D02*
X44964285Y34961848D01*
X44964285Y34961848D02*
X44916666Y34914229D01*
X44916666Y34914229D02*
X44821428Y34866610D01*
X44821428Y34866610D02*
X44630952Y34866610D01*
X44630952Y34866610D02*
X44535714Y34818991D01*
X44535714Y34818991D02*
X44488095Y34771372D01*
X44488095Y34771372D02*
X44440476Y34676134D01*
X44440476Y34676134D02*
X44440476Y34485658D01*
X44440476Y34485658D02*
X44488095Y34390420D01*
X44488095Y34390420D02*
X44535714Y34342800D01*
X44535714Y34342800D02*
X44630952Y34295181D01*
X44630952Y34295181D02*
X44821428Y34295181D01*
X44821428Y34295181D02*
X44916666Y34342800D01*
X44916666Y34342800D02*
X44964285Y34390420D01*
X44964285Y34390420D02*
X45011904Y34485658D01*
X45011904Y34485658D02*
X45011904Y34676134D01*
X45011904Y34676134D02*
X44964285Y34771372D01*
X44964285Y34771372D02*
X44916666Y34818991D01*
X44916666Y34818991D02*
X44821428Y34866610D01*
X30988095Y49795181D02*
X30988095Y48985658D01*
X30988095Y48985658D02*
X31035714Y48890420D01*
X31035714Y48890420D02*
X31083333Y48842800D01*
X31083333Y48842800D02*
X31178571Y48795181D01*
X31178571Y48795181D02*
X31369047Y48795181D01*
X31369047Y48795181D02*
X31464285Y48842800D01*
X31464285Y48842800D02*
X31511904Y48890420D01*
X31511904Y48890420D02*
X31559523Y48985658D01*
X31559523Y48985658D02*
X31559523Y49795181D01*
X32464285Y49461848D02*
X32464285Y48795181D01*
X32226190Y49842800D02*
X31988095Y49128515D01*
X31988095Y49128515D02*
X32607142Y49128515D01*
X46238095Y22445181D02*
X46238095Y21635658D01*
X46238095Y21635658D02*
X46285714Y21540420D01*
X46285714Y21540420D02*
X46333333Y21492800D01*
X46333333Y21492800D02*
X46428571Y21445181D01*
X46428571Y21445181D02*
X46619047Y21445181D01*
X46619047Y21445181D02*
X46714285Y21492800D01*
X46714285Y21492800D02*
X46761904Y21540420D01*
X46761904Y21540420D02*
X46809523Y21635658D01*
X46809523Y21635658D02*
X46809523Y22445181D01*
X47190476Y22445181D02*
X47857142Y22445181D01*
X47857142Y22445181D02*
X47428571Y21445181D01*
X54204819Y44607143D02*
X53728628Y44273810D01*
X54204819Y44035715D02*
X53204819Y44035715D01*
X53204819Y44035715D02*
X53204819Y44416667D01*
X53204819Y44416667D02*
X53252438Y44511905D01*
X53252438Y44511905D02*
X53300057Y44559524D01*
X53300057Y44559524D02*
X53395295Y44607143D01*
X53395295Y44607143D02*
X53538152Y44607143D01*
X53538152Y44607143D02*
X53633390Y44559524D01*
X53633390Y44559524D02*
X53681009Y44511905D01*
X53681009Y44511905D02*
X53728628Y44416667D01*
X53728628Y44416667D02*
X53728628Y44035715D01*
X54204819Y45559524D02*
X54204819Y44988096D01*
X54204819Y45273810D02*
X53204819Y45273810D01*
X53204819Y45273810D02*
X53347676Y45178572D01*
X53347676Y45178572D02*
X53442914Y45083334D01*
X53442914Y45083334D02*
X53490533Y44988096D01*
X53204819Y46416667D02*
X53204819Y46226191D01*
X53204819Y46226191D02*
X53252438Y46130953D01*
X53252438Y46130953D02*
X53300057Y46083334D01*
X53300057Y46083334D02*
X53442914Y45988096D01*
X53442914Y45988096D02*
X53633390Y45940477D01*
X53633390Y45940477D02*
X54014342Y45940477D01*
X54014342Y45940477D02*
X54109580Y45988096D01*
X54109580Y45988096D02*
X54157200Y46035715D01*
X54157200Y46035715D02*
X54204819Y46130953D01*
X54204819Y46130953D02*
X54204819Y46321429D01*
X54204819Y46321429D02*
X54157200Y46416667D01*
X54157200Y46416667D02*
X54109580Y46464286D01*
X54109580Y46464286D02*
X54014342Y46511905D01*
X54014342Y46511905D02*
X53776247Y46511905D01*
X53776247Y46511905D02*
X53681009Y46464286D01*
X53681009Y46464286D02*
X53633390Y46416667D01*
X53633390Y46416667D02*
X53585771Y46321429D01*
X53585771Y46321429D02*
X53585771Y46130953D01*
X53585771Y46130953D02*
X53633390Y46035715D01*
X53633390Y46035715D02*
X53681009Y45988096D01*
X53681009Y45988096D02*
X53776247Y45940477D01*
X43632142Y12295181D02*
X43298809Y12771372D01*
X43060714Y12295181D02*
X43060714Y13295181D01*
X43060714Y13295181D02*
X43441666Y13295181D01*
X43441666Y13295181D02*
X43536904Y13247562D01*
X43536904Y13247562D02*
X43584523Y13199943D01*
X43584523Y13199943D02*
X43632142Y13104705D01*
X43632142Y13104705D02*
X43632142Y12961848D01*
X43632142Y12961848D02*
X43584523Y12866610D01*
X43584523Y12866610D02*
X43536904Y12818991D01*
X43536904Y12818991D02*
X43441666Y12771372D01*
X43441666Y12771372D02*
X43060714Y12771372D01*
X44584523Y12295181D02*
X44013095Y12295181D01*
X44298809Y12295181D02*
X44298809Y13295181D01*
X44298809Y13295181D02*
X44203571Y13152324D01*
X44203571Y13152324D02*
X44108333Y13057086D01*
X44108333Y13057086D02*
X44013095Y13009467D01*
X44917857Y13295181D02*
X45584523Y13295181D01*
X45584523Y13295181D02*
X45155952Y12295181D01*
X57478628Y26023810D02*
X57954819Y26023810D01*
X56954819Y25690477D02*
X57478628Y26023810D01*
X57478628Y26023810D02*
X56954819Y26357143D01*
X57954819Y27214286D02*
X57954819Y26642858D01*
X57954819Y26928572D02*
X56954819Y26928572D01*
X56954819Y26928572D02*
X57097676Y26833334D01*
X57097676Y26833334D02*
X57192914Y26738096D01*
X57192914Y26738096D02*
X57240533Y26642858D01*
X11857142Y22640420D02*
X11809523Y22592800D01*
X11809523Y22592800D02*
X11666666Y22545181D01*
X11666666Y22545181D02*
X11571428Y22545181D01*
X11571428Y22545181D02*
X11428571Y22592800D01*
X11428571Y22592800D02*
X11333333Y22688039D01*
X11333333Y22688039D02*
X11285714Y22783277D01*
X11285714Y22783277D02*
X11238095Y22973753D01*
X11238095Y22973753D02*
X11238095Y23116610D01*
X11238095Y23116610D02*
X11285714Y23307086D01*
X11285714Y23307086D02*
X11333333Y23402324D01*
X11333333Y23402324D02*
X11428571Y23497562D01*
X11428571Y23497562D02*
X11571428Y23545181D01*
X11571428Y23545181D02*
X11666666Y23545181D01*
X11666666Y23545181D02*
X11809523Y23497562D01*
X11809523Y23497562D02*
X11857142Y23449943D01*
X12809523Y22545181D02*
X12238095Y22545181D01*
X12523809Y22545181D02*
X12523809Y23545181D01*
X12523809Y23545181D02*
X12428571Y23402324D01*
X12428571Y23402324D02*
X12333333Y23307086D01*
X12333333Y23307086D02*
X12238095Y23259467D01*
X13714285Y23545181D02*
X13238095Y23545181D01*
X13238095Y23545181D02*
X13190476Y23068991D01*
X13190476Y23068991D02*
X13238095Y23116610D01*
X13238095Y23116610D02*
X13333333Y23164229D01*
X13333333Y23164229D02*
X13571428Y23164229D01*
X13571428Y23164229D02*
X13666666Y23116610D01*
X13666666Y23116610D02*
X13714285Y23068991D01*
X13714285Y23068991D02*
X13761904Y22973753D01*
X13761904Y22973753D02*
X13761904Y22735658D01*
X13761904Y22735658D02*
X13714285Y22640420D01*
X13714285Y22640420D02*
X13666666Y22592800D01*
X13666666Y22592800D02*
X13571428Y22545181D01*
X13571428Y22545181D02*
X13333333Y22545181D01*
X13333333Y22545181D02*
X13238095Y22592800D01*
X13238095Y22592800D02*
X13190476Y22640420D01*
X30569047Y9568991D02*
X30711904Y9521372D01*
X30711904Y9521372D02*
X30759523Y9473753D01*
X30759523Y9473753D02*
X30807142Y9378515D01*
X30807142Y9378515D02*
X30807142Y9235658D01*
X30807142Y9235658D02*
X30759523Y9140420D01*
X30759523Y9140420D02*
X30711904Y9092800D01*
X30711904Y9092800D02*
X30616666Y9045181D01*
X30616666Y9045181D02*
X30235714Y9045181D01*
X30235714Y9045181D02*
X30235714Y10045181D01*
X30235714Y10045181D02*
X30569047Y10045181D01*
X30569047Y10045181D02*
X30664285Y9997562D01*
X30664285Y9997562D02*
X30711904Y9949943D01*
X30711904Y9949943D02*
X30759523Y9854705D01*
X30759523Y9854705D02*
X30759523Y9759467D01*
X30759523Y9759467D02*
X30711904Y9664229D01*
X30711904Y9664229D02*
X30664285Y9616610D01*
X30664285Y9616610D02*
X30569047Y9568991D01*
X30569047Y9568991D02*
X30235714Y9568991D01*
X31140476Y10045181D02*
X31807142Y10045181D01*
X31807142Y10045181D02*
X31140476Y9045181D01*
X31140476Y9045181D02*
X31807142Y9045181D01*
X32711904Y9045181D02*
X32140476Y9045181D01*
X32426190Y9045181D02*
X32426190Y10045181D01*
X32426190Y10045181D02*
X32330952Y9902324D01*
X32330952Y9902324D02*
X32235714Y9807086D01*
X32235714Y9807086D02*
X32140476Y9759467D01*
X17774819Y11357143D02*
X17298628Y11023810D01*
X17774819Y10785715D02*
X16774819Y10785715D01*
X16774819Y10785715D02*
X16774819Y11166667D01*
X16774819Y11166667D02*
X16822438Y11261905D01*
X16822438Y11261905D02*
X16870057Y11309524D01*
X16870057Y11309524D02*
X16965295Y11357143D01*
X16965295Y11357143D02*
X17108152Y11357143D01*
X17108152Y11357143D02*
X17203390Y11309524D01*
X17203390Y11309524D02*
X17251009Y11261905D01*
X17251009Y11261905D02*
X17298628Y11166667D01*
X17298628Y11166667D02*
X17298628Y10785715D01*
X16870057Y11738096D02*
X16822438Y11785715D01*
X16822438Y11785715D02*
X16774819Y11880953D01*
X16774819Y11880953D02*
X16774819Y12119048D01*
X16774819Y12119048D02*
X16822438Y12214286D01*
X16822438Y12214286D02*
X16870057Y12261905D01*
X16870057Y12261905D02*
X16965295Y12309524D01*
X16965295Y12309524D02*
X17060533Y12309524D01*
X17060533Y12309524D02*
X17203390Y12261905D01*
X17203390Y12261905D02*
X17774819Y11690477D01*
X17774819Y11690477D02*
X17774819Y12309524D01*
X17774819Y13261905D02*
X17774819Y12690477D01*
X17774819Y12976191D02*
X16774819Y12976191D01*
X16774819Y12976191D02*
X16917676Y12880953D01*
X16917676Y12880953D02*
X17012914Y12785715D01*
X17012914Y12785715D02*
X17060533Y12690477D01*
X2324405Y14195181D02*
X2324405Y15195181D01*
X2324405Y15195181D02*
X2562500Y15195181D01*
X2562500Y15195181D02*
X2705357Y15147562D01*
X2705357Y15147562D02*
X2800595Y15052324D01*
X2800595Y15052324D02*
X2848214Y14957086D01*
X2848214Y14957086D02*
X2895833Y14766610D01*
X2895833Y14766610D02*
X2895833Y14623753D01*
X2895833Y14623753D02*
X2848214Y14433277D01*
X2848214Y14433277D02*
X2800595Y14338039D01*
X2800595Y14338039D02*
X2705357Y14242800D01*
X2705357Y14242800D02*
X2562500Y14195181D01*
X2562500Y14195181D02*
X2324405Y14195181D01*
X3752976Y15195181D02*
X3562500Y15195181D01*
X3562500Y15195181D02*
X3467262Y15147562D01*
X3467262Y15147562D02*
X3419643Y15099943D01*
X3419643Y15099943D02*
X3324405Y14957086D01*
X3324405Y14957086D02*
X3276786Y14766610D01*
X3276786Y14766610D02*
X3276786Y14385658D01*
X3276786Y14385658D02*
X3324405Y14290420D01*
X3324405Y14290420D02*
X3372024Y14242800D01*
X3372024Y14242800D02*
X3467262Y14195181D01*
X3467262Y14195181D02*
X3657738Y14195181D01*
X3657738Y14195181D02*
X3752976Y14242800D01*
X3752976Y14242800D02*
X3800595Y14290420D01*
X3800595Y14290420D02*
X3848214Y14385658D01*
X3848214Y14385658D02*
X3848214Y14623753D01*
X3848214Y14623753D02*
X3800595Y14718991D01*
X3800595Y14718991D02*
X3752976Y14766610D01*
X3752976Y14766610D02*
X3657738Y14814229D01*
X3657738Y14814229D02*
X3467262Y14814229D01*
X3467262Y14814229D02*
X3372024Y14766610D01*
X3372024Y14766610D02*
X3324405Y14718991D01*
X3324405Y14718991D02*
X3276786Y14623753D01*
X61728571Y7868991D02*
X61395238Y7868991D01*
X61395238Y7345181D02*
X61395238Y8345181D01*
X61395238Y8345181D02*
X61871428Y8345181D01*
X62252381Y7345181D02*
X62252381Y8345181D01*
X62728571Y7345181D02*
X62728571Y8345181D01*
X62728571Y8345181D02*
X62966666Y8345181D01*
X62966666Y8345181D02*
X63109523Y8297562D01*
X63109523Y8297562D02*
X63204761Y8202324D01*
X63204761Y8202324D02*
X63252380Y8107086D01*
X63252380Y8107086D02*
X63299999Y7916610D01*
X63299999Y7916610D02*
X63299999Y7773753D01*
X63299999Y7773753D02*
X63252380Y7583277D01*
X63252380Y7583277D02*
X63204761Y7488039D01*
X63204761Y7488039D02*
X63109523Y7392800D01*
X63109523Y7392800D02*
X62966666Y7345181D01*
X62966666Y7345181D02*
X62728571Y7345181D01*
X63680952Y8249943D02*
X63728571Y8297562D01*
X63728571Y8297562D02*
X63823809Y8345181D01*
X63823809Y8345181D02*
X64061904Y8345181D01*
X64061904Y8345181D02*
X64157142Y8297562D01*
X64157142Y8297562D02*
X64204761Y8249943D01*
X64204761Y8249943D02*
X64252380Y8154705D01*
X64252380Y8154705D02*
X64252380Y8059467D01*
X64252380Y8059467D02*
X64204761Y7916610D01*
X64204761Y7916610D02*
X63633333Y7345181D01*
X63633333Y7345181D02*
X64252380Y7345181D01*
X44763095Y16095181D02*
X44763095Y15285658D01*
X44763095Y15285658D02*
X44810714Y15190420D01*
X44810714Y15190420D02*
X44858333Y15142800D01*
X44858333Y15142800D02*
X44953571Y15095181D01*
X44953571Y15095181D02*
X45144047Y15095181D01*
X45144047Y15095181D02*
X45239285Y15142800D01*
X45239285Y15142800D02*
X45286904Y15190420D01*
X45286904Y15190420D02*
X45334523Y15285658D01*
X45334523Y15285658D02*
X45334523Y16095181D01*
X45715476Y16095181D02*
X46334523Y16095181D01*
X46334523Y16095181D02*
X46001190Y15714229D01*
X46001190Y15714229D02*
X46144047Y15714229D01*
X46144047Y15714229D02*
X46239285Y15666610D01*
X46239285Y15666610D02*
X46286904Y15618991D01*
X46286904Y15618991D02*
X46334523Y15523753D01*
X46334523Y15523753D02*
X46334523Y15285658D01*
X46334523Y15285658D02*
X46286904Y15190420D01*
X46286904Y15190420D02*
X46239285Y15142800D01*
X46239285Y15142800D02*
X46144047Y15095181D01*
X46144047Y15095181D02*
X45858333Y15095181D01*
X45858333Y15095181D02*
X45763095Y15142800D01*
X45763095Y15142800D02*
X45715476Y15190420D01*
X56066667Y12992800D02*
X56209524Y12945181D01*
X56209524Y12945181D02*
X56447619Y12945181D01*
X56447619Y12945181D02*
X56542857Y12992800D01*
X56542857Y12992800D02*
X56590476Y13040420D01*
X56590476Y13040420D02*
X56638095Y13135658D01*
X56638095Y13135658D02*
X56638095Y13230896D01*
X56638095Y13230896D02*
X56590476Y13326134D01*
X56590476Y13326134D02*
X56542857Y13373753D01*
X56542857Y13373753D02*
X56447619Y13421372D01*
X56447619Y13421372D02*
X56257143Y13468991D01*
X56257143Y13468991D02*
X56161905Y13516610D01*
X56161905Y13516610D02*
X56114286Y13564229D01*
X56114286Y13564229D02*
X56066667Y13659467D01*
X56066667Y13659467D02*
X56066667Y13754705D01*
X56066667Y13754705D02*
X56114286Y13849943D01*
X56114286Y13849943D02*
X56161905Y13897562D01*
X56161905Y13897562D02*
X56257143Y13945181D01*
X56257143Y13945181D02*
X56495238Y13945181D01*
X56495238Y13945181D02*
X56638095Y13897562D01*
X56971429Y13945181D02*
X57209524Y12945181D01*
X57209524Y12945181D02*
X57400000Y13659467D01*
X57400000Y13659467D02*
X57590476Y12945181D01*
X57590476Y12945181D02*
X57828572Y13945181D01*
X58161905Y13849943D02*
X58209524Y13897562D01*
X58209524Y13897562D02*
X58304762Y13945181D01*
X58304762Y13945181D02*
X58542857Y13945181D01*
X58542857Y13945181D02*
X58638095Y13897562D01*
X58638095Y13897562D02*
X58685714Y13849943D01*
X58685714Y13849943D02*
X58733333Y13754705D01*
X58733333Y13754705D02*
X58733333Y13659467D01*
X58733333Y13659467D02*
X58685714Y13516610D01*
X58685714Y13516610D02*
X58114286Y12945181D01*
X58114286Y12945181D02*
X58733333Y12945181D01*
X61607142Y23140420D02*
X61559523Y23092800D01*
X61559523Y23092800D02*
X61416666Y23045181D01*
X61416666Y23045181D02*
X61321428Y23045181D01*
X61321428Y23045181D02*
X61178571Y23092800D01*
X61178571Y23092800D02*
X61083333Y23188039D01*
X61083333Y23188039D02*
X61035714Y23283277D01*
X61035714Y23283277D02*
X60988095Y23473753D01*
X60988095Y23473753D02*
X60988095Y23616610D01*
X60988095Y23616610D02*
X61035714Y23807086D01*
X61035714Y23807086D02*
X61083333Y23902324D01*
X61083333Y23902324D02*
X61178571Y23997562D01*
X61178571Y23997562D02*
X61321428Y24045181D01*
X61321428Y24045181D02*
X61416666Y24045181D01*
X61416666Y24045181D02*
X61559523Y23997562D01*
X61559523Y23997562D02*
X61607142Y23949943D01*
X62559523Y23045181D02*
X61988095Y23045181D01*
X62273809Y23045181D02*
X62273809Y24045181D01*
X62273809Y24045181D02*
X62178571Y23902324D01*
X62178571Y23902324D02*
X62083333Y23807086D01*
X62083333Y23807086D02*
X61988095Y23759467D01*
X63178571Y24045181D02*
X63273809Y24045181D01*
X63273809Y24045181D02*
X63369047Y23997562D01*
X63369047Y23997562D02*
X63416666Y23949943D01*
X63416666Y23949943D02*
X63464285Y23854705D01*
X63464285Y23854705D02*
X63511904Y23664229D01*
X63511904Y23664229D02*
X63511904Y23426134D01*
X63511904Y23426134D02*
X63464285Y23235658D01*
X63464285Y23235658D02*
X63416666Y23140420D01*
X63416666Y23140420D02*
X63369047Y23092800D01*
X63369047Y23092800D02*
X63273809Y23045181D01*
X63273809Y23045181D02*
X63178571Y23045181D01*
X63178571Y23045181D02*
X63083333Y23092800D01*
X63083333Y23092800D02*
X63035714Y23140420D01*
X63035714Y23140420D02*
X62988095Y23235658D01*
X62988095Y23235658D02*
X62940476Y23426134D01*
X62940476Y23426134D02*
X62940476Y23664229D01*
X62940476Y23664229D02*
X62988095Y23854705D01*
X62988095Y23854705D02*
X63035714Y23949943D01*
X63035714Y23949943D02*
X63083333Y23997562D01*
X63083333Y23997562D02*
X63178571Y24045181D01*
X38204819Y44357143D02*
X37728628Y44023810D01*
X38204819Y43785715D02*
X37204819Y43785715D01*
X37204819Y43785715D02*
X37204819Y44166667D01*
X37204819Y44166667D02*
X37252438Y44261905D01*
X37252438Y44261905D02*
X37300057Y44309524D01*
X37300057Y44309524D02*
X37395295Y44357143D01*
X37395295Y44357143D02*
X37538152Y44357143D01*
X37538152Y44357143D02*
X37633390Y44309524D01*
X37633390Y44309524D02*
X37681009Y44261905D01*
X37681009Y44261905D02*
X37728628Y44166667D01*
X37728628Y44166667D02*
X37728628Y43785715D01*
X38204819Y45309524D02*
X38204819Y44738096D01*
X38204819Y45023810D02*
X37204819Y45023810D01*
X37204819Y45023810D02*
X37347676Y44928572D01*
X37347676Y44928572D02*
X37442914Y44833334D01*
X37442914Y44833334D02*
X37490533Y44738096D01*
X37633390Y45880953D02*
X37585771Y45785715D01*
X37585771Y45785715D02*
X37538152Y45738096D01*
X37538152Y45738096D02*
X37442914Y45690477D01*
X37442914Y45690477D02*
X37395295Y45690477D01*
X37395295Y45690477D02*
X37300057Y45738096D01*
X37300057Y45738096D02*
X37252438Y45785715D01*
X37252438Y45785715D02*
X37204819Y45880953D01*
X37204819Y45880953D02*
X37204819Y46071429D01*
X37204819Y46071429D02*
X37252438Y46166667D01*
X37252438Y46166667D02*
X37300057Y46214286D01*
X37300057Y46214286D02*
X37395295Y46261905D01*
X37395295Y46261905D02*
X37442914Y46261905D01*
X37442914Y46261905D02*
X37538152Y46214286D01*
X37538152Y46214286D02*
X37585771Y46166667D01*
X37585771Y46166667D02*
X37633390Y46071429D01*
X37633390Y46071429D02*
X37633390Y45880953D01*
X37633390Y45880953D02*
X37681009Y45785715D01*
X37681009Y45785715D02*
X37728628Y45738096D01*
X37728628Y45738096D02*
X37823866Y45690477D01*
X37823866Y45690477D02*
X38014342Y45690477D01*
X38014342Y45690477D02*
X38109580Y45738096D01*
X38109580Y45738096D02*
X38157200Y45785715D01*
X38157200Y45785715D02*
X38204819Y45880953D01*
X38204819Y45880953D02*
X38204819Y46071429D01*
X38204819Y46071429D02*
X38157200Y46166667D01*
X38157200Y46166667D02*
X38109580Y46214286D01*
X38109580Y46214286D02*
X38014342Y46261905D01*
X38014342Y46261905D02*
X37823866Y46261905D01*
X37823866Y46261905D02*
X37728628Y46214286D01*
X37728628Y46214286D02*
X37681009Y46166667D01*
X37681009Y46166667D02*
X37633390Y46071429D01*
X22995833Y26295181D02*
X22662500Y26771372D01*
X22424405Y26295181D02*
X22424405Y27295181D01*
X22424405Y27295181D02*
X22805357Y27295181D01*
X22805357Y27295181D02*
X22900595Y27247562D01*
X22900595Y27247562D02*
X22948214Y27199943D01*
X22948214Y27199943D02*
X22995833Y27104705D01*
X22995833Y27104705D02*
X22995833Y26961848D01*
X22995833Y26961848D02*
X22948214Y26866610D01*
X22948214Y26866610D02*
X22900595Y26818991D01*
X22900595Y26818991D02*
X22805357Y26771372D01*
X22805357Y26771372D02*
X22424405Y26771372D01*
X23376786Y27199943D02*
X23424405Y27247562D01*
X23424405Y27247562D02*
X23519643Y27295181D01*
X23519643Y27295181D02*
X23757738Y27295181D01*
X23757738Y27295181D02*
X23852976Y27247562D01*
X23852976Y27247562D02*
X23900595Y27199943D01*
X23900595Y27199943D02*
X23948214Y27104705D01*
X23948214Y27104705D02*
X23948214Y27009467D01*
X23948214Y27009467D02*
X23900595Y26866610D01*
X23900595Y26866610D02*
X23329167Y26295181D01*
X23329167Y26295181D02*
X23948214Y26295181D01*
X63538095Y12393181D02*
X64109523Y12393181D01*
X63823809Y11393181D02*
X63823809Y12393181D01*
X64442857Y11393181D02*
X64442857Y12393181D01*
X64442857Y12393181D02*
X64823809Y12393181D01*
X64823809Y12393181D02*
X64919047Y12345562D01*
X64919047Y12345562D02*
X64966666Y12297943D01*
X64966666Y12297943D02*
X65014285Y12202705D01*
X65014285Y12202705D02*
X65014285Y12059848D01*
X65014285Y12059848D02*
X64966666Y11964610D01*
X64966666Y11964610D02*
X64919047Y11916991D01*
X64919047Y11916991D02*
X64823809Y11869372D01*
X64823809Y11869372D02*
X64442857Y11869372D01*
X65871428Y12059848D02*
X65871428Y11393181D01*
X65633333Y12440800D02*
X65395238Y11726515D01*
X65395238Y11726515D02*
X66014285Y11726515D01*
X12583333Y26890420D02*
X12535714Y26842800D01*
X12535714Y26842800D02*
X12392857Y26795181D01*
X12392857Y26795181D02*
X12297619Y26795181D01*
X12297619Y26795181D02*
X12154762Y26842800D01*
X12154762Y26842800D02*
X12059524Y26938039D01*
X12059524Y26938039D02*
X12011905Y27033277D01*
X12011905Y27033277D02*
X11964286Y27223753D01*
X11964286Y27223753D02*
X11964286Y27366610D01*
X11964286Y27366610D02*
X12011905Y27557086D01*
X12011905Y27557086D02*
X12059524Y27652324D01*
X12059524Y27652324D02*
X12154762Y27747562D01*
X12154762Y27747562D02*
X12297619Y27795181D01*
X12297619Y27795181D02*
X12392857Y27795181D01*
X12392857Y27795181D02*
X12535714Y27747562D01*
X12535714Y27747562D02*
X12583333Y27699943D01*
X13440476Y27795181D02*
X13250000Y27795181D01*
X13250000Y27795181D02*
X13154762Y27747562D01*
X13154762Y27747562D02*
X13107143Y27699943D01*
X13107143Y27699943D02*
X13011905Y27557086D01*
X13011905Y27557086D02*
X12964286Y27366610D01*
X12964286Y27366610D02*
X12964286Y26985658D01*
X12964286Y26985658D02*
X13011905Y26890420D01*
X13011905Y26890420D02*
X13059524Y26842800D01*
X13059524Y26842800D02*
X13154762Y26795181D01*
X13154762Y26795181D02*
X13345238Y26795181D01*
X13345238Y26795181D02*
X13440476Y26842800D01*
X13440476Y26842800D02*
X13488095Y26890420D01*
X13488095Y26890420D02*
X13535714Y26985658D01*
X13535714Y26985658D02*
X13535714Y27223753D01*
X13535714Y27223753D02*
X13488095Y27318991D01*
X13488095Y27318991D02*
X13440476Y27366610D01*
X13440476Y27366610D02*
X13345238Y27414229D01*
X13345238Y27414229D02*
X13154762Y27414229D01*
X13154762Y27414229D02*
X13059524Y27366610D01*
X13059524Y27366610D02*
X13011905Y27318991D01*
X13011905Y27318991D02*
X12964286Y27223753D01*
X7454819Y38833334D02*
X6978628Y38500001D01*
X7454819Y38261906D02*
X6454819Y38261906D01*
X6454819Y38261906D02*
X6454819Y38642858D01*
X6454819Y38642858D02*
X6502438Y38738096D01*
X6502438Y38738096D02*
X6550057Y38785715D01*
X6550057Y38785715D02*
X6645295Y38833334D01*
X6645295Y38833334D02*
X6788152Y38833334D01*
X6788152Y38833334D02*
X6883390Y38785715D01*
X6883390Y38785715D02*
X6931009Y38738096D01*
X6931009Y38738096D02*
X6978628Y38642858D01*
X6978628Y38642858D02*
X6978628Y38261906D01*
X6454819Y39690477D02*
X6454819Y39500001D01*
X6454819Y39500001D02*
X6502438Y39404763D01*
X6502438Y39404763D02*
X6550057Y39357144D01*
X6550057Y39357144D02*
X6692914Y39261906D01*
X6692914Y39261906D02*
X6883390Y39214287D01*
X6883390Y39214287D02*
X7264342Y39214287D01*
X7264342Y39214287D02*
X7359580Y39261906D01*
X7359580Y39261906D02*
X7407200Y39309525D01*
X7407200Y39309525D02*
X7454819Y39404763D01*
X7454819Y39404763D02*
X7454819Y39595239D01*
X7454819Y39595239D02*
X7407200Y39690477D01*
X7407200Y39690477D02*
X7359580Y39738096D01*
X7359580Y39738096D02*
X7264342Y39785715D01*
X7264342Y39785715D02*
X7026247Y39785715D01*
X7026247Y39785715D02*
X6931009Y39738096D01*
X6931009Y39738096D02*
X6883390Y39690477D01*
X6883390Y39690477D02*
X6835771Y39595239D01*
X6835771Y39595239D02*
X6835771Y39404763D01*
X6835771Y39404763D02*
X6883390Y39309525D01*
X6883390Y39309525D02*
X6931009Y39261906D01*
X6931009Y39261906D02*
X7026247Y39214287D01*
X12857142Y8365181D02*
X12523809Y8841372D01*
X12285714Y8365181D02*
X12285714Y9365181D01*
X12285714Y9365181D02*
X12666666Y9365181D01*
X12666666Y9365181D02*
X12761904Y9317562D01*
X12761904Y9317562D02*
X12809523Y9269943D01*
X12809523Y9269943D02*
X12857142Y9174705D01*
X12857142Y9174705D02*
X12857142Y9031848D01*
X12857142Y9031848D02*
X12809523Y8936610D01*
X12809523Y8936610D02*
X12761904Y8888991D01*
X12761904Y8888991D02*
X12666666Y8841372D01*
X12666666Y8841372D02*
X12285714Y8841372D01*
X13238095Y9269943D02*
X13285714Y9317562D01*
X13285714Y9317562D02*
X13380952Y9365181D01*
X13380952Y9365181D02*
X13619047Y9365181D01*
X13619047Y9365181D02*
X13714285Y9317562D01*
X13714285Y9317562D02*
X13761904Y9269943D01*
X13761904Y9269943D02*
X13809523Y9174705D01*
X13809523Y9174705D02*
X13809523Y9079467D01*
X13809523Y9079467D02*
X13761904Y8936610D01*
X13761904Y8936610D02*
X13190476Y8365181D01*
X13190476Y8365181D02*
X13809523Y8365181D01*
X14142857Y9365181D02*
X14761904Y9365181D01*
X14761904Y9365181D02*
X14428571Y8984229D01*
X14428571Y8984229D02*
X14571428Y8984229D01*
X14571428Y8984229D02*
X14666666Y8936610D01*
X14666666Y8936610D02*
X14714285Y8888991D01*
X14714285Y8888991D02*
X14761904Y8793753D01*
X14761904Y8793753D02*
X14761904Y8555658D01*
X14761904Y8555658D02*
X14714285Y8460420D01*
X14714285Y8460420D02*
X14666666Y8412800D01*
X14666666Y8412800D02*
X14571428Y8365181D01*
X14571428Y8365181D02*
X14285714Y8365181D01*
X14285714Y8365181D02*
X14190476Y8412800D01*
X14190476Y8412800D02*
X14142857Y8460420D01*
X44454819Y47607143D02*
X43978628Y47273810D01*
X44454819Y47035715D02*
X43454819Y47035715D01*
X43454819Y47035715D02*
X43454819Y47416667D01*
X43454819Y47416667D02*
X43502438Y47511905D01*
X43502438Y47511905D02*
X43550057Y47559524D01*
X43550057Y47559524D02*
X43645295Y47607143D01*
X43645295Y47607143D02*
X43788152Y47607143D01*
X43788152Y47607143D02*
X43883390Y47559524D01*
X43883390Y47559524D02*
X43931009Y47511905D01*
X43931009Y47511905D02*
X43978628Y47416667D01*
X43978628Y47416667D02*
X43978628Y47035715D01*
X44454819Y48559524D02*
X44454819Y47988096D01*
X44454819Y48273810D02*
X43454819Y48273810D01*
X43454819Y48273810D02*
X43597676Y48178572D01*
X43597676Y48178572D02*
X43692914Y48083334D01*
X43692914Y48083334D02*
X43740533Y47988096D01*
X43788152Y49416667D02*
X44454819Y49416667D01*
X43407200Y49178572D02*
X44121485Y48940477D01*
X44121485Y48940477D02*
X44121485Y49559524D01*
X58954819Y20666667D02*
X59669104Y20666667D01*
X59669104Y20666667D02*
X59811961Y20619048D01*
X59811961Y20619048D02*
X59907200Y20523810D01*
X59907200Y20523810D02*
X59954819Y20380953D01*
X59954819Y20380953D02*
X59954819Y20285715D01*
X58954819Y21571429D02*
X58954819Y21380953D01*
X58954819Y21380953D02*
X59002438Y21285715D01*
X59002438Y21285715D02*
X59050057Y21238096D01*
X59050057Y21238096D02*
X59192914Y21142858D01*
X59192914Y21142858D02*
X59383390Y21095239D01*
X59383390Y21095239D02*
X59764342Y21095239D01*
X59764342Y21095239D02*
X59859580Y21142858D01*
X59859580Y21142858D02*
X59907200Y21190477D01*
X59907200Y21190477D02*
X59954819Y21285715D01*
X59954819Y21285715D02*
X59954819Y21476191D01*
X59954819Y21476191D02*
X59907200Y21571429D01*
X59907200Y21571429D02*
X59859580Y21619048D01*
X59859580Y21619048D02*
X59764342Y21666667D01*
X59764342Y21666667D02*
X59526247Y21666667D01*
X59526247Y21666667D02*
X59431009Y21619048D01*
X59431009Y21619048D02*
X59383390Y21571429D01*
X59383390Y21571429D02*
X59335771Y21476191D01*
X59335771Y21476191D02*
X59335771Y21285715D01*
X59335771Y21285715D02*
X59383390Y21190477D01*
X59383390Y21190477D02*
X59431009Y21142858D01*
X59431009Y21142858D02*
X59526247Y21095239D01*
X30261905Y12495181D02*
X30261905Y13495181D01*
X30261905Y13495181D02*
X30500000Y13495181D01*
X30500000Y13495181D02*
X30642857Y13447562D01*
X30642857Y13447562D02*
X30738095Y13352324D01*
X30738095Y13352324D02*
X30785714Y13257086D01*
X30785714Y13257086D02*
X30833333Y13066610D01*
X30833333Y13066610D02*
X30833333Y12923753D01*
X30833333Y12923753D02*
X30785714Y12733277D01*
X30785714Y12733277D02*
X30738095Y12638039D01*
X30738095Y12638039D02*
X30642857Y12542800D01*
X30642857Y12542800D02*
X30500000Y12495181D01*
X30500000Y12495181D02*
X30261905Y12495181D01*
X31738095Y13495181D02*
X31261905Y13495181D01*
X31261905Y13495181D02*
X31214286Y13018991D01*
X31214286Y13018991D02*
X31261905Y13066610D01*
X31261905Y13066610D02*
X31357143Y13114229D01*
X31357143Y13114229D02*
X31595238Y13114229D01*
X31595238Y13114229D02*
X31690476Y13066610D01*
X31690476Y13066610D02*
X31738095Y13018991D01*
X31738095Y13018991D02*
X31785714Y12923753D01*
X31785714Y12923753D02*
X31785714Y12685658D01*
X31785714Y12685658D02*
X31738095Y12590420D01*
X31738095Y12590420D02*
X31690476Y12542800D01*
X31690476Y12542800D02*
X31595238Y12495181D01*
X31595238Y12495181D02*
X31357143Y12495181D01*
X31357143Y12495181D02*
X31261905Y12542800D01*
X31261905Y12542800D02*
X31214286Y12590420D01*
X63738095Y31193181D02*
X64309523Y31193181D01*
X64023809Y30193181D02*
X64023809Y31193181D01*
X64642857Y30193181D02*
X64642857Y31193181D01*
X64642857Y31193181D02*
X65023809Y31193181D01*
X65023809Y31193181D02*
X65119047Y31145562D01*
X65119047Y31145562D02*
X65166666Y31097943D01*
X65166666Y31097943D02*
X65214285Y31002705D01*
X65214285Y31002705D02*
X65214285Y30859848D01*
X65214285Y30859848D02*
X65166666Y30764610D01*
X65166666Y30764610D02*
X65119047Y30716991D01*
X65119047Y30716991D02*
X65023809Y30669372D01*
X65023809Y30669372D02*
X64642857Y30669372D01*
X65547619Y31193181D02*
X66166666Y31193181D01*
X66166666Y31193181D02*
X65833333Y30812229D01*
X65833333Y30812229D02*
X65976190Y30812229D01*
X65976190Y30812229D02*
X66071428Y30764610D01*
X66071428Y30764610D02*
X66119047Y30716991D01*
X66119047Y30716991D02*
X66166666Y30621753D01*
X66166666Y30621753D02*
X66166666Y30383658D01*
X66166666Y30383658D02*
X66119047Y30288420D01*
X66119047Y30288420D02*
X66071428Y30240800D01*
X66071428Y30240800D02*
X65976190Y30193181D01*
X65976190Y30193181D02*
X65690476Y30193181D01*
X65690476Y30193181D02*
X65595238Y30240800D01*
X65595238Y30240800D02*
X65547619Y30288420D01*
X67387532Y8910625D02*
X67387532Y9910625D01*
X67387532Y9910625D02*
X67720865Y9196340D01*
X67720865Y9196340D02*
X68054198Y9910625D01*
X68054198Y9910625D02*
X68054198Y8910625D01*
X68958960Y9577292D02*
X68958960Y8910625D01*
X68720865Y9958244D02*
X68482770Y9243959D01*
X68482770Y9243959D02*
X69101817Y9243959D01*
X11359580Y14107143D02*
X11407200Y14059524D01*
X11407200Y14059524D02*
X11454819Y13916667D01*
X11454819Y13916667D02*
X11454819Y13821429D01*
X11454819Y13821429D02*
X11407200Y13678572D01*
X11407200Y13678572D02*
X11311961Y13583334D01*
X11311961Y13583334D02*
X11216723Y13535715D01*
X11216723Y13535715D02*
X11026247Y13488096D01*
X11026247Y13488096D02*
X10883390Y13488096D01*
X10883390Y13488096D02*
X10692914Y13535715D01*
X10692914Y13535715D02*
X10597676Y13583334D01*
X10597676Y13583334D02*
X10502438Y13678572D01*
X10502438Y13678572D02*
X10454819Y13821429D01*
X10454819Y13821429D02*
X10454819Y13916667D01*
X10454819Y13916667D02*
X10502438Y14059524D01*
X10502438Y14059524D02*
X10550057Y14107143D01*
X11454819Y15059524D02*
X11454819Y14488096D01*
X11454819Y14773810D02*
X10454819Y14773810D01*
X10454819Y14773810D02*
X10597676Y14678572D01*
X10597676Y14678572D02*
X10692914Y14583334D01*
X10692914Y14583334D02*
X10740533Y14488096D01*
X11454819Y16011905D02*
X11454819Y15440477D01*
X11454819Y15726191D02*
X10454819Y15726191D01*
X10454819Y15726191D02*
X10597676Y15630953D01*
X10597676Y15630953D02*
X10692914Y15535715D01*
X10692914Y15535715D02*
X10740533Y15440477D01*
X42074819Y39166667D02*
X42789104Y39166667D01*
X42789104Y39166667D02*
X42931961Y39119048D01*
X42931961Y39119048D02*
X43027200Y39023810D01*
X43027200Y39023810D02*
X43074819Y38880953D01*
X43074819Y38880953D02*
X43074819Y38785715D01*
X42074819Y39547620D02*
X42074819Y40214286D01*
X42074819Y40214286D02*
X43074819Y39785715D01*
X42959580Y16607143D02*
X43007200Y16559524D01*
X43007200Y16559524D02*
X43054819Y16416667D01*
X43054819Y16416667D02*
X43054819Y16321429D01*
X43054819Y16321429D02*
X43007200Y16178572D01*
X43007200Y16178572D02*
X42911961Y16083334D01*
X42911961Y16083334D02*
X42816723Y16035715D01*
X42816723Y16035715D02*
X42626247Y15988096D01*
X42626247Y15988096D02*
X42483390Y15988096D01*
X42483390Y15988096D02*
X42292914Y16035715D01*
X42292914Y16035715D02*
X42197676Y16083334D01*
X42197676Y16083334D02*
X42102438Y16178572D01*
X42102438Y16178572D02*
X42054819Y16321429D01*
X42054819Y16321429D02*
X42054819Y16416667D01*
X42054819Y16416667D02*
X42102438Y16559524D01*
X42102438Y16559524D02*
X42150057Y16607143D01*
X43054819Y17559524D02*
X43054819Y16988096D01*
X43054819Y17273810D02*
X42054819Y17273810D01*
X42054819Y17273810D02*
X42197676Y17178572D01*
X42197676Y17178572D02*
X42292914Y17083334D01*
X42292914Y17083334D02*
X42340533Y16988096D01*
X42054819Y17892858D02*
X42054819Y18559524D01*
X42054819Y18559524D02*
X43054819Y18130953D01*
X26988095Y29545181D02*
X26988095Y28735658D01*
X26988095Y28735658D02*
X27035714Y28640420D01*
X27035714Y28640420D02*
X27083333Y28592800D01*
X27083333Y28592800D02*
X27178571Y28545181D01*
X27178571Y28545181D02*
X27369047Y28545181D01*
X27369047Y28545181D02*
X27464285Y28592800D01*
X27464285Y28592800D02*
X27511904Y28640420D01*
X27511904Y28640420D02*
X27559523Y28735658D01*
X27559523Y28735658D02*
X27559523Y29545181D01*
X27988095Y29449943D02*
X28035714Y29497562D01*
X28035714Y29497562D02*
X28130952Y29545181D01*
X28130952Y29545181D02*
X28369047Y29545181D01*
X28369047Y29545181D02*
X28464285Y29497562D01*
X28464285Y29497562D02*
X28511904Y29449943D01*
X28511904Y29449943D02*
X28559523Y29354705D01*
X28559523Y29354705D02*
X28559523Y29259467D01*
X28559523Y29259467D02*
X28511904Y29116610D01*
X28511904Y29116610D02*
X27940476Y28545181D01*
X27940476Y28545181D02*
X28559523Y28545181D01*
X16109580Y16107143D02*
X16157200Y16059524D01*
X16157200Y16059524D02*
X16204819Y15916667D01*
X16204819Y15916667D02*
X16204819Y15821429D01*
X16204819Y15821429D02*
X16157200Y15678572D01*
X16157200Y15678572D02*
X16061961Y15583334D01*
X16061961Y15583334D02*
X15966723Y15535715D01*
X15966723Y15535715D02*
X15776247Y15488096D01*
X15776247Y15488096D02*
X15633390Y15488096D01*
X15633390Y15488096D02*
X15442914Y15535715D01*
X15442914Y15535715D02*
X15347676Y15583334D01*
X15347676Y15583334D02*
X15252438Y15678572D01*
X15252438Y15678572D02*
X15204819Y15821429D01*
X15204819Y15821429D02*
X15204819Y15916667D01*
X15204819Y15916667D02*
X15252438Y16059524D01*
X15252438Y16059524D02*
X15300057Y16107143D01*
X15300057Y16488096D02*
X15252438Y16535715D01*
X15252438Y16535715D02*
X15204819Y16630953D01*
X15204819Y16630953D02*
X15204819Y16869048D01*
X15204819Y16869048D02*
X15252438Y16964286D01*
X15252438Y16964286D02*
X15300057Y17011905D01*
X15300057Y17011905D02*
X15395295Y17059524D01*
X15395295Y17059524D02*
X15490533Y17059524D01*
X15490533Y17059524D02*
X15633390Y17011905D01*
X15633390Y17011905D02*
X16204819Y16440477D01*
X16204819Y16440477D02*
X16204819Y17059524D01*
X16204819Y18011905D02*
X16204819Y17440477D01*
X16204819Y17726191D02*
X15204819Y17726191D01*
X15204819Y17726191D02*
X15347676Y17630953D01*
X15347676Y17630953D02*
X15442914Y17535715D01*
X15442914Y17535715D02*
X15490533Y17440477D01*
X43254819Y44261906D02*
X42254819Y44261906D01*
X42254819Y44261906D02*
X42254819Y44500001D01*
X42254819Y44500001D02*
X42302438Y44642858D01*
X42302438Y44642858D02*
X42397676Y44738096D01*
X42397676Y44738096D02*
X42492914Y44785715D01*
X42492914Y44785715D02*
X42683390Y44833334D01*
X42683390Y44833334D02*
X42826247Y44833334D01*
X42826247Y44833334D02*
X43016723Y44785715D01*
X43016723Y44785715D02*
X43111961Y44738096D01*
X43111961Y44738096D02*
X43207200Y44642858D01*
X43207200Y44642858D02*
X43254819Y44500001D01*
X43254819Y44500001D02*
X43254819Y44261906D01*
X42254819Y45166668D02*
X42254819Y45785715D01*
X42254819Y45785715D02*
X42635771Y45452382D01*
X42635771Y45452382D02*
X42635771Y45595239D01*
X42635771Y45595239D02*
X42683390Y45690477D01*
X42683390Y45690477D02*
X42731009Y45738096D01*
X42731009Y45738096D02*
X42826247Y45785715D01*
X42826247Y45785715D02*
X43064342Y45785715D01*
X43064342Y45785715D02*
X43159580Y45738096D01*
X43159580Y45738096D02*
X43207200Y45690477D01*
X43207200Y45690477D02*
X43254819Y45595239D01*
X43254819Y45595239D02*
X43254819Y45309525D01*
X43254819Y45309525D02*
X43207200Y45214287D01*
X43207200Y45214287D02*
X43159580Y45166668D01*
X47654819Y44261906D02*
X46654819Y44261906D01*
X46654819Y44261906D02*
X46654819Y44500001D01*
X46654819Y44500001D02*
X46702438Y44642858D01*
X46702438Y44642858D02*
X46797676Y44738096D01*
X46797676Y44738096D02*
X46892914Y44785715D01*
X46892914Y44785715D02*
X47083390Y44833334D01*
X47083390Y44833334D02*
X47226247Y44833334D01*
X47226247Y44833334D02*
X47416723Y44785715D01*
X47416723Y44785715D02*
X47511961Y44738096D01*
X47511961Y44738096D02*
X47607200Y44642858D01*
X47607200Y44642858D02*
X47654819Y44500001D01*
X47654819Y44500001D02*
X47654819Y44261906D01*
X47654819Y45785715D02*
X47654819Y45214287D01*
X47654819Y45500001D02*
X46654819Y45500001D01*
X46654819Y45500001D02*
X46797676Y45404763D01*
X46797676Y45404763D02*
X46892914Y45309525D01*
X46892914Y45309525D02*
X46940533Y45214287D01*
X49607142Y9115181D02*
X49273809Y9591372D01*
X49035714Y9115181D02*
X49035714Y10115181D01*
X49035714Y10115181D02*
X49416666Y10115181D01*
X49416666Y10115181D02*
X49511904Y10067562D01*
X49511904Y10067562D02*
X49559523Y10019943D01*
X49559523Y10019943D02*
X49607142Y9924705D01*
X49607142Y9924705D02*
X49607142Y9781848D01*
X49607142Y9781848D02*
X49559523Y9686610D01*
X49559523Y9686610D02*
X49511904Y9638991D01*
X49511904Y9638991D02*
X49416666Y9591372D01*
X49416666Y9591372D02*
X49035714Y9591372D01*
X50559523Y9115181D02*
X49988095Y9115181D01*
X50273809Y9115181D02*
X50273809Y10115181D01*
X50273809Y10115181D02*
X50178571Y9972324D01*
X50178571Y9972324D02*
X50083333Y9877086D01*
X50083333Y9877086D02*
X49988095Y9829467D01*
X51464285Y10115181D02*
X50988095Y10115181D01*
X50988095Y10115181D02*
X50940476Y9638991D01*
X50940476Y9638991D02*
X50988095Y9686610D01*
X50988095Y9686610D02*
X51083333Y9734229D01*
X51083333Y9734229D02*
X51321428Y9734229D01*
X51321428Y9734229D02*
X51416666Y9686610D01*
X51416666Y9686610D02*
X51464285Y9638991D01*
X51464285Y9638991D02*
X51511904Y9543753D01*
X51511904Y9543753D02*
X51511904Y9305658D01*
X51511904Y9305658D02*
X51464285Y9210420D01*
X51464285Y9210420D02*
X51416666Y9162800D01*
X51416666Y9162800D02*
X51321428Y9115181D01*
X51321428Y9115181D02*
X51083333Y9115181D01*
X51083333Y9115181D02*
X50988095Y9162800D01*
X50988095Y9162800D02*
X50940476Y9210420D01*
X48754819Y34607143D02*
X48278628Y34273810D01*
X48754819Y34035715D02*
X47754819Y34035715D01*
X47754819Y34035715D02*
X47754819Y34416667D01*
X47754819Y34416667D02*
X47802438Y34511905D01*
X47802438Y34511905D02*
X47850057Y34559524D01*
X47850057Y34559524D02*
X47945295Y34607143D01*
X47945295Y34607143D02*
X48088152Y34607143D01*
X48088152Y34607143D02*
X48183390Y34559524D01*
X48183390Y34559524D02*
X48231009Y34511905D01*
X48231009Y34511905D02*
X48278628Y34416667D01*
X48278628Y34416667D02*
X48278628Y34035715D01*
X47850057Y34988096D02*
X47802438Y35035715D01*
X47802438Y35035715D02*
X47754819Y35130953D01*
X47754819Y35130953D02*
X47754819Y35369048D01*
X47754819Y35369048D02*
X47802438Y35464286D01*
X47802438Y35464286D02*
X47850057Y35511905D01*
X47850057Y35511905D02*
X47945295Y35559524D01*
X47945295Y35559524D02*
X48040533Y35559524D01*
X48040533Y35559524D02*
X48183390Y35511905D01*
X48183390Y35511905D02*
X48754819Y34940477D01*
X48754819Y34940477D02*
X48754819Y35559524D01*
X47754819Y36178572D02*
X47754819Y36273810D01*
X47754819Y36273810D02*
X47802438Y36369048D01*
X47802438Y36369048D02*
X47850057Y36416667D01*
X47850057Y36416667D02*
X47945295Y36464286D01*
X47945295Y36464286D02*
X48135771Y36511905D01*
X48135771Y36511905D02*
X48373866Y36511905D01*
X48373866Y36511905D02*
X48564342Y36464286D01*
X48564342Y36464286D02*
X48659580Y36416667D01*
X48659580Y36416667D02*
X48707200Y36369048D01*
X48707200Y36369048D02*
X48754819Y36273810D01*
X48754819Y36273810D02*
X48754819Y36178572D01*
X48754819Y36178572D02*
X48707200Y36083334D01*
X48707200Y36083334D02*
X48659580Y36035715D01*
X48659580Y36035715D02*
X48564342Y35988096D01*
X48564342Y35988096D02*
X48373866Y35940477D01*
X48373866Y35940477D02*
X48135771Y35940477D01*
X48135771Y35940477D02*
X47945295Y35988096D01*
X47945295Y35988096D02*
X47850057Y36035715D01*
X47850057Y36035715D02*
X47802438Y36083334D01*
X47802438Y36083334D02*
X47754819Y36178572D01*
X8416666Y22888991D02*
X8083333Y22888991D01*
X8083333Y22365181D02*
X8083333Y23365181D01*
X8083333Y23365181D02*
X8559523Y23365181D01*
X9273809Y22888991D02*
X9416666Y22841372D01*
X9416666Y22841372D02*
X9464285Y22793753D01*
X9464285Y22793753D02*
X9511904Y22698515D01*
X9511904Y22698515D02*
X9511904Y22555658D01*
X9511904Y22555658D02*
X9464285Y22460420D01*
X9464285Y22460420D02*
X9416666Y22412800D01*
X9416666Y22412800D02*
X9321428Y22365181D01*
X9321428Y22365181D02*
X8940476Y22365181D01*
X8940476Y22365181D02*
X8940476Y23365181D01*
X8940476Y23365181D02*
X9273809Y23365181D01*
X9273809Y23365181D02*
X9369047Y23317562D01*
X9369047Y23317562D02*
X9416666Y23269943D01*
X9416666Y23269943D02*
X9464285Y23174705D01*
X9464285Y23174705D02*
X9464285Y23079467D01*
X9464285Y23079467D02*
X9416666Y22984229D01*
X9416666Y22984229D02*
X9369047Y22936610D01*
X9369047Y22936610D02*
X9273809Y22888991D01*
X9273809Y22888991D02*
X8940476Y22888991D01*
X10464285Y22365181D02*
X9892857Y22365181D01*
X10178571Y22365181D02*
X10178571Y23365181D01*
X10178571Y23365181D02*
X10083333Y23222324D01*
X10083333Y23222324D02*
X9988095Y23127086D01*
X9988095Y23127086D02*
X9892857Y23079467D01*
D16*
%TO.C,C9*%
X25090000Y45538748D02*
X25090000Y46961252D01*
X26910000Y45538748D02*
X26910000Y46961252D01*
%TO.C,BT1*%
X11540000Y36925000D02*
X11540000Y47030000D01*
X13860000Y36925000D02*
X13860000Y47030000D01*
X16140000Y36925000D02*
X16140000Y47030000D01*
X18460000Y36925000D02*
X18460000Y47030000D01*
%TO.C,C13*%
X62103733Y28010000D02*
X62396267Y28010000D01*
X62103733Y26990000D02*
X62396267Y26990000D01*
%TO.C,C7*%
X66490000Y39266233D02*
X66490000Y39558767D01*
X67510000Y39266233D02*
X67510000Y39558767D01*
%TO.C,C1*%
X24396267Y33010000D02*
X24103733Y33010000D01*
X24396267Y31990000D02*
X24103733Y31990000D01*
%TO.C,Q1*%
X33490000Y14322500D02*
X33540000Y14322500D01*
X33490000Y12802500D02*
X33490000Y14322500D01*
X34490000Y12802500D02*
X33490000Y12802500D01*
X34660000Y14322500D02*
X35440000Y14322500D01*
X36560000Y14322500D02*
X36610000Y14322500D01*
X36610000Y14322500D02*
X36610000Y12802500D01*
X36610000Y12802500D02*
X35610000Y12802500D01*
X35430000Y14862500D02*
X35100000Y14622500D01*
X35100000Y15102500D01*
X35430000Y14862500D01*
G36*
X35430000Y14862500D02*
G01*
X35100000Y14622500D01*
X35100000Y15102500D01*
X35430000Y14862500D01*
G37*
%TO.C,J1*%
X3100000Y26670000D02*
X4800000Y26670000D01*
X3100000Y17330000D02*
X4800000Y17330000D01*
%TO.C,U1*%
X10477500Y21560000D02*
X12297500Y21560000D01*
X10477500Y21510000D02*
X10477500Y21560000D01*
X10477500Y18440000D02*
X10477500Y18490000D01*
X12297500Y21560000D02*
X12297500Y21510000D01*
X12297500Y18490000D02*
X12297500Y18440000D01*
X12297500Y18440000D02*
X10477500Y18440000D01*
X9937500Y21510000D02*
X9697500Y21840000D01*
X10177500Y21840000D01*
X9937500Y21510000D01*
G36*
X9937500Y21510000D02*
G01*
X9697500Y21840000D01*
X10177500Y21840000D01*
X9937500Y21510000D01*
G37*
%TO.C,TP2*%
X41900000Y10600000D02*
G75*
G02*
X40500000Y10600000I-700000J0D01*
G01*
X40500000Y10600000D02*
G75*
G02*
X41900000Y10600000I700000J0D01*
G01*
%TO.C,J3*%
X36890000Y5910000D02*
X36890000Y4660000D01*
X37190000Y4300000D02*
X37800000Y4300000D01*
X37190000Y3000000D02*
X37800000Y3000000D01*
X37800000Y5000000D02*
X37800000Y1500000D01*
X37800000Y1500000D02*
X46700000Y1500000D01*
X38140000Y5910000D02*
X36890000Y5910000D01*
X38650000Y5810000D02*
X38650000Y5610000D01*
X38950000Y5810000D02*
X38650000Y5810000D01*
X38950000Y5710000D02*
X38650000Y5710000D01*
X38950000Y5610000D02*
X38950000Y5810000D01*
X39750000Y5610000D02*
X39750000Y5000000D01*
X39750000Y5000000D02*
X37800000Y5000000D01*
X40150000Y2000000D02*
X40350000Y2000000D01*
X40150000Y1500000D02*
X40150000Y2000000D01*
X40250000Y1500000D02*
X40250000Y2000000D01*
X40350000Y2000000D02*
X40350000Y1500000D01*
X42150000Y2000000D02*
X42350000Y2000000D01*
X42150000Y1500000D02*
X42150000Y2000000D01*
X42250000Y1500000D02*
X42250000Y2000000D01*
X42350000Y2000000D02*
X42350000Y1500000D01*
X44150000Y2000000D02*
X44350000Y2000000D01*
X44150000Y1500000D02*
X44150000Y2000000D01*
X44250000Y1500000D02*
X44250000Y2000000D01*
X44350000Y2000000D02*
X44350000Y1500000D01*
X44750000Y5000000D02*
X44750000Y5610000D01*
X46700000Y5000000D02*
X44750000Y5000000D01*
X46700000Y1500000D02*
X46700000Y5000000D01*
X47310000Y4300000D02*
X46700000Y4300000D01*
X47310000Y3000000D02*
X46700000Y3000000D01*
X37190000Y5610000D02*
X47310000Y5610000D01*
X47310000Y890000D01*
X37190000Y890000D01*
X37190000Y5610000D01*
%TO.C,R9*%
X3092224Y11772500D02*
X2582776Y11772500D01*
X3092224Y10727500D02*
X2582776Y10727500D01*
%TO.C,C5*%
X25090000Y41711252D02*
X25090000Y40288748D01*
X26910000Y41711252D02*
X26910000Y40288748D01*
%TO.C,D7*%
X25290000Y23250000D02*
X25290000Y20390000D01*
X25290000Y20390000D02*
X27210000Y20390000D01*
X27210000Y20390000D02*
X27210000Y23250000D01*
%TO.C,C19*%
X52265000Y15896267D02*
X52265000Y15603733D01*
X53285000Y15896267D02*
X53285000Y15603733D01*
%TO.C,R11*%
X20977500Y15754724D02*
X20977500Y15245276D01*
X22022500Y15754724D02*
X22022500Y15245276D01*
%TO.C,SW1*%
X56930000Y44970000D02*
X61070000Y44970000D01*
X56930000Y44670000D02*
X56930000Y44970000D01*
X56930000Y41830000D02*
X56930000Y42130000D01*
X61070000Y44970000D02*
X61070000Y44670000D01*
X61070000Y42130000D02*
X61070000Y41830000D01*
X61070000Y41830000D02*
X56930000Y41830000D01*
%TO.C,R22*%
X9745276Y10772500D02*
X10254724Y10772500D01*
X9745276Y9727500D02*
X10254724Y9727500D01*
%TO.C,C25*%
X50115835Y22360000D02*
X49884165Y22360000D01*
X50115835Y21640000D02*
X49884165Y21640000D01*
%TO.C,C24*%
X53015000Y29761252D02*
X53015000Y29238748D01*
X54485000Y29761252D02*
X54485000Y29238748D01*
%TO.C,Y2*%
X62140000Y39422500D02*
X62140000Y32052500D01*
X62140000Y32052500D02*
X65860000Y32052500D01*
X65860000Y32052500D02*
X65860000Y39422500D01*
%TO.C,U5*%
X48165000Y16610000D02*
X48840000Y16610000D01*
X48165000Y16435000D02*
X48165000Y16610000D01*
X48165000Y13390000D02*
X48165000Y13565000D01*
X48840000Y13390000D02*
X48165000Y13390000D01*
X50710000Y16610000D02*
X51385000Y16610000D01*
X51385000Y16610000D02*
X51385000Y16435000D01*
X51385000Y13565000D02*
X51385000Y13390000D01*
X51385000Y13390000D02*
X50710000Y13390000D01*
X48015000Y16000000D02*
X47685000Y15760000D01*
X47685000Y16240000D01*
X48015000Y16000000D01*
G36*
X48015000Y16000000D02*
G01*
X47685000Y15760000D01*
X47685000Y16240000D01*
X48015000Y16000000D01*
G37*
%TO.C,J8*%
X66390000Y12802500D02*
X66390000Y11552500D01*
X66390000Y11552500D02*
X67640000Y11552500D01*
X66490000Y13612500D02*
X66490000Y13312500D01*
X66490000Y13312500D02*
X66690000Y13312500D01*
X66590000Y13612500D02*
X66590000Y13312500D01*
X66690000Y14412500D02*
X67300000Y14412500D01*
X66690000Y13612500D02*
X66490000Y13612500D01*
X67300000Y29362500D02*
X67300000Y27412500D01*
X67300000Y27412500D02*
X66690000Y27412500D01*
X67300000Y14412500D02*
X67300000Y12462500D01*
X67300000Y12462500D02*
X70800000Y12462500D01*
X68000000Y29972500D02*
X68000000Y29362500D01*
X68000000Y11852500D02*
X68000000Y12462500D01*
X69300000Y29972500D02*
X69300000Y29362500D01*
X69300000Y11852500D02*
X69300000Y12462500D01*
X70300000Y27012500D02*
X70800000Y27012500D01*
X70300000Y26812500D02*
X70300000Y27012500D01*
X70300000Y25012500D02*
X70800000Y25012500D01*
X70300000Y24812500D02*
X70300000Y25012500D01*
X70300000Y23012500D02*
X70800000Y23012500D01*
X70300000Y22812500D02*
X70300000Y23012500D01*
X70300000Y21012500D02*
X70800000Y21012500D01*
X70300000Y20812500D02*
X70300000Y21012500D01*
X70300000Y19012500D02*
X70800000Y19012500D01*
X70300000Y18812500D02*
X70300000Y19012500D01*
X70300000Y17012500D02*
X70800000Y17012500D01*
X70300000Y16812500D02*
X70300000Y17012500D01*
X70300000Y15012500D02*
X70800000Y15012500D01*
X70300000Y14812500D02*
X70300000Y15012500D01*
X70800000Y29362500D02*
X67300000Y29362500D01*
X70800000Y26912500D02*
X70300000Y26912500D01*
X70800000Y26812500D02*
X70300000Y26812500D01*
X70800000Y24912500D02*
X70300000Y24912500D01*
X70800000Y24812500D02*
X70300000Y24812500D01*
X70800000Y22912500D02*
X70300000Y22912500D01*
X70800000Y22812500D02*
X70300000Y22812500D01*
X70800000Y20912500D02*
X70300000Y20912500D01*
X70800000Y20812500D02*
X70300000Y20812500D01*
X70800000Y18912500D02*
X70300000Y18912500D01*
X70800000Y18812500D02*
X70300000Y18812500D01*
X70800000Y16912500D02*
X70300000Y16912500D01*
X70800000Y16812500D02*
X70300000Y16812500D01*
X70800000Y14912500D02*
X70300000Y14912500D01*
X70800000Y14812500D02*
X70300000Y14812500D01*
X70800000Y12462500D02*
X70800000Y29362500D01*
X66690000Y11852500D02*
X71410000Y11852500D01*
X71410000Y29972500D01*
X66690000Y29972500D01*
X66690000Y11852500D01*
%TO.C,R1*%
X23504724Y31522500D02*
X22995276Y31522500D01*
X23504724Y30477500D02*
X22995276Y30477500D01*
%TO.C,C2*%
X28146267Y33760000D02*
X27853733Y33760000D01*
X28146267Y32740000D02*
X27853733Y32740000D01*
%TO.C,D2*%
X2112500Y30265000D02*
X4572500Y30265000D01*
X4572500Y31735000D02*
X2112500Y31735000D01*
X4572500Y30265000D02*
X4572500Y31735000D01*
%TO.C,C22*%
X54990000Y29896267D02*
X54990000Y29603733D01*
X56010000Y29896267D02*
X56010000Y29603733D01*
%TO.C,R19*%
X38245276Y21522500D02*
X38754724Y21522500D01*
X38245276Y20477500D02*
X38754724Y20477500D01*
%TO.C,C8*%
X23890000Y44634165D02*
X23890000Y44865835D01*
X24610000Y44634165D02*
X24610000Y44865835D01*
%TO.C,R12*%
X25727500Y18842224D02*
X25727500Y18332776D01*
X26772500Y18842224D02*
X26772500Y18332776D01*
%TO.C,R13*%
X29227500Y18754724D02*
X29227500Y18245276D01*
X30272500Y18754724D02*
X30272500Y18245276D01*
%TO.C,TP1*%
X47300000Y9800000D02*
G75*
G02*
X45900000Y9800000I-700000J0D01*
G01*
X45900000Y9800000D02*
G75*
G02*
X47300000Y9800000I700000J0D01*
G01*
%TO.C,R3*%
X2745276Y33022500D02*
X3254724Y33022500D01*
X2745276Y31977500D02*
X3254724Y31977500D01*
%TO.C,C14*%
X51884165Y23860000D02*
X52115835Y23860000D01*
X51884165Y23140000D02*
X52115835Y23140000D01*
%TO.C,SW3*%
X1430000Y39570000D02*
X1730000Y39570000D01*
X1430000Y35430000D02*
X1430000Y39570000D01*
X1730000Y35430000D02*
X1430000Y35430000D01*
X4270000Y39570000D02*
X4570000Y39570000D01*
X4570000Y39570000D02*
X4570000Y35430000D01*
X4570000Y35430000D02*
X4270000Y35430000D01*
%TO.C,R4*%
X5995276Y16272500D02*
X6504724Y16272500D01*
X5995276Y15227500D02*
X6504724Y15227500D01*
%TO.C,D8*%
X28790000Y23275000D02*
X28790000Y20415000D01*
X28790000Y20415000D02*
X30710000Y20415000D01*
X30710000Y20415000D02*
X30710000Y23275000D01*
%TO.C,C16*%
X48409165Y17610000D02*
X48640835Y17610000D01*
X48409165Y16890000D02*
X48640835Y16890000D01*
%TO.C,C4*%
X66490000Y34266233D02*
X66490000Y34558767D01*
X67510000Y34266233D02*
X67510000Y34558767D01*
%TO.C,C20*%
X40640000Y24384165D02*
X40640000Y24615835D01*
X41360000Y24384165D02*
X41360000Y24615835D01*
%TO.C,C12*%
X53238748Y21485000D02*
X53761252Y21485000D01*
X53238748Y20015000D02*
X53761252Y20015000D01*
%TO.C,R10*%
X18227500Y16004724D02*
X18227500Y15495276D01*
X19272500Y16004724D02*
X19272500Y15495276D01*
%TO.C,TP5*%
X70900000Y33800000D02*
G75*
G02*
X69500000Y33800000I-700000J0D01*
G01*
X69500000Y33800000D02*
G75*
G02*
X70900000Y33800000I700000J0D01*
G01*
%TO.C,R7*%
X31495276Y32022500D02*
X32004724Y32022500D01*
X31495276Y30977500D02*
X32004724Y30977500D01*
%TO.C,U6*%
X15890000Y23860000D02*
X16615000Y23860000D01*
X15890000Y23135000D02*
X15890000Y23860000D01*
X15890000Y18640000D02*
X15890000Y19365000D01*
X16615000Y18640000D02*
X15890000Y18640000D01*
X20385000Y23860000D02*
X21110000Y23860000D01*
X21110000Y23860000D02*
X21110000Y23135000D01*
X21110000Y19365000D02*
X21110000Y18640000D01*
X21110000Y18640000D02*
X20385000Y18640000D01*
X15390000Y22750000D02*
X15060000Y22510000D01*
X15060000Y22990000D01*
X15390000Y22750000D01*
G36*
X15390000Y22750000D02*
G01*
X15060000Y22510000D01*
X15060000Y22990000D01*
X15390000Y22750000D01*
G37*
%TO.C,R5*%
X5495276Y28772500D02*
X6004724Y28772500D01*
X5495276Y27727500D02*
X6004724Y27727500D01*
%TO.C,R8*%
X57995276Y18645000D02*
X58504724Y18645000D01*
X57995276Y17600000D02*
X58504724Y17600000D01*
%TO.C,C3*%
X23890000Y41365835D02*
X23890000Y41134165D01*
X24610000Y41365835D02*
X24610000Y41134165D01*
%TO.C,D4*%
X49290000Y46250000D02*
X49290000Y43390000D01*
X49290000Y43390000D02*
X51210000Y43390000D01*
X51210000Y43390000D02*
X51210000Y46250000D01*
%TO.C,C18*%
X43634165Y33860000D02*
X43865835Y33860000D01*
X43634165Y33140000D02*
X43865835Y33140000D01*
%TO.C,U4*%
X29900000Y48160000D02*
X33660000Y48160000D01*
X29900000Y41340000D02*
X33660000Y41340000D01*
X33660000Y48160000D02*
X33660000Y46900000D01*
X33660000Y41340000D02*
X33660000Y42600000D01*
X28620000Y48060000D02*
X28380000Y48390000D01*
X28860000Y48390000D01*
X28620000Y48060000D01*
G36*
X28620000Y48060000D02*
G01*
X28380000Y48390000D01*
X28860000Y48390000D01*
X28620000Y48060000D01*
G37*
%TO.C,U7*%
X43390000Y31360000D02*
X43840000Y31360000D01*
X43390000Y30910000D02*
X43390000Y31360000D01*
X43390000Y24140000D02*
X43390000Y24590000D01*
X43840000Y24140000D02*
X43390000Y24140000D01*
X50160000Y31360000D02*
X50610000Y31360000D01*
X50610000Y31360000D02*
X50610000Y30910000D01*
X50610000Y24590000D02*
X50610000Y24140000D01*
X50610000Y24140000D02*
X50160000Y24140000D01*
X51590000Y24120000D02*
X50910000Y24120000D01*
X51250000Y24590000D01*
X51590000Y24120000D01*
G36*
X51590000Y24120000D02*
G01*
X50910000Y24120000D01*
X51250000Y24590000D01*
X51590000Y24120000D01*
G37*
%TO.C,R16*%
X51727500Y44995276D02*
X51727500Y45504724D01*
X52772500Y44995276D02*
X52772500Y45504724D01*
%TO.C,R17*%
X43932776Y14772500D02*
X44442224Y14772500D01*
X43932776Y13727500D02*
X44442224Y13727500D01*
%TO.C,Y1*%
X58375000Y27175000D02*
X58375000Y25825000D01*
X60125000Y27175000D02*
X60125000Y25825000D01*
%TO.C,C15*%
X12384165Y24610000D02*
X12615835Y24610000D01*
X12384165Y23890000D02*
X12615835Y23890000D01*
%TO.C,BZ1*%
X29040000Y6440000D02*
X29040000Y2110000D01*
X30260000Y6440000D02*
X30260000Y2110000D01*
X32640000Y6440000D02*
X32640000Y2110000D01*
X33860000Y6440000D02*
X33860000Y2110000D01*
%TO.C,R21*%
X18227500Y11745276D02*
X18227500Y12254724D01*
X19272500Y11745276D02*
X19272500Y12254724D01*
%TO.C,D6*%
X1202500Y13960000D02*
X1202500Y12040000D01*
X1202500Y12040000D02*
X4062500Y12040000D01*
X4062500Y13960000D02*
X1202500Y13960000D01*
%TO.C,U3*%
X46275000Y18110000D02*
X44775000Y18110000D01*
X46275000Y16390000D02*
X44775000Y16390000D01*
X46725000Y16370000D02*
X46725000Y16650000D01*
X47005000Y16650000D01*
X46725000Y16370000D01*
G36*
X46725000Y16370000D02*
G01*
X46725000Y16650000D01*
X47005000Y16650000D01*
X46725000Y16370000D01*
G37*
%TO.C,SW2*%
X57680000Y12482500D02*
X61820000Y12482500D01*
X57680000Y12182500D02*
X57680000Y12482500D01*
X57680000Y9342500D02*
X57680000Y9642500D01*
X61820000Y12482500D02*
X61820000Y12182500D01*
X61820000Y9642500D02*
X61820000Y9342500D01*
X61820000Y9342500D02*
X57680000Y9342500D01*
%TO.C,C10*%
X62216233Y25510000D02*
X62508767Y25510000D01*
X62216233Y24490000D02*
X62508767Y24490000D01*
%TO.C,R18*%
X38727500Y44745276D02*
X38727500Y45254724D01*
X39772500Y44745276D02*
X39772500Y45254724D01*
%TO.C,R2*%
X22995276Y28772500D02*
X23504724Y28772500D01*
X22995276Y27727500D02*
X23504724Y27727500D01*
%TO.C,TP4*%
X65500000Y10400000D02*
G75*
G02*
X64100000Y10400000I-700000J0D01*
G01*
X64100000Y10400000D02*
G75*
G02*
X65500000Y10400000I700000J0D01*
G01*
%TO.C,C6*%
X12488748Y26485000D02*
X13011252Y26485000D01*
X12488748Y25015000D02*
X13011252Y25015000D01*
%TO.C,R6*%
X4977500Y38495276D02*
X4977500Y39004724D01*
X6022500Y38495276D02*
X6022500Y39004724D01*
%TO.C,R23*%
X13754724Y10772500D02*
X13245276Y10772500D01*
X13754724Y9727500D02*
X13245276Y9727500D01*
%TO.C,R14*%
X43727500Y44832776D02*
X43727500Y45342224D01*
X44772500Y44832776D02*
X44772500Y45342224D01*
%TO.C,J6*%
X60620000Y22042500D02*
X62000000Y22042500D01*
X60620000Y20662500D02*
X60620000Y22042500D01*
X60620000Y19392500D02*
X60620000Y14202500D01*
X60620000Y19392500D02*
X63380000Y19392500D01*
X60620000Y14202500D02*
X63380000Y14202500D01*
X63380000Y19392500D02*
X63380000Y14202500D01*
%TO.C,D5*%
X32610000Y12050000D02*
X29950000Y12050000D01*
X32610000Y10350000D02*
X29950000Y10350000D01*
X32610000Y10350000D02*
X32610000Y12050000D01*
%TO.C,TP3*%
X65700000Y29200000D02*
G75*
G02*
X64300000Y29200000I-700000J0D01*
G01*
X64300000Y29200000D02*
G75*
G02*
X65700000Y29200000I700000J0D01*
G01*
%TO.C,C11*%
X12015000Y15261252D02*
X12015000Y14738748D01*
X13485000Y15261252D02*
X13485000Y14738748D01*
%TO.C,J7*%
X43620000Y38120000D02*
X43620000Y39500000D01*
X45000000Y38120000D02*
X43620000Y38120000D01*
X46270000Y40880000D02*
X51460000Y40880000D01*
X46270000Y38120000D02*
X46270000Y40880000D01*
X46270000Y38120000D02*
X51460000Y38120000D01*
X51460000Y38120000D02*
X51460000Y40880000D01*
%TO.C,C17*%
X43415000Y17365835D02*
X43415000Y17134165D01*
X44135000Y17365835D02*
X44135000Y17134165D01*
%TO.C,U2*%
X27020748Y32160000D02*
X28860000Y32160000D01*
X28860000Y29840000D02*
X26640000Y29840000D01*
X26730000Y32170000D02*
X26590000Y32360000D01*
X26870000Y32360000D01*
X26730000Y32170000D01*
G36*
X26730000Y32170000D02*
G01*
X26590000Y32360000D01*
X26870000Y32360000D01*
X26730000Y32170000D01*
G37*
%TO.C,C21*%
X14140000Y17615835D02*
X14140000Y17384165D01*
X14860000Y17615835D02*
X14860000Y17384165D01*
%TO.C,D3*%
X40040000Y46860000D02*
X40040000Y44000000D01*
X41960000Y46860000D02*
X40040000Y46860000D01*
X41960000Y44000000D02*
X41960000Y46860000D01*
%TO.C,D1*%
X45015000Y46660000D02*
X45015000Y44200000D01*
X46485000Y46660000D02*
X45015000Y46660000D01*
X46485000Y44200000D02*
X46485000Y46660000D01*
%TO.C,R15*%
X50504724Y11522500D02*
X49995276Y11522500D01*
X50504724Y10477500D02*
X49995276Y10477500D01*
%TO.C,R20*%
X46277500Y35504724D02*
X46277500Y34995276D01*
X47322500Y35504724D02*
X47322500Y34995276D01*
%TO.C,FB1*%
X9412779Y24760000D02*
X9087221Y24760000D01*
X9412779Y23740000D02*
X9087221Y23740000D01*
%TD*%
%LPC*%
D17*
%TO.C,C9*%
X26000000Y44687500D03*
X26000000Y47812500D03*
%TD*%
D18*
%TO.C,BT1*%
X17300000Y48190000D03*
X12700000Y48190000D03*
D19*
X17300000Y35590000D03*
D20*
X12700000Y35590000D03*
%TD*%
D21*
%TO.C,C13*%
X61387500Y27500000D03*
X63112500Y27500000D03*
%TD*%
D22*
%TO.C,C7*%
X67000000Y38550000D03*
X67000000Y40275000D03*
%TD*%
D23*
%TO.C,C1*%
X25112500Y32500000D03*
X23387500Y32500000D03*
%TD*%
D24*
%TO.C,Q1*%
X36000000Y14500000D03*
X34100000Y14500000D03*
X35050000Y12625000D03*
%TD*%
D25*
%TO.C,J1*%
X5605000Y24890000D03*
X5605000Y19110000D03*
D26*
X6680000Y25200000D03*
X6680000Y24400000D03*
D27*
X6680000Y23250000D03*
X6680000Y22250000D03*
X6680000Y21750000D03*
X6680000Y20750000D03*
D26*
X6680000Y19600000D03*
X6680000Y18800000D03*
X6680000Y18800000D03*
X6680000Y19600000D03*
D27*
X6680000Y20250000D03*
X6680000Y21250000D03*
X6680000Y22750000D03*
X6680000Y23750000D03*
D26*
X6680000Y24400000D03*
X6680000Y25200000D03*
D28*
X6105000Y26320000D03*
D29*
X1925000Y26320000D03*
D28*
X6105000Y17680000D03*
D29*
X1925000Y17680000D03*
%TD*%
D30*
%TO.C,U1*%
X10250000Y20950000D03*
X10250000Y20000000D03*
X10250000Y19050000D03*
X12525000Y19050000D03*
X12525000Y20000000D03*
X12525000Y20950000D03*
%TD*%
D31*
%TO.C,TP2*%
X41200000Y10600000D03*
%TD*%
D32*
%TO.C,J3*%
X39250000Y3800000D03*
D33*
X41250000Y3800000D03*
X43250000Y3800000D03*
X45250000Y3800000D03*
%TD*%
D34*
%TO.C,R9*%
X3750000Y11250000D03*
X1925000Y11250000D03*
%TD*%
D35*
%TO.C,C5*%
X26000000Y42562500D03*
X26000000Y39437500D03*
%TD*%
D36*
%TO.C,D7*%
X26250000Y21225000D03*
X26250000Y23275000D03*
%TD*%
D37*
%TO.C,C19*%
X52775000Y16612500D03*
X52775000Y14887500D03*
%TD*%
D38*
%TO.C,R11*%
X21500000Y16412500D03*
X21500000Y14587500D03*
%TD*%
D39*
%TO.C,SW1*%
X61100000Y43400000D03*
X56900000Y43400000D03*
%TD*%
D40*
%TO.C,R22*%
X9087500Y10250000D03*
X10912500Y10250000D03*
%TD*%
D41*
%TO.C,M3*%
X65797056Y46715444D03*
X66500000Y48412500D03*
X66500000Y45018388D03*
X68197056Y49115444D03*
D42*
X68197056Y46715444D03*
D41*
X68197056Y44315444D03*
X69894112Y48412500D03*
X69894112Y45018388D03*
X70597056Y46715444D03*
%TD*%
D43*
%TO.C,C25*%
X50567500Y22000000D03*
X49432500Y22000000D03*
%TD*%
D44*
%TO.C,C24*%
X53750000Y30537500D03*
X53750000Y28462500D03*
%TD*%
D45*
%TO.C,Y2*%
X64000000Y34062500D03*
X64000000Y39262500D03*
%TD*%
D46*
%TO.C,U5*%
X48550000Y16000000D03*
X48550000Y15500000D03*
X48550000Y15000000D03*
X48550000Y14500000D03*
X48550000Y14000000D03*
D47*
X49275000Y13775000D03*
X49775000Y13775000D03*
X50275000Y13775000D03*
D46*
X51000000Y14000000D03*
X51000000Y14500000D03*
X51000000Y15000000D03*
X51000000Y15500000D03*
X51000000Y16000000D03*
D47*
X50275000Y16225000D03*
X49775000Y16225000D03*
X49275000Y16225000D03*
%TD*%
D48*
%TO.C,J8*%
X68500000Y13912500D03*
D49*
X68500000Y15912500D03*
X68500000Y17912500D03*
X68500000Y19912500D03*
X68500000Y21912500D03*
X68500000Y23912500D03*
X68500000Y25912500D03*
X68500000Y27912500D03*
%TD*%
D34*
%TO.C,R1*%
X24162500Y31000000D03*
X22337500Y31000000D03*
%TD*%
D23*
%TO.C,C2*%
X28862500Y33250000D03*
X27137500Y33250000D03*
%TD*%
D50*
%TO.C,D2*%
X3787500Y31000000D03*
X2037500Y31000000D03*
%TD*%
D37*
%TO.C,C22*%
X55500000Y30612500D03*
X55500000Y28887500D03*
%TD*%
D40*
%TO.C,R19*%
X37587500Y21000000D03*
X39412500Y21000000D03*
%TD*%
D51*
%TO.C,C8*%
X24250000Y44182500D03*
X24250000Y45317500D03*
%TD*%
D38*
%TO.C,R12*%
X26250000Y19500000D03*
X26250000Y17675000D03*
%TD*%
%TO.C,R13*%
X29750000Y19412500D03*
X29750000Y17587500D03*
%TD*%
D31*
%TO.C,TP1*%
X46600000Y9800000D03*
%TD*%
D40*
%TO.C,R3*%
X2087500Y32500000D03*
X3912500Y32500000D03*
%TD*%
D52*
%TO.C,C14*%
X51432500Y23500000D03*
X52567500Y23500000D03*
%TD*%
D53*
%TO.C,SW3*%
X3000000Y39600000D03*
X3000000Y35400000D03*
%TD*%
D54*
%TO.C,FID1*%
X9750000Y3750000D03*
%TD*%
D40*
%TO.C,R4*%
X5337500Y15750000D03*
X7162500Y15750000D03*
%TD*%
D36*
%TO.C,D8*%
X29750000Y21250000D03*
X29750000Y23300000D03*
%TD*%
D41*
%TO.C,M2*%
X2100000Y45500000D03*
X2802944Y47197056D03*
X2802944Y43802944D03*
X4500000Y47900000D03*
D42*
X4500000Y45500000D03*
D41*
X4500000Y43100000D03*
X6197056Y47197056D03*
X6197056Y43802944D03*
X6900000Y45500000D03*
%TD*%
D52*
%TO.C,C16*%
X47957500Y17250000D03*
X49092500Y17250000D03*
%TD*%
D22*
%TO.C,C4*%
X67000000Y33550000D03*
X67000000Y35275000D03*
%TD*%
D51*
%TO.C,C20*%
X41000000Y23932500D03*
X41000000Y25067500D03*
%TD*%
D54*
%TO.C,FID3*%
X62750000Y47000000D03*
%TD*%
D55*
%TO.C,C12*%
X52462500Y20750000D03*
X54537500Y20750000D03*
%TD*%
D38*
%TO.C,R10*%
X18750000Y16662500D03*
X18750000Y14837500D03*
%TD*%
D31*
%TO.C,TP5*%
X70200000Y33800000D03*
%TD*%
D40*
%TO.C,R7*%
X30837500Y31500000D03*
X32662500Y31500000D03*
%TD*%
D56*
%TO.C,U6*%
X16050000Y22750000D03*
X16050000Y22250000D03*
X16050000Y21750000D03*
X16050000Y21250000D03*
X16050000Y20750000D03*
X16050000Y20250000D03*
X16050000Y19750000D03*
D57*
X17000000Y18800000D03*
X17500000Y18800000D03*
X18000000Y18800000D03*
X18500000Y18800000D03*
X19000000Y18800000D03*
X19500000Y18800000D03*
X20000000Y18800000D03*
D56*
X20950000Y19750000D03*
X20950000Y20250000D03*
X20950000Y20750000D03*
X20950000Y21250000D03*
X20950000Y21750000D03*
X20950000Y22250000D03*
X20950000Y22750000D03*
D57*
X20000000Y23700000D03*
X19500000Y23700000D03*
X19000000Y23700000D03*
X18500000Y23700000D03*
X18000000Y23700000D03*
X17500000Y23700000D03*
X17000000Y23700000D03*
D58*
X18500000Y21250000D03*
%TD*%
D41*
%TO.C,M1*%
X1902944Y4197056D03*
X2605888Y5894112D03*
X2605888Y2500000D03*
X4302944Y6597056D03*
D42*
X4302944Y4197056D03*
D41*
X4302944Y1797056D03*
X6000000Y5894112D03*
X6000000Y2500000D03*
X6702944Y4197056D03*
%TD*%
D40*
%TO.C,R5*%
X4837500Y28250000D03*
X6662500Y28250000D03*
%TD*%
%TO.C,R8*%
X57337500Y18122500D03*
X59162500Y18122500D03*
%TD*%
D59*
%TO.C,C3*%
X24250000Y41817500D03*
X24250000Y40682500D03*
%TD*%
D36*
%TO.C,D4*%
X50250000Y44225000D03*
X50250000Y46275000D03*
%TD*%
D52*
%TO.C,C18*%
X43182500Y33500000D03*
X44317500Y33500000D03*
%TD*%
D60*
%TO.C,U4*%
X28600000Y47050000D03*
X28600000Y44750000D03*
D61*
X34900000Y44750000D03*
D60*
X28600000Y42450000D03*
%TD*%
D62*
%TO.C,U7*%
X51162500Y25000000D03*
X51162500Y25500000D03*
X51162500Y26000000D03*
X51162500Y26500000D03*
X51162500Y27000000D03*
X51162500Y27500000D03*
X51162500Y28000000D03*
X51162500Y28500000D03*
X51162500Y29000000D03*
X51162500Y29500000D03*
X51162500Y30000000D03*
X51162500Y30500000D03*
D63*
X49750000Y31912500D03*
X49250000Y31912500D03*
X48750000Y31912500D03*
X48250000Y31912500D03*
X47750000Y31912500D03*
X47250000Y31912500D03*
X46750000Y31912500D03*
X46250000Y31912500D03*
X45750000Y31912500D03*
X45250000Y31912500D03*
X44750000Y31912500D03*
X44250000Y31912500D03*
D62*
X42837500Y30500000D03*
X42837500Y30000000D03*
X42837500Y29500000D03*
X42837500Y29000000D03*
X42837500Y28500000D03*
X42837500Y28000000D03*
X42837500Y27500000D03*
X42837500Y27000000D03*
X42837500Y26500000D03*
X42837500Y26000000D03*
X42837500Y25500000D03*
X42837500Y25000000D03*
D63*
X44250000Y23587500D03*
X44750000Y23587500D03*
X45250000Y23587500D03*
X45750000Y23587500D03*
X46250000Y23587500D03*
X46750000Y23587500D03*
X47250000Y23587500D03*
X47750000Y23587500D03*
X48250000Y23587500D03*
X48750000Y23587500D03*
X49250000Y23587500D03*
X49750000Y23587500D03*
%TD*%
D64*
%TO.C,R16*%
X52250000Y44337500D03*
X52250000Y46162500D03*
%TD*%
D40*
%TO.C,R17*%
X43275000Y14250000D03*
X45100000Y14250000D03*
%TD*%
D65*
%TO.C,Y1*%
X59250000Y25250000D03*
X59250000Y27750000D03*
%TD*%
D52*
%TO.C,C15*%
X11932500Y24250000D03*
X13067500Y24250000D03*
%TD*%
D66*
%TO.C,BZ1*%
X29650000Y1500000D03*
X33250000Y1500000D03*
D67*
X29650000Y7500000D03*
D68*
X33250000Y7500000D03*
%TD*%
D64*
%TO.C,R21*%
X18750000Y11087500D03*
X18750000Y12912500D03*
%TD*%
D69*
%TO.C,D6*%
X2037500Y13000000D03*
X4087500Y13000000D03*
%TD*%
D54*
%TO.C,FID2*%
X62750000Y5162500D03*
%TD*%
D70*
%TO.C,U3*%
X46225000Y16850000D03*
X46225000Y17650000D03*
X44825000Y17650000D03*
X44825000Y16850000D03*
%TD*%
D39*
%TO.C,SW2*%
X61850000Y10912500D03*
X57650000Y10912500D03*
%TD*%
D21*
%TO.C,C10*%
X61500000Y25000000D03*
X63225000Y25000000D03*
%TD*%
D64*
%TO.C,R18*%
X39250000Y44087500D03*
X39250000Y45912500D03*
%TD*%
D40*
%TO.C,R2*%
X22337500Y28250000D03*
X24162500Y28250000D03*
%TD*%
D31*
%TO.C,TP4*%
X64800000Y10400000D03*
%TD*%
D55*
%TO.C,C6*%
X11712500Y25750000D03*
X13787500Y25750000D03*
%TD*%
D64*
%TO.C,R6*%
X5500000Y37837500D03*
X5500000Y39662500D03*
%TD*%
D34*
%TO.C,R23*%
X14412500Y10250000D03*
X12587500Y10250000D03*
%TD*%
D64*
%TO.C,R14*%
X44250000Y44175000D03*
X44250000Y46000000D03*
%TD*%
D71*
%TO.C,J6*%
X62000000Y20662500D03*
D72*
X62000000Y18122500D03*
X62000000Y15582500D03*
%TD*%
D73*
%TO.C,D5*%
X32050000Y11200000D03*
X29950000Y11200000D03*
%TD*%
D31*
%TO.C,TP3*%
X65000000Y29200000D03*
%TD*%
D41*
%TO.C,M4*%
X65797056Y5215444D03*
X66500000Y6912500D03*
X66500000Y3518388D03*
X68197056Y7615444D03*
D42*
X68197056Y5215444D03*
D41*
X68197056Y2815444D03*
X69894112Y6912500D03*
X69894112Y3518388D03*
X70597056Y5215444D03*
%TD*%
D44*
%TO.C,C11*%
X12750000Y16037500D03*
X12750000Y13962500D03*
%TD*%
D71*
%TO.C,J7*%
X45000000Y39500000D03*
D72*
X47540000Y39500000D03*
X50080000Y39500000D03*
%TD*%
D59*
%TO.C,C17*%
X43775000Y17817500D03*
X43775000Y16682500D03*
%TD*%
D74*
%TO.C,U2*%
X26737500Y31800000D03*
X26737500Y31400000D03*
X26737500Y31000000D03*
X26737500Y30600000D03*
X26737500Y30200000D03*
X28762500Y30200000D03*
X28762500Y30600000D03*
X28762500Y31000000D03*
X28762500Y31400000D03*
X28762500Y31800000D03*
D75*
X27750000Y31000000D03*
%TD*%
D59*
%TO.C,C21*%
X14500000Y18067500D03*
X14500000Y16932500D03*
%TD*%
D76*
%TO.C,D3*%
X41000000Y46025000D03*
X41000000Y43975000D03*
%TD*%
D77*
%TO.C,D1*%
X45750000Y45875000D03*
X45750000Y44125000D03*
%TD*%
D34*
%TO.C,R15*%
X51162500Y11000000D03*
X49337500Y11000000D03*
%TD*%
D38*
%TO.C,R20*%
X46800000Y36162500D03*
X46800000Y34337500D03*
%TD*%
D78*
%TO.C,FB1*%
X10037500Y24250000D03*
X8462500Y24250000D03*
%TD*%
%LPD*%
M02*
