M48
; DRILL file {KiCad 9.0.8-9.0.8~ubuntu24.04.1} date 2026-03-28T11:04:20+0000
; FORMAT={-:-/ absolute / metric / decimal}
; #@! TF.CreationDate,2026-03-28T11:04:20+00:00
; #@! TF.GenerationSoftware,Kicad,Pcbnew,9.0.8-9.0.8~ubuntu24.04.1
; #@! TF.FileFunction,MixedPlating,1,2
FMAT,2
METRIC
; #@! TA.AperFunction,Plated,PTH,ComponentDrill
T1C0.200
; #@! TA.AperFunction,Plated,PTH,ViaDrill
T2C0.300
; #@! TA.AperFunction,Plated,PTH,ComponentDrill
T3C0.500
; #@! TA.AperFunction,Plated,PTH,ComponentDrill
T4C0.600
; #@! TA.AperFunction,Plated,PTH,ComponentDrill
T5C0.750
; #@! TA.AperFunction,Plated,PTH,ComponentDrill
T6C1.000
; #@! TA.AperFunction,Plated,PTH,ComponentDrill
T7C1.150
; #@! TA.AperFunction,Plated,PTH,ComponentDrill
T8C3.200
; #@! TA.AperFunction,NonPlated,NPTH,ComponentDrill
T9C0.650
; #@! TA.AperFunction,NonPlated,NPTH,ComponentDrill
T10C1.500
; #@! TA.AperFunction,NonPlated,NPTH,ComponentDrill
T11C2.600
%
G90
G05
T1
X27.75Y31.5
X27.75Y30.5
T2
X1.2Y9.4
X1.8Y41.4
X1.8Y15.6
X4.4Y41.2
X5.2Y22.1
X5.4Y20.85
X6.0Y31.0
X6.5Y13.0
X6.8Y32.5
X8.2Y19.8
X8.4Y39.8
X8.4Y35.8
X8.6Y42.0
X9.0Y25.6
X9.2Y48.2
X9.2Y44.8
X9.2Y12.0
X11.2Y27.5
X11.2Y17.8
X11.591Y22.209
X11.6Y30.6
X12.6Y4.6
X13.8Y2.0
X16.0Y31.4
X16.6Y5.0
X17.4Y2.0
X18.0Y26.25
X19.6Y6.2
X21.0Y47.2
X21.2Y4.0
X21.4Y8.2
X22.2Y45.8
X22.6Y48.4
X22.8Y6.6
X23.0Y1.8
X23.2Y19.0
X23.4Y12.8
X23.8Y9.2
X24.6Y15.4
X26.0Y29.25
X26.2Y8.6
X26.2Y5.2
X26.4Y2.6
X26.8Y13.8
X28.0Y40.0
X28.2Y15.6
X29.2Y13.0
X29.6Y38.2
X30.25Y30.0
X30.4Y34.8
X30.8Y14.4
X31.8Y37.4
X32.2Y19.2
X32.4Y23.2
X33.0Y39.4
X33.6Y34.4
X34.0Y21.6
X34.0Y17.0
X34.6Y29.8
X35.0Y40.0
X35.0Y9.2
X35.6Y5.4
X36.0Y23.2
X36.4Y6.8
X37.0Y10.8
X37.6Y16.8
X38.5Y27.25
X38.8Y23.4
X39.6Y37.0
X39.8Y31.6
X40.8Y35.4
X41.2Y14.2
X42.6Y40.6
X42.6Y22.4
X42.6Y16.6
X42.8Y46.4
X42.8Y17.8
X43.0Y35.2
X44.4Y20.6
X45.0Y26.0
X45.2Y21.4
X45.6Y29.4
X45.8Y27.4
X47.0Y17.4
X47.25Y18.75
X47.38Y15.175
X47.85Y19.8
X48.2Y12.6
X48.4Y26.0
X48.6Y37.2
X48.6Y29.2
X49.0Y18.4
X49.2Y36.4
X49.6Y5.4
X49.8Y1.6
X50.0Y15.2
X50.0Y12.5
X50.049Y36.4
X50.8Y20.6
X51.162Y12.2
X51.6Y17.8
X51.8Y35.6
X52.4Y33.0
X52.8Y39.6
X53.8Y43.4
X54.0Y10.0
X55.2Y24.4
X55.4Y48.8
X55.8Y22.4
X55.8Y1.2
X56.0Y10.8
X56.4Y16.6
X56.4Y14.4
X57.0Y46.8
X57.0Y40.8
X58.2Y33.6
X58.2Y14.6
X58.4Y30.4
X58.8Y20.2
X59.0Y22.6
X59.2Y48.4
X59.4Y15.6
X59.6Y39.8
X59.6Y5.0
X59.8Y32.4
X60.2Y2.8
X62.0Y26.2
X62.8Y29.2
X63.5Y13.9
X63.6Y43.8
X64.6Y1.4
X65.8Y16.8
X67.432Y41.712
X70.0Y31.6
X70.6Y9.6
T3
X1.903Y4.197
X2.1Y45.5
X2.606Y5.894
X2.606Y2.5
X2.803Y47.197
X2.803Y43.803
X4.303Y6.597
X4.303Y1.797
X4.5Y47.9
X4.5Y43.1
X6.0Y5.894
X6.0Y2.5
X6.197Y47.197
X6.197Y43.803
X6.703Y4.197
X6.9Y45.5
X65.797Y46.715
X65.797Y5.215
X66.5Y48.412
X66.5Y45.018
X66.5Y6.912
X66.5Y3.518
X68.197Y49.115
X68.197Y44.315
X68.197Y7.615
X68.197Y2.815
X69.894Y48.412
X69.894Y45.018
X69.894Y6.912
X69.894Y3.518
X70.597Y46.715
X70.597Y5.215
T4
X29.65Y7.5
X33.25Y7.5
T5
X39.25Y3.8
X41.25Y3.8
X43.25Y3.8
X45.25Y3.8
X68.5Y27.912
X68.5Y25.912
X68.5Y23.912
X68.5Y21.912
X68.5Y19.912
X68.5Y17.912
X68.5Y15.912
X68.5Y13.912
T6
X45.0Y39.5
X47.54Y39.5
X50.08Y39.5
X62.0Y20.662
X62.0Y18.122
X62.0Y15.582
T7
X12.7Y35.59
X17.3Y35.59
T8
X4.303Y4.197
X4.5Y45.5
X68.197Y46.715
X68.197Y5.215
T9
X5.605Y24.89
X5.605Y19.11
T10
X29.65Y1.5
X33.25Y1.5
T11
X12.7Y48.19
X17.3Y48.19
T4
G00X2.325Y26.32
M15
G01X1.525Y26.32
M16
G05
G00X2.325Y17.68
M15
G01X1.525Y17.68
M16
G05
G00X6.655Y26.32
M15
G01X5.555Y26.32
M16
G05
G00X6.655Y17.68
M15
G01X5.555Y17.68
M16
G05
M30
