%TF.GenerationSoftware,KiCad,Pcbnew,9.0.8-9.0.8~ubuntu24.04.1*%
%TF.CreationDate,2026-03-28T11:04:09+00:00*%
%TF.ProjectId,azrael,617a7261-656c-42e6-9b69-6361645f7063,rev?*%
%TF.SameCoordinates,PX30291a0PY5f21070*%
%TF.FileFunction,Copper,L2,Bot*%
%TF.FilePolarity,Positive*%
%FSLAX46Y46*%
G04 Gerber Fmt 4.6, Leading zero omitted, Abs format (unit mm)*
G04 Created by KiCad (PCBNEW 9.0.8-9.0.8~ubuntu24.04.1) date 2026-03-28 11:04:09*
%MOMM*%
%LPD*%
G01*
G04 APERTURE LIST*
G04 Aperture macros list*
%AMRoundRect*
0 Rectangle with rounded corners*
0 $1 Rounding radius*
0 $2 $3 $4 $5 $6 $7 $8 $9 X,Y pos of 4 corners*
0 Add a 4 corners polygon primitive as box body*
4,1,4,$2,$3,$4,$5,$6,$7,$8,$9,$2,$3,0*
0 Add four circle primitives for the rounded corners*
1,1,$1+$1,$2,$3*
1,1,$1+$1,$4,$5*
1,1,$1+$1,$6,$7*
1,1,$1+$1,$8,$9*
0 Add four rect primitives between the rounded corners*
20,1,$1+$1,$2,$3,$4,$5,0*
20,1,$1+$1,$4,$5,$6,$7,0*
20,1,$1+$1,$6,$7,$8,$9,0*
20,1,$1+$1,$8,$9,$2,$3,0*%
G04 Aperture macros list end*
%TA.AperFunction,ComponentPad*%
%ADD10RoundRect,0.250000X0.825000X0.825000X-0.825000X0.825000X-0.825000X-0.825000X0.825000X-0.825000X0*%
%TD*%
%TA.AperFunction,ComponentPad*%
%ADD11C,2.150000*%
%TD*%
%TA.AperFunction,HeatsinkPad*%
%ADD12O,2.100000X1.000000*%
%TD*%
%TA.AperFunction,HeatsinkPad*%
%ADD13O,1.800000X1.000000*%
%TD*%
%TA.AperFunction,ComponentPad*%
%ADD14RoundRect,0.250000X-0.350000X-0.625000X0.350000X-0.625000X0.350000X0.625000X-0.350000X0.625000X0*%
%TD*%
%TA.AperFunction,ComponentPad*%
%ADD15O,1.200000X1.750000*%
%TD*%
%TA.AperFunction,ComponentPad*%
%ADD16C,0.800000*%
%TD*%
%TA.AperFunction,ComponentPad*%
%ADD17C,6.400000*%
%TD*%
%TA.AperFunction,ComponentPad*%
%ADD18RoundRect,0.250000X0.625000X-0.350000X0.625000X0.350000X-0.625000X0.350000X-0.625000X-0.350000X0*%
%TD*%
%TA.AperFunction,ComponentPad*%
%ADD19O,1.750000X1.200000*%
%TD*%
%TA.AperFunction,ComponentPad*%
%ADD20RoundRect,0.250000X-0.550000X-0.550000X0.550000X-0.550000X0.550000X0.550000X-0.550000X0.550000X0*%
%TD*%
%TA.AperFunction,ComponentPad*%
%ADD21C,1.600000*%
%TD*%
%TA.AperFunction,ComponentPad*%
%ADD22R,1.700000X1.700000*%
%TD*%
%TA.AperFunction,ComponentPad*%
%ADD23C,1.700000*%
%TD*%
%TA.AperFunction,HeatsinkPad*%
%ADD24C,0.500000*%
%TD*%
%TA.AperFunction,HeatsinkPad*%
%ADD25R,0.500000X1.500000*%
%TD*%
%TA.AperFunction,ViaPad*%
%ADD26C,0.600000*%
%TD*%
%TA.AperFunction,ViaPad*%
%ADD27C,0.700000*%
%TD*%
%TA.AperFunction,Conductor*%
%ADD28C,0.200000*%
%TD*%
%TA.AperFunction,Conductor*%
%ADD29C,1.000000*%
%TD*%
%TA.AperFunction,Conductor*%
%ADD30C,0.750000*%
%TD*%
%TA.AperFunction,Conductor*%
%ADD31C,0.500000*%
%TD*%
%TA.AperFunction,Conductor*%
%ADD32C,0.300000*%
%TD*%
G04 APERTURE END LIST*
D10*
%TO.P,BT1,1,VCC*%
%TO.N,+3V3_UNREG*%
X17300000Y35590000D03*
D11*
%TO.P,BT1,2,VSS*%
%TO.N,GND*%
X12700000Y35590000D03*
%TD*%
D12*
%TO.P,J1,S1,SHIELD*%
%TO.N,GND*%
X6105000Y26320000D03*
D13*
X1925000Y26320000D03*
D12*
X6105000Y17680000D03*
D13*
X1925000Y17680000D03*
%TD*%
D14*
%TO.P,J3,1,Pin_1*%
%TO.N,+3V3*%
X39250000Y3800000D03*
D15*
%TO.P,J3,2,Pin_2*%
%TO.N,/SWD_SWDIO*%
X41250000Y3800000D03*
%TO.P,J3,3,Pin_3*%
%TO.N,/SWD_SWCLK*%
X43250000Y3800000D03*
%TO.P,J3,4,Pin_4*%
%TO.N,GND*%
X45250000Y3800000D03*
%TD*%
D16*
%TO.P,M3,1,1*%
%TO.N,GND*%
X65797056Y46715444D03*
X66500000Y48412500D03*
X66500000Y45018388D03*
X68197056Y49115444D03*
D17*
X68197056Y46715444D03*
D16*
X68197056Y44315444D03*
X69894112Y48412500D03*
X69894112Y45018388D03*
X70597056Y46715444D03*
%TD*%
D18*
%TO.P,J8,1,Pin_1*%
%TO.N,+3V3*%
X68500000Y13912500D03*
D19*
%TO.P,J8,2,Pin_2*%
%TO.N,/SPI_SCK*%
X68500000Y15912500D03*
%TO.P,J8,3,Pin_3*%
%TO.N,/SPI_MOSI*%
X68500000Y17912500D03*
%TO.P,J8,4,Pin_4*%
%TO.N,GND*%
X68500000Y19912500D03*
%TO.P,J8,5,Pin_5*%
%TO.N,/DISP_RST*%
X68500000Y21912500D03*
%TO.P,J8,6,Pin_6*%
%TO.N,/DISP_CS*%
X68500000Y23912500D03*
%TO.P,J8,7,Pin_7*%
%TO.N,GND*%
X68500000Y25912500D03*
%TO.P,J8,8,Pin_8*%
%TO.N,+3V3*%
X68500000Y27912500D03*
%TD*%
D16*
%TO.P,M2,1,1*%
%TO.N,GND*%
X2100000Y45500000D03*
X2802944Y47197056D03*
X2802944Y43802944D03*
X4500000Y47900000D03*
D17*
X4500000Y45500000D03*
D16*
X4500000Y43100000D03*
X6197056Y47197056D03*
X6197056Y43802944D03*
X6900000Y45500000D03*
%TD*%
%TO.P,M1,1,1*%
%TO.N,GND*%
X1902944Y4197056D03*
X2605888Y5894112D03*
X2605888Y2500000D03*
X4302944Y6597056D03*
D17*
X4302944Y4197056D03*
D16*
X4302944Y1797056D03*
X6000000Y5894112D03*
X6000000Y2500000D03*
X6702944Y4197056D03*
%TD*%
D20*
%TO.P,BZ1,1,+*%
%TO.N,+3V3*%
X29650000Y7500000D03*
D21*
%TO.P,BZ1,2,-*%
%TO.N,Net-(BZ1--)*%
X33250000Y7500000D03*
%TD*%
D22*
%TO.P,J6,1,Pin_1*%
%TO.N,+3V3*%
X62000000Y20662500D03*
D23*
%TO.P,J6,2,Pin_2*%
%TO.N,Net-(J6-Pin_2)*%
X62000000Y18122500D03*
%TO.P,J6,3,Pin_3*%
%TO.N,GND*%
X62000000Y15582500D03*
%TD*%
D16*
%TO.P,M4,1,1*%
%TO.N,GND*%
X65797056Y5215444D03*
X66500000Y6912500D03*
X66500000Y3518388D03*
X68197056Y7615444D03*
D17*
X68197056Y5215444D03*
D16*
X68197056Y2815444D03*
X69894112Y6912500D03*
X69894112Y3518388D03*
X70597056Y5215444D03*
%TD*%
D22*
%TO.P,J7,1,Pin_1*%
%TO.N,+3V3*%
X45000000Y39500000D03*
D23*
%TO.P,J7,2,Pin_2*%
%TO.N,Net-(J7-Pin_2)*%
X47540000Y39500000D03*
%TO.P,J7,3,Pin_3*%
%TO.N,GND*%
X50080000Y39500000D03*
%TD*%
D24*
%TO.P,U2,11,PAD*%
%TO.N,GND*%
X27750000Y31500000D03*
D25*
X27750000Y31000000D03*
D24*
X27750000Y30500000D03*
%TD*%
D26*
%TO.N,GND*%
X70000000Y31600000D03*
%TO.N,+3V3*%
X67432406Y41712500D03*
X59600000Y39800000D03*
%TO.N,GND*%
X52400000Y33000000D03*
X47000000Y17400000D03*
X62800000Y29200000D03*
X62000000Y26200000D03*
X65800000Y16800000D03*
%TO.N,+3V3*%
X47379594Y15175000D03*
%TO.N,GND*%
X39800000Y31600000D03*
X42600000Y40600000D03*
X39600000Y37000000D03*
X51800000Y35600000D03*
X57000000Y40800000D03*
X59800000Y32400000D03*
X58200000Y33600000D03*
X58400000Y30400000D03*
X58200000Y14600000D03*
X56400000Y16600000D03*
X56400000Y14400000D03*
X59400000Y15600000D03*
X58800000Y20200000D03*
X55800000Y22400000D03*
X59000000Y22600000D03*
X28000000Y40000000D03*
X33600000Y34400000D03*
X33000000Y39400000D03*
X30400000Y34800000D03*
X11600000Y30600000D03*
X16000000Y31400000D03*
X34600000Y29800000D03*
X16600000Y5000000D03*
X17400000Y2000000D03*
X35000000Y9200000D03*
X35600000Y5400000D03*
X36400000Y6800000D03*
X37000000Y10800000D03*
X54000000Y10000000D03*
X70600000Y9600000D03*
X63600000Y43800000D03*
X55400000Y48800000D03*
X22200000Y45800000D03*
X22600000Y48400000D03*
X4400000Y41200000D03*
X8400000Y39800000D03*
X1800000Y41400000D03*
X8600000Y42000000D03*
X9200000Y44800000D03*
X9200000Y48200000D03*
X59600000Y5000000D03*
X60200000Y2800000D03*
X55800000Y1200000D03*
X64600000Y1400000D03*
X49800000Y1600000D03*
X49600000Y5400000D03*
X12600000Y4600000D03*
X13800000Y2000000D03*
X21200000Y4000000D03*
X23000000Y1800000D03*
X26400000Y2600000D03*
X26200000Y5200000D03*
X22800000Y6600000D03*
X19600000Y6200000D03*
X23800000Y9200000D03*
X26200000Y8600000D03*
X21400000Y8200000D03*
X24600000Y15400000D03*
X29200000Y13000000D03*
X23400000Y12800000D03*
X28200000Y15600000D03*
X23200000Y19000000D03*
X26800000Y13800000D03*
X30800000Y14400000D03*
X34000000Y17000000D03*
X32200000Y19200000D03*
X34000000Y21600000D03*
X32400000Y23200000D03*
X36000000Y23200000D03*
X21000000Y47200000D03*
X29600000Y38200000D03*
X31800000Y37400000D03*
X59200000Y48400000D03*
X53800000Y43400000D03*
X48400000Y26000000D03*
X55200000Y24400000D03*
X52800000Y39600000D03*
X42800000Y46400000D03*
%TO.N,+3V3*%
X63500000Y13900000D03*
X51600000Y17800000D03*
X50800000Y20600000D03*
X51162500Y12200000D03*
X37600000Y16800000D03*
X38800000Y23400000D03*
X41200000Y14200000D03*
X42800000Y17800000D03*
X35000000Y40000000D03*
X40800000Y35400000D03*
%TO.N,GND*%
X1800000Y15600000D03*
X49000000Y18400000D03*
X48200000Y12600000D03*
X42600000Y16600000D03*
X11200000Y27500000D03*
X11200000Y17800000D03*
D27*
%TO.N,+3V3_UNREG*%
X1200000Y9400000D03*
X6800000Y32500000D03*
D26*
%TO.N,VBUS*%
X9200000Y12000000D03*
X11590685Y22209315D03*
%TO.N,VCC_IN*%
X8200000Y19800000D03*
X9000000Y25600000D03*
%TO.N,Net-(D2-K)*%
X6000000Y31000000D03*
X26000000Y29250000D03*
%TO.N,Net-(D6-K)*%
X6500000Y13000000D03*
X30250000Y30000000D03*
%TO.N,/USBIN_D+*%
X5200000Y22100000D03*
X5400000Y20850000D03*
%TO.N,/SWD_SWDIO*%
X45000000Y26000000D03*
%TO.N,/SWD_SWCLK*%
X42600000Y22400000D03*
%TO.N,/SPI_SCK*%
X48600000Y29200000D03*
%TO.N,/DISP_RST*%
X50048527Y36400000D03*
%TO.N,/DISP_CS*%
X49200000Y36400000D03*
%TO.N,/SPI_MOSI*%
X48600000Y37200000D03*
%TO.N,/MCU_NRST*%
X45800000Y27400000D03*
X8400000Y35800000D03*
%TO.N,/I2C_SDA*%
X50000000Y12500000D03*
X47250000Y18750000D03*
%TO.N,/EXIT_BTN*%
X43000000Y35200000D03*
X57000000Y46800000D03*
%TO.N,/OK_BTN*%
X56000000Y10800000D03*
X45600000Y29400000D03*
%TO.N,/ACCL_INT_2*%
X47850000Y19800000D03*
X44400000Y20600000D03*
%TO.N,/ACCL_INT_1*%
X45200000Y21400000D03*
X50000000Y15200000D03*
%TO.N,/UART_RX*%
X18000000Y26250000D03*
X38500000Y27250000D03*
%TD*%
D28*
%TO.N,/DISP_CS*%
X68500000Y23912500D02*
X66087500Y23912500D01*
X66087500Y23912500D02*
X64400000Y25600000D01*
X64400000Y25600000D02*
X64400000Y31400000D01*
X50200000Y37400000D02*
X49200000Y36400000D01*
X64400000Y31400000D02*
X58400000Y37400000D01*
X58400000Y37400000D02*
X50200000Y37400000D01*
%TO.N,/DISP_RST*%
X50048527Y36400000D02*
X50248527Y36600000D01*
X50248527Y36600000D02*
X57600000Y36600000D01*
X57600000Y36600000D02*
X63600000Y30600000D01*
X63600000Y30600000D02*
X63600000Y25200000D01*
X63600000Y25200000D02*
X66887500Y21912500D01*
X66887500Y21912500D02*
X68500000Y21912500D01*
D29*
%TO.N,+3V3*%
X59600000Y39800000D02*
X60600000Y39800000D01*
X60600000Y39800000D02*
X61800000Y41000000D01*
X61800000Y41000000D02*
X66719906Y41000000D01*
X66719906Y41000000D02*
X67432406Y41712500D01*
D30*
X47379594Y15175000D02*
X46404594Y14200000D01*
X46404594Y14200000D02*
X41200000Y14200000D01*
D29*
X68500000Y13912500D02*
X63512500Y13912500D01*
D31*
X51600000Y17800000D02*
X51600000Y19800000D01*
X51162500Y12200000D02*
X51200000Y12200000D01*
X51200000Y12200000D02*
X51600000Y12600000D01*
X51600000Y12600000D02*
X51600000Y17800000D01*
X51600000Y19800000D02*
X50800000Y20600000D01*
D29*
X37600000Y22200000D02*
X37600000Y16800000D01*
X38800000Y23400000D02*
X37600000Y22200000D01*
D30*
X41800000Y17800000D02*
X41200000Y17200000D01*
X42800000Y17800000D02*
X41800000Y17800000D01*
X41200000Y17200000D02*
X41200000Y14200000D01*
D28*
%TO.N,/SWD_SWCLK*%
X42600000Y22400000D02*
X40000000Y19800000D01*
X40000000Y19800000D02*
X40000000Y10400000D01*
X40000000Y10400000D02*
X43250000Y7150000D01*
X43250000Y7150000D02*
X43250000Y3800000D01*
D29*
%TO.N,+3V3*%
X40800000Y35400000D02*
X37400000Y35400000D01*
X37400000Y35400000D02*
X35000000Y37800000D01*
X35000000Y37800000D02*
X35000000Y40000000D01*
%TO.N,+3V3_UNREG*%
X2600000Y9400000D02*
X4000000Y10800000D01*
X1200000Y9400000D02*
X2600000Y9400000D01*
X6085786Y32500000D02*
X6800000Y32500000D01*
X4000000Y30414214D02*
X6085786Y32500000D01*
X4000000Y10800000D02*
X4000000Y30414214D01*
%TO.N,VBUS*%
X14400000Y19400000D02*
X11590685Y22209315D01*
X14400000Y17200000D02*
X14400000Y19400000D01*
X9200000Y12000000D02*
X14400000Y17200000D01*
D31*
%TO.N,VCC_IN*%
X9000000Y25600000D02*
X9000000Y20600000D01*
X9000000Y20600000D02*
X8200000Y19800000D01*
D28*
%TO.N,Net-(D2-K)*%
X8500000Y31000000D02*
X6000000Y31000000D01*
X10250000Y29250000D02*
X8500000Y31000000D01*
X26000000Y29250000D02*
X10250000Y29250000D01*
%TO.N,Net-(D6-K)*%
X28500000Y28250000D02*
X14450000Y28250000D01*
X10000000Y23800000D02*
X10000000Y16500000D01*
X30250000Y30000000D02*
X28500000Y28250000D01*
X14450000Y28250000D02*
X10000000Y23800000D01*
X10000000Y16500000D02*
X6500000Y13000000D01*
%TO.N,/USBIN_D+*%
X5400000Y21900000D02*
X5200000Y22100000D01*
X5400000Y20850000D02*
X5400000Y21900000D01*
%TO.N,/SWD_SWDIO*%
X39000000Y20000000D02*
X45000000Y26000000D01*
X39000000Y6050000D02*
X39000000Y20000000D01*
X41250000Y3800000D02*
X39000000Y6050000D01*
%TO.N,/SPI_SCK*%
X48600000Y27400000D02*
X48600000Y29200000D01*
X65000000Y22200000D02*
X63800000Y23400000D01*
X52600000Y23400000D02*
X48600000Y27400000D01*
X65000000Y19412500D02*
X65000000Y22200000D01*
X68500000Y15912500D02*
X65000000Y19412500D01*
X63800000Y23400000D02*
X52600000Y23400000D01*
%TO.N,/SPI_MOSI*%
X70800000Y19000000D02*
X69712500Y17912500D01*
X48600000Y37200000D02*
X49600000Y38200000D01*
X69712500Y17912500D02*
X68500000Y17912500D01*
X70800000Y28600000D02*
X70800000Y19000000D01*
X61200000Y38200000D02*
X70800000Y28600000D01*
X49600000Y38200000D02*
X61200000Y38200000D01*
D32*
%TO.N,/MCU_NRST*%
X40000000Y33200000D02*
X45800000Y27400000D01*
X8400000Y34000000D02*
X9200000Y33200000D01*
X8400000Y35800000D02*
X8400000Y34000000D01*
X9200000Y33200000D02*
X40000000Y33200000D01*
D28*
%TO.N,/I2C_SDA*%
X49200000Y13300000D02*
X50000000Y12500000D01*
X49200000Y16800000D02*
X49200000Y13300000D01*
X47250000Y18750000D02*
X49200000Y16800000D01*
%TO.N,/EXIT_BTN*%
X57000000Y46800000D02*
X46800000Y46800000D01*
X41400000Y36800000D02*
X43000000Y35200000D01*
X46800000Y46800000D02*
X41400000Y41400000D01*
X41400000Y41400000D02*
X41400000Y36800000D01*
%TO.N,/OK_BTN*%
X55100000Y17800000D02*
X47000000Y25900000D01*
X47000000Y28000000D02*
X45600000Y29400000D01*
X55100000Y11700000D02*
X56000000Y10800000D01*
X55100000Y11700000D02*
X55100000Y17800000D01*
X47000000Y25900000D02*
X47000000Y28000000D01*
%TO.N,/ACCL_INT_2*%
X46200000Y19800000D02*
X47850000Y19800000D01*
X45400000Y20600000D02*
X46200000Y19800000D01*
X44400000Y20600000D02*
X45400000Y20600000D01*
%TO.N,/ACCL_INT_1*%
X45200000Y21400000D02*
X48400000Y21400000D01*
X50400000Y15600000D02*
X50000000Y15200000D01*
X48400000Y21400000D02*
X50400000Y19400000D01*
X50400000Y19400000D02*
X50400000Y15600000D01*
%TO.N,/UART_RX*%
X33000000Y27250000D02*
X38500000Y27250000D01*
X32500000Y26750000D02*
X33000000Y27250000D01*
X18500000Y26750000D02*
X32500000Y26750000D01*
X18000000Y26250000D02*
X18500000Y26750000D01*
%TD*%
%TA.AperFunction,Conductor*%
%TO.N,GND*%
G36*
X48311848Y21063181D02*
G01*
X50063181Y19311848D01*
X50099500Y19224167D01*
X50099500Y15824500D01*
X50063181Y15736819D01*
X49975500Y15700500D01*
X49792685Y15700500D01*
X49712181Y15619995D01*
X49624500Y15583676D01*
X49536819Y15619995D01*
X49500500Y15707676D01*
X49500500Y16924472D01*
X47786819Y18638153D01*
X47750500Y18725834D01*
X47750500Y18957314D01*
X47619995Y19087819D01*
X47583676Y19175500D01*
X47619995Y19263181D01*
X47707676Y19299500D01*
X48057314Y19299500D01*
X48350500Y19592686D01*
X48350500Y20007314D01*
X48057314Y20300500D01*
X47642686Y20300500D01*
X47642685Y20300500D01*
X47479005Y20136819D01*
X47391324Y20100500D01*
X46375833Y20100500D01*
X46288152Y20136819D01*
X45554072Y20870899D01*
X45554069Y20870902D01*
X45533470Y20920636D01*
X45517754Y20958579D01*
X45517754Y20958583D01*
X45546152Y21027137D01*
X45554072Y21046259D01*
X45570998Y21063185D01*
X45658676Y21099500D01*
X48224167Y21099500D01*
X48311848Y21063181D01*
G37*
%TD.AperFunction*%
%TA.AperFunction,Conductor*%
G36*
X61111848Y37863181D02*
G01*
X70463181Y28511848D01*
X70499500Y28424167D01*
X70499500Y19175833D01*
X70463181Y19088152D01*
X69669016Y18293988D01*
X69581335Y18257669D01*
X69493654Y18293988D01*
X69466774Y18334216D01*
X69453631Y18365947D01*
X69228447Y18591131D01*
X69120482Y18635852D01*
X69053375Y18702959D01*
X69053375Y18797865D01*
X69120483Y18864973D01*
X69398100Y18979966D01*
X69707534Y19289400D01*
X69862078Y19662500D01*
X68780330Y19662500D01*
X68875000Y19757170D01*
X68875000Y20067830D01*
X68780330Y20162500D01*
X69862078Y20162500D01*
X69862077Y20162501D01*
X69707534Y20535601D01*
X69398100Y20845035D01*
X69120483Y20960028D01*
X69053375Y21027136D01*
X69053375Y21122042D01*
X69120481Y21189149D01*
X69228447Y21233869D01*
X69453631Y21459053D01*
X69575500Y21753271D01*
X69575500Y22071729D01*
X69453631Y22365947D01*
X69228447Y22591131D01*
X69188504Y22607676D01*
X68934230Y22713000D01*
X68934229Y22713000D01*
X68065771Y22713000D01*
X68065769Y22713000D01*
X67771552Y22591131D01*
X67546369Y22365948D01*
X67514723Y22289547D01*
X67447614Y22222439D01*
X67400162Y22213000D01*
X67063333Y22213000D01*
X66975652Y22249319D01*
X65806245Y23418726D01*
X65769926Y23506407D01*
X65806245Y23594088D01*
X65893926Y23630407D01*
X65941380Y23620968D01*
X65963026Y23612002D01*
X65963028Y23612000D01*
X65963029Y23612000D01*
X67400162Y23612000D01*
X67487843Y23575681D01*
X67514722Y23535454D01*
X67546369Y23459053D01*
X67771553Y23233869D01*
X68065771Y23112000D01*
X68065773Y23112000D01*
X68934227Y23112000D01*
X68934229Y23112000D01*
X69228447Y23233869D01*
X69453631Y23459053D01*
X69575500Y23753271D01*
X69575500Y24071729D01*
X69453631Y24365947D01*
X69228447Y24591131D01*
X69120482Y24635852D01*
X69053375Y24702959D01*
X69053375Y24797865D01*
X69120483Y24864973D01*
X69398100Y24979966D01*
X69707534Y25289400D01*
X69862078Y25662500D01*
X68780330Y25662500D01*
X68875000Y25757170D01*
X68875000Y26067830D01*
X68780330Y26162500D01*
X69862078Y26162500D01*
X69862077Y26162501D01*
X69707534Y26535601D01*
X69398100Y26845035D01*
X69120483Y26960028D01*
X69053375Y27027136D01*
X69053375Y27122042D01*
X69120481Y27189149D01*
X69228447Y27233869D01*
X69453631Y27459053D01*
X69575500Y27753271D01*
X69575500Y28071729D01*
X69453631Y28365947D01*
X69228447Y28591131D01*
X68934230Y28713000D01*
X68934229Y28713000D01*
X68065771Y28713000D01*
X68065769Y28713000D01*
X67771552Y28591131D01*
X67546369Y28365948D01*
X67424500Y28071731D01*
X67424500Y27753270D01*
X67497997Y27575833D01*
X67546369Y27459053D01*
X67771553Y27233869D01*
X67879515Y27189150D01*
X67946624Y27122042D01*
X67946624Y27027137D01*
X67879516Y26960028D01*
X67601899Y26845035D01*
X67292465Y26535601D01*
X67137922Y26162501D01*
X67137922Y26162500D01*
X68219670Y26162500D01*
X68125000Y26067830D01*
X68125000Y25757170D01*
X68219670Y25662500D01*
X67137922Y25662500D01*
X67292465Y25289400D01*
X67601899Y24979966D01*
X67879516Y24864973D01*
X67946624Y24797865D01*
X67946624Y24702959D01*
X67879516Y24635851D01*
X67771552Y24591131D01*
X67546369Y24365948D01*
X67514723Y24289547D01*
X67447614Y24222439D01*
X67400162Y24213000D01*
X66263334Y24213000D01*
X66175653Y24249319D01*
X64736819Y25688153D01*
X64700500Y25775834D01*
X64700500Y31524472D01*
X64700499Y31524473D01*
X58537152Y37687819D01*
X58500833Y37775500D01*
X58537152Y37863181D01*
X58624833Y37899500D01*
X61024167Y37899500D01*
X61111848Y37863181D01*
G37*
%TD.AperFunction*%
%TA.AperFunction,Conductor*%
G36*
X71963181Y49963181D02*
G01*
X71999500Y49875500D01*
X71999500Y624500D01*
X71963181Y536819D01*
X71875500Y500500D01*
X33970439Y500500D01*
X33882758Y536819D01*
X33846439Y624500D01*
X33882758Y712181D01*
X34101574Y930997D01*
X34254500Y1300193D01*
X34254500Y1699807D01*
X34101574Y2069003D01*
X33819003Y2351574D01*
X33449808Y2504500D01*
X33449807Y2504500D01*
X33050193Y2504500D01*
X33050191Y2504500D01*
X32680996Y2351574D01*
X32398426Y2069004D01*
X32245500Y1699809D01*
X32245500Y1300192D01*
X32398426Y930997D01*
X32617242Y712181D01*
X32653561Y624500D01*
X32617242Y536819D01*
X32529561Y500500D01*
X30370439Y500500D01*
X30282758Y536819D01*
X30246439Y624500D01*
X30282758Y712181D01*
X30501574Y930997D01*
X30654500Y1300193D01*
X30654500Y1699807D01*
X30501574Y2069003D01*
X30219003Y2351574D01*
X29849808Y2504500D01*
X29849807Y2504500D01*
X29450193Y2504500D01*
X29450191Y2504500D01*
X29080996Y2351574D01*
X28798426Y2069004D01*
X28645500Y1699809D01*
X28645500Y1300192D01*
X28798426Y930997D01*
X29017242Y712181D01*
X29053561Y624500D01*
X29017242Y536819D01*
X28929561Y500500D01*
X624500Y500500D01*
X536819Y536819D01*
X500500Y624500D01*
X500500Y4469376D01*
X38449500Y4469376D01*
X38449500Y3130632D01*
X38461251Y3071554D01*
X38475638Y2999224D01*
X38475639Y2999222D01*
X38475638Y2999222D01*
X38575206Y2850208D01*
X38724223Y2750638D01*
X38767628Y2742005D01*
X38855629Y2724500D01*
X39644370Y2724501D01*
X39775776Y2750638D01*
X39924793Y2850207D01*
X40024362Y2999224D01*
X40050500Y3130629D01*
X40050499Y4275169D01*
X40086818Y4362849D01*
X40174499Y4399168D01*
X40262180Y4362849D01*
X40413181Y4211848D01*
X40449500Y4124167D01*
X40449500Y3365770D01*
X40546899Y3130629D01*
X40571369Y3071553D01*
X40796553Y2846369D01*
X41090771Y2724500D01*
X41090773Y2724500D01*
X41409227Y2724500D01*
X41409229Y2724500D01*
X41703447Y2846369D01*
X41928631Y3071553D01*
X42050500Y3365771D01*
X42050500Y4234229D01*
X41928631Y4528447D01*
X41703447Y4753631D01*
X41562153Y4812157D01*
X41409230Y4875500D01*
X41409229Y4875500D01*
X41090771Y4875500D01*
X41090769Y4875500D01*
X41090767Y4875499D01*
X40819915Y4763309D01*
X40725010Y4763309D01*
X40684782Y4790189D01*
X39336819Y6138152D01*
X39300500Y6225833D01*
X39300500Y19824167D01*
X39336819Y19911848D01*
X39506226Y20081255D01*
X39593907Y20117574D01*
X39681588Y20081255D01*
X39717907Y19993574D01*
X39708468Y19946121D01*
X39699500Y19924471D01*
X39699500Y10275529D01*
X42913181Y7061848D01*
X42949500Y6974167D01*
X42949500Y4899838D01*
X42913181Y4812157D01*
X42872953Y4785277D01*
X42796552Y4753631D01*
X42571369Y4528448D01*
X42449500Y4234231D01*
X42449500Y3365770D01*
X42546899Y3130629D01*
X42571369Y3071553D01*
X42796553Y2846369D01*
X43090771Y2724500D01*
X43090773Y2724500D01*
X43409227Y2724500D01*
X43409229Y2724500D01*
X43703447Y2846369D01*
X43928631Y3071553D01*
X43973351Y3179518D01*
X44040458Y3246625D01*
X44135363Y3246625D01*
X44202472Y3179517D01*
X44317465Y2901900D01*
X44626899Y2592466D01*
X44999999Y2437923D01*
X45000000Y2437923D01*
X45000000Y3519670D01*
X45094670Y3425000D01*
X45405330Y3425000D01*
X45500000Y3519670D01*
X45500000Y2437923D01*
X45873100Y2592466D01*
X46182534Y2901900D01*
X46349999Y3306195D01*
X46350000Y3306198D01*
X46350000Y3550000D01*
X45530330Y3550000D01*
X45625000Y3644670D01*
X45625000Y3955330D01*
X45530330Y4050000D01*
X46350000Y4050000D01*
X46350000Y4293803D01*
X46349999Y4293806D01*
X46182534Y4698101D01*
X45873100Y5007535D01*
X45500000Y5162079D01*
X45500000Y4080330D01*
X45405330Y4175000D01*
X45094670Y4175000D01*
X45000000Y4080330D01*
X45000000Y5162079D01*
X44999999Y5162079D01*
X44626899Y5007535D01*
X44317465Y4698101D01*
X44202472Y4420484D01*
X44135363Y4353376D01*
X44040458Y4353376D01*
X43973350Y4420485D01*
X43928631Y4528446D01*
X43928631Y4528447D01*
X43703447Y4753631D01*
X43627046Y4785278D01*
X43559939Y4852386D01*
X43550500Y4899838D01*
X43550500Y7274471D01*
X40336819Y10488152D01*
X40300500Y10575833D01*
X40300500Y17438381D01*
X40624500Y17438381D01*
X40624500Y17438380D01*
X40624500Y13961620D01*
X40961620Y13624500D01*
X46642974Y13624500D01*
X47955094Y14936620D01*
X47955094Y15413380D01*
X47617974Y15750500D01*
X47141214Y15750500D01*
X47141213Y15750500D01*
X46202533Y14811819D01*
X46114852Y14775500D01*
X41899500Y14775500D01*
X41811819Y14811819D01*
X41775500Y14899500D01*
X41775500Y16910258D01*
X41811819Y16997939D01*
X42002061Y17188181D01*
X42089742Y17224500D01*
X43038380Y17224500D01*
X43375500Y17561620D01*
X43375500Y18038380D01*
X43038380Y18375500D01*
X42038380Y18375500D01*
X41561620Y18375500D01*
X41561619Y18375500D01*
X40624500Y17438381D01*
X40300500Y17438381D01*
X40300500Y19624167D01*
X40336819Y19711848D01*
X41432286Y20807315D01*
X43899500Y20807315D01*
X43899500Y20807314D01*
X43899500Y20392686D01*
X44192686Y20099500D01*
X44607314Y20099500D01*
X44770995Y20263181D01*
X44858676Y20299500D01*
X45224167Y20299500D01*
X45311848Y20263181D01*
X46075529Y19499500D01*
X46324471Y19499500D01*
X47391324Y19499500D01*
X47479005Y19463181D01*
X47480005Y19462181D01*
X47516324Y19374500D01*
X47480005Y19286819D01*
X47392324Y19250500D01*
X47042685Y19250500D01*
X46749500Y18957315D01*
X46749500Y18957314D01*
X46749500Y18542686D01*
X47042686Y18249500D01*
X47274167Y18249500D01*
X47361848Y18213181D01*
X48863181Y16711848D01*
X48899500Y16624167D01*
X48899500Y13175529D01*
X49463181Y12611848D01*
X49499500Y12524167D01*
X49499500Y12292686D01*
X49792686Y11999500D01*
X50207314Y11999500D01*
X50450319Y12242505D01*
X50538000Y12278824D01*
X50625681Y12242505D01*
X50662000Y12154824D01*
X50662000Y11992686D01*
X50955186Y11699500D01*
X51369814Y11699500D01*
X51663000Y11992686D01*
X51663000Y11992689D01*
X51672439Y12015474D01*
X51678856Y12012816D01*
X51699319Y12062216D01*
X51791927Y12154824D01*
X52050500Y12413396D01*
X52050500Y12786603D01*
X52050500Y17491324D01*
X52086819Y17579005D01*
X52100500Y17592686D01*
X52100500Y18007314D01*
X52086819Y18020995D01*
X52050500Y18108676D01*
X52050500Y19986603D01*
X51336819Y20700284D01*
X51300500Y20787965D01*
X51300500Y20807314D01*
X51007314Y21100500D01*
X50592686Y21100500D01*
X50592685Y21100500D01*
X50299500Y20807315D01*
X50299500Y20807314D01*
X50299500Y20392686D01*
X50592686Y20099500D01*
X50612035Y20099500D01*
X50699716Y20063181D01*
X51113181Y19649716D01*
X51149500Y19562035D01*
X51149500Y18108676D01*
X51113181Y18020995D01*
X51099500Y18007315D01*
X51099500Y17592686D01*
X51113181Y17579005D01*
X51149500Y17491324D01*
X51149500Y12837967D01*
X51113184Y12750289D01*
X51099718Y12736822D01*
X51012039Y12700500D01*
X50955185Y12700500D01*
X50712181Y12457495D01*
X50624500Y12421176D01*
X50536819Y12457495D01*
X50500500Y12545176D01*
X50500500Y12707314D01*
X50207314Y13000500D01*
X49975833Y13000500D01*
X49888152Y13036819D01*
X49536819Y13388152D01*
X49500500Y13475833D01*
X49500500Y14692324D01*
X49536819Y14780005D01*
X49624500Y14816324D01*
X49712181Y14780005D01*
X49792686Y14699500D01*
X50207314Y14699500D01*
X50500500Y14992686D01*
X50500500Y15224167D01*
X50536819Y15311848D01*
X50700500Y15475528D01*
X50700500Y15724471D01*
X50700500Y19524471D01*
X50524471Y19700500D01*
X48524471Y21700500D01*
X45658676Y21700500D01*
X45570995Y21736819D01*
X45407314Y21900500D01*
X44992686Y21900500D01*
X44992685Y21900500D01*
X44699500Y21607315D01*
X44699500Y21224500D01*
X44663181Y21136819D01*
X44575500Y21100500D01*
X44192685Y21100500D01*
X43899500Y20807315D01*
X41432286Y20807315D01*
X42488152Y21863181D01*
X42575833Y21899500D01*
X42807314Y21899500D01*
X43100500Y22192686D01*
X43100500Y22607314D01*
X42807314Y22900500D01*
X42624834Y22900500D01*
X42537153Y22936819D01*
X42500834Y23024500D01*
X42537153Y23112181D01*
X44888153Y25463181D01*
X44975834Y25499500D01*
X45207314Y25499500D01*
X45500500Y25792686D01*
X45500500Y26207314D01*
X45207314Y26500500D01*
X44792686Y26500500D01*
X44792685Y26500500D01*
X44499500Y26207315D01*
X44499500Y25975834D01*
X44463181Y25888153D01*
X38875529Y20300500D01*
X38699500Y20124472D01*
X38699500Y5925529D01*
X39537848Y5087181D01*
X39574167Y4999500D01*
X39537848Y4911819D01*
X39450167Y4875500D01*
X38855631Y4875500D01*
X38768223Y4858114D01*
X38724224Y4849362D01*
X38724223Y4849362D01*
X38724221Y4849361D01*
X38575207Y4749794D01*
X38475637Y4600777D01*
X38475637Y4600776D01*
X38449500Y4469376D01*
X500500Y4469376D01*
X500500Y8094376D01*
X28649500Y8094376D01*
X28649500Y6905632D01*
X28662569Y6839927D01*
X28675638Y6774224D01*
X28675639Y6774222D01*
X28675638Y6774222D01*
X28775206Y6625208D01*
X28924223Y6525638D01*
X28967628Y6517005D01*
X29055629Y6499500D01*
X30244370Y6499501D01*
X30375776Y6525638D01*
X30524793Y6625207D01*
X30624362Y6774224D01*
X30650500Y6905629D01*
X30650499Y7699014D01*
X32249500Y7699014D01*
X32249500Y7300987D01*
X32348555Y7061848D01*
X32401817Y6933262D01*
X32683262Y6651817D01*
X33050988Y6499500D01*
X33050990Y6499500D01*
X33449010Y6499500D01*
X33449012Y6499500D01*
X33816738Y6651817D01*
X34098183Y6933262D01*
X34250500Y7300988D01*
X34250500Y7699012D01*
X34098183Y8066738D01*
X33816738Y8348183D01*
X33752493Y8374794D01*
X33449013Y8500500D01*
X33449012Y8500500D01*
X33050988Y8500500D01*
X33050986Y8500500D01*
X32683261Y8348183D01*
X32401817Y8066739D01*
X32249500Y7699014D01*
X30650499Y7699014D01*
X30650499Y8094370D01*
X30624362Y8225776D01*
X30624360Y8225779D01*
X30624361Y8225779D01*
X30524793Y8374793D01*
X30375776Y8474363D01*
X30244373Y8500500D01*
X29055631Y8500500D01*
X28968223Y8483114D01*
X28924224Y8474362D01*
X28924223Y8474362D01*
X28924221Y8474361D01*
X28775207Y8374794D01*
X28675637Y8225777D01*
X28675637Y8225776D01*
X28649500Y8094376D01*
X500500Y8094376D01*
X500500Y8809481D01*
X536819Y8897162D01*
X624500Y8933481D01*
X712181Y8897162D01*
X909843Y8699500D01*
X2890157Y8699500D01*
X3300500Y9109843D01*
X3300500Y9109844D01*
X4290156Y10099500D01*
X4290157Y10099500D01*
X4700500Y10509843D01*
X4700500Y12290157D01*
X8499500Y12290157D01*
X8499500Y12290156D01*
X8499500Y11709844D01*
X8909844Y11299500D01*
X9490156Y11299500D01*
X15100501Y16909844D01*
X15100501Y17490157D01*
X15100501Y17514819D01*
X15100500Y17514825D01*
X15100500Y19690157D01*
X14690157Y20100500D01*
X13533343Y21257314D01*
X12300498Y22490158D01*
X36899500Y22490158D01*
X36899500Y22490157D01*
X36899500Y16509843D01*
X37309843Y16099500D01*
X37890157Y16099500D01*
X38300500Y16509843D01*
X38300500Y21858482D01*
X38336819Y21946163D01*
X38891156Y22500500D01*
X39500500Y23109843D01*
X39500500Y23690156D01*
X39090156Y24100500D01*
X38509843Y24100500D01*
X38509842Y24100500D01*
X36899500Y22490158D01*
X12300498Y22490158D01*
X11880841Y22909815D01*
X11300529Y22909815D01*
X11300528Y22909815D01*
X10890185Y22499472D01*
X10890185Y21919159D01*
X13663181Y19146163D01*
X13699500Y19058482D01*
X13699500Y17541519D01*
X13663181Y17453838D01*
X8499500Y12290157D01*
X4700500Y12290157D01*
X4700500Y16820925D01*
X4736819Y16908606D01*
X4824500Y16944925D01*
X4912181Y16908606D01*
X4988545Y16832242D01*
X5356086Y16680001D01*
X5356090Y16680000D01*
X5855000Y16680000D01*
X5855000Y17380000D01*
X6355000Y17380000D01*
X6355000Y16680000D01*
X6853910Y16680000D01*
X6853913Y16680001D01*
X7221454Y16832242D01*
X7502758Y17113546D01*
X7633839Y17430000D01*
X6829264Y17430000D01*
X6955000Y17555736D01*
X6955000Y17804264D01*
X6829264Y17930000D01*
X7633839Y17930000D01*
X7633838Y17930001D01*
X7502758Y18246455D01*
X7221454Y18527759D01*
X6853913Y18680000D01*
X6291394Y18680000D01*
X6203713Y18716319D01*
X6167394Y18804000D01*
X6176833Y18851452D01*
X6184500Y18869962D01*
X6184500Y19350037D01*
X5845037Y19689500D01*
X5364963Y19689500D01*
X5364962Y19689500D01*
X5025500Y19350038D01*
X5025500Y18869963D01*
X5125427Y18770036D01*
X5161746Y18682355D01*
X5125427Y18594674D01*
X5085199Y18567794D01*
X4988545Y18527759D01*
X4988544Y18527758D01*
X4912181Y18451394D01*
X4824500Y18415075D01*
X4736819Y18451394D01*
X4700500Y18539075D01*
X4700500Y20007315D01*
X7699500Y20007315D01*
X7699500Y20007314D01*
X7699500Y19592686D01*
X7992686Y19299500D01*
X8407314Y19299500D01*
X8700500Y19592686D01*
X8700500Y19612035D01*
X8736819Y19699716D01*
X9044418Y20007315D01*
X9450500Y20413397D01*
X9450500Y20786603D01*
X9450500Y25291324D01*
X9486819Y25379005D01*
X9500500Y25392686D01*
X9500500Y25807314D01*
X9207314Y26100500D01*
X8792686Y26100500D01*
X8792685Y26100500D01*
X8499500Y25807315D01*
X8499500Y25392686D01*
X8513181Y25379005D01*
X8549500Y25291324D01*
X8549500Y20837965D01*
X8513181Y20750284D01*
X8099716Y20336819D01*
X8012035Y20300500D01*
X7992685Y20300500D01*
X7699500Y20007315D01*
X4700500Y20007315D01*
X4700500Y20542324D01*
X4736819Y20630005D01*
X4824500Y20666324D01*
X4912181Y20630005D01*
X5192686Y20349500D01*
X5607314Y20349500D01*
X5900500Y20642686D01*
X5900500Y21057314D01*
X5736819Y21220995D01*
X5700500Y21308676D01*
X5700500Y22307314D01*
X5407314Y22600500D01*
X4992686Y22600500D01*
X4992685Y22600500D01*
X4912181Y22519995D01*
X4824500Y22483676D01*
X4736819Y22519995D01*
X4700500Y22607676D01*
X4700500Y25460925D01*
X4736819Y25548606D01*
X4824500Y25584925D01*
X4912181Y25548606D01*
X4988544Y25472243D01*
X4988547Y25472241D01*
X5085198Y25432207D01*
X5152307Y25365099D01*
X5152307Y25270194D01*
X5125428Y25229965D01*
X5025500Y25130037D01*
X5025500Y24649963D01*
X5364963Y24310500D01*
X5845037Y24310500D01*
X6184500Y24649963D01*
X6184500Y25130037D01*
X6184500Y25130039D01*
X6176833Y25148548D01*
X6176833Y25243453D01*
X6243942Y25310561D01*
X6291394Y25320000D01*
X6853910Y25320000D01*
X6853913Y25320001D01*
X7221454Y25472242D01*
X7502758Y25753546D01*
X7633839Y26070000D01*
X6829264Y26070000D01*
X6955000Y26195736D01*
X6955000Y26444264D01*
X6829264Y26570000D01*
X7633839Y26570000D01*
X7633838Y26570001D01*
X7502758Y26886455D01*
X7221454Y27167759D01*
X6853913Y27320000D01*
X6355000Y27320000D01*
X6355000Y26620000D01*
X5855000Y26620000D01*
X5855000Y27320000D01*
X5356086Y27320000D01*
X4988545Y27167759D01*
X4988544Y27167758D01*
X4912181Y27091394D01*
X4824500Y27055075D01*
X4736819Y27091394D01*
X4700500Y27179075D01*
X4700500Y30072696D01*
X4736819Y30160377D01*
X5346633Y30770191D01*
X5434314Y30806510D01*
X5521995Y30770191D01*
X5792686Y30499500D01*
X6207314Y30499500D01*
X6370995Y30663181D01*
X6458676Y30699500D01*
X8324167Y30699500D01*
X8411848Y30663181D01*
X10125529Y28949500D01*
X25541324Y28949500D01*
X25629005Y28913181D01*
X25780005Y28762181D01*
X25816324Y28674500D01*
X25780005Y28586819D01*
X25692324Y28550500D01*
X14325527Y28550500D01*
X9875529Y24100500D01*
X9699500Y23924472D01*
X9699500Y16675834D01*
X9663181Y16588153D01*
X6611848Y13536819D01*
X6524167Y13500500D01*
X6292685Y13500500D01*
X5999500Y13207315D01*
X5999500Y13207314D01*
X5999500Y12792686D01*
X6292686Y12499500D01*
X6707314Y12499500D01*
X7000500Y12792686D01*
X7000500Y13024167D01*
X7036819Y13111848D01*
X8637971Y14713000D01*
X10300500Y16375528D01*
X10300500Y16624471D01*
X10300500Y23624167D01*
X10336819Y23711848D01*
X13082287Y26457315D01*
X17499500Y26457315D01*
X17499500Y26457314D01*
X17499500Y26042686D01*
X17792686Y25749500D01*
X18207314Y25749500D01*
X18500500Y26042686D01*
X18500500Y26274167D01*
X18536819Y26361848D01*
X18588152Y26413181D01*
X18675833Y26449500D01*
X32624471Y26449500D01*
X33088152Y26913181D01*
X33175833Y26949500D01*
X38041324Y26949500D01*
X38129005Y26913181D01*
X38292686Y26749500D01*
X38707314Y26749500D01*
X39000500Y27042686D01*
X39000500Y27457314D01*
X38707314Y27750500D01*
X38292686Y27750500D01*
X38292685Y27750500D01*
X38129005Y27586819D01*
X38041324Y27550500D01*
X32875528Y27550500D01*
X32411848Y27086819D01*
X32324167Y27050500D01*
X18375528Y27050500D01*
X18111848Y26786819D01*
X18024167Y26750500D01*
X17792685Y26750500D01*
X17499500Y26457315D01*
X13082287Y26457315D01*
X13194632Y26569660D01*
X14538153Y27913181D01*
X14625834Y27949500D01*
X28624471Y27949500D01*
X30138152Y29463181D01*
X30225833Y29499500D01*
X30457314Y29499500D01*
X30750500Y29792686D01*
X30750500Y30207314D01*
X30457314Y30500500D01*
X30042686Y30500500D01*
X30042685Y30500500D01*
X29749500Y30207315D01*
X29749500Y29975833D01*
X29713181Y29888152D01*
X28411848Y28586819D01*
X28324167Y28550500D01*
X26307676Y28550500D01*
X26219995Y28586819D01*
X26183676Y28674500D01*
X26219995Y28762181D01*
X26358314Y28900500D01*
X26500500Y29042686D01*
X26500500Y29457314D01*
X26207314Y29750500D01*
X25792686Y29750500D01*
X25792685Y29750500D01*
X25629005Y29586819D01*
X25541324Y29550500D01*
X10425833Y29550500D01*
X10338152Y29586819D01*
X10102548Y29822423D01*
X27425973Y29822423D01*
X27600814Y29750001D01*
X27600818Y29750000D01*
X27899183Y29750000D01*
X27899186Y29750001D01*
X28074025Y29822423D01*
X27750001Y30146447D01*
X27750000Y30146447D01*
X27425973Y29822423D01*
X10102548Y29822423D01*
X9275788Y30649183D01*
X27000000Y30649183D01*
X27000000Y30350815D01*
X27072421Y30175975D01*
X27396446Y30499999D01*
X27396446Y30500001D01*
X27355026Y30541421D01*
X27650000Y30541421D01*
X27650000Y30458579D01*
X27708579Y30400000D01*
X27791421Y30400000D01*
X27850000Y30458579D01*
X27850000Y30500001D01*
X28103553Y30500001D01*
X28103553Y30499999D01*
X28427577Y30175975D01*
X28499999Y30350814D01*
X28500000Y30350818D01*
X28500000Y30649183D01*
X28499999Y30649186D01*
X28427577Y30824027D01*
X28103553Y30500001D01*
X27850000Y30500001D01*
X27850000Y30541421D01*
X27791421Y30600000D01*
X27708579Y30600000D01*
X27650000Y30541421D01*
X27355026Y30541421D01*
X27072421Y30824027D01*
X27000001Y30649188D01*
X27000000Y30649183D01*
X9275788Y30649183D01*
X8924970Y31000001D01*
X27603553Y31000001D01*
X27750000Y30853554D01*
X27896446Y30999999D01*
X27896446Y31000000D01*
X27750000Y31146447D01*
X27603553Y31000001D01*
X8924970Y31000001D01*
X8624471Y31300500D01*
X6458676Y31300500D01*
X6370995Y31336819D01*
X6229809Y31478005D01*
X6193490Y31565686D01*
X6228076Y31649183D01*
X27000000Y31649183D01*
X27000000Y31350815D01*
X27072421Y31175975D01*
X27396446Y31499999D01*
X27396446Y31500001D01*
X27355026Y31541421D01*
X27650000Y31541421D01*
X27650000Y31458579D01*
X27708579Y31400000D01*
X27791421Y31400000D01*
X27850000Y31458579D01*
X27850000Y31500001D01*
X28103553Y31500001D01*
X28103553Y31499999D01*
X28427577Y31175975D01*
X28499999Y31350814D01*
X28500000Y31350818D01*
X28500000Y31649183D01*
X28499999Y31649186D01*
X28427577Y31824027D01*
X28103553Y31500001D01*
X27850000Y31500001D01*
X27850000Y31541421D01*
X27791421Y31600000D01*
X27708579Y31600000D01*
X27650000Y31541421D01*
X27355026Y31541421D01*
X27072421Y31824027D01*
X27000001Y31649188D01*
X27000000Y31649183D01*
X6228076Y31649183D01*
X6229809Y31653367D01*
X6339623Y31763181D01*
X6427304Y31799500D01*
X7090157Y31799500D01*
X7468236Y32177579D01*
X27425973Y32177579D01*
X27750000Y31853554D01*
X27750001Y31853554D01*
X28074025Y32177579D01*
X27899185Y32250000D01*
X27600818Y32250000D01*
X27600812Y32249999D01*
X27425973Y32177579D01*
X7468236Y32177579D01*
X7500500Y32209843D01*
X7500500Y32790157D01*
X7090157Y33200500D01*
X5795629Y33200500D01*
X5795628Y33200500D01*
X3299500Y30704372D01*
X3299500Y27059075D01*
X3263181Y26971394D01*
X3175500Y26935075D01*
X3087819Y26971394D01*
X2891454Y27167759D01*
X2523913Y27320000D01*
X2175000Y27320000D01*
X2175000Y26620000D01*
X1675000Y26620000D01*
X1675000Y27320000D01*
X1326086Y27320000D01*
X958545Y27167759D01*
X958544Y27167758D01*
X712181Y26921394D01*
X624500Y26885075D01*
X536819Y26921394D01*
X500500Y27009075D01*
X500500Y36007315D01*
X7899500Y36007315D01*
X7899500Y35592686D01*
X8013181Y35479005D01*
X8049500Y35391324D01*
X8049500Y34145182D01*
X8049500Y33854818D01*
X9054818Y32849500D01*
X39803456Y32849500D01*
X39891137Y32813181D01*
X45263181Y27441137D01*
X45299500Y27353456D01*
X45299500Y27192686D01*
X45592686Y26899500D01*
X46007314Y26899500D01*
X46300500Y27192686D01*
X46300500Y27607314D01*
X46007314Y27900500D01*
X45846544Y27900500D01*
X45758863Y27936819D01*
X44088367Y29607315D01*
X45099500Y29607315D01*
X45099500Y29607314D01*
X45099500Y29192686D01*
X45392686Y28899500D01*
X45624167Y28899500D01*
X45711848Y28863181D01*
X46663181Y27911848D01*
X46699500Y27824167D01*
X46699500Y25775529D01*
X54763181Y17711848D01*
X54799500Y17624167D01*
X54799500Y11575529D01*
X55463181Y10911848D01*
X55499500Y10824167D01*
X55499500Y10592686D01*
X55792686Y10299500D01*
X56207314Y10299500D01*
X56500500Y10592686D01*
X56500500Y11007314D01*
X56207314Y11300500D01*
X55975833Y11300500D01*
X55888152Y11336819D01*
X55436819Y11788152D01*
X55400500Y11875833D01*
X55400500Y15851034D01*
X60650000Y15851034D01*
X60650000Y15313967D01*
X60855525Y14817786D01*
X60868628Y14804683D01*
X61500000Y15436055D01*
X61500000Y15375393D01*
X61792893Y15082500D01*
X61853554Y15082500D01*
X61222182Y14451129D01*
X61235285Y14438026D01*
X61731466Y14232501D01*
X61731470Y14232500D01*
X62268530Y14232500D01*
X62268533Y14232501D01*
X62671298Y14399332D01*
X62766204Y14399332D01*
X62833312Y14332224D01*
X62833312Y14237318D01*
X62815012Y14209930D01*
X62812000Y14202657D01*
X62812000Y13622343D01*
X63222343Y13212000D01*
X67551067Y13212000D01*
X67619956Y13191103D01*
X67699224Y13138138D01*
X67830629Y13112000D01*
X69169370Y13112001D01*
X69300776Y13138138D01*
X69449793Y13237707D01*
X69549362Y13386724D01*
X69575500Y13518129D01*
X69575499Y14306870D01*
X69549362Y14438276D01*
X69549360Y14438279D01*
X69549361Y14438279D01*
X69449793Y14587293D01*
X69300776Y14686863D01*
X69169373Y14713000D01*
X67830631Y14713000D01*
X67699222Y14686862D01*
X67643037Y14649319D01*
X67619956Y14633898D01*
X67551067Y14613000D01*
X63239051Y14613000D01*
X63151370Y14649319D01*
X63115051Y14737000D01*
X63142873Y14804169D01*
X63137690Y14807632D01*
X63144474Y14817786D01*
X63349999Y15313967D01*
X63350000Y15313970D01*
X63350000Y15851031D01*
X63349999Y15851034D01*
X63144474Y16347215D01*
X63131371Y16360318D01*
X63131370Y16360318D01*
X62500000Y15728947D01*
X62500000Y15789607D01*
X62207107Y16082500D01*
X62146447Y16082500D01*
X62777817Y16713872D01*
X62777817Y16713873D01*
X62764715Y16726974D01*
X62764714Y16726975D01*
X62346928Y16900028D01*
X62279820Y16967136D01*
X62279820Y17062042D01*
X62346926Y17129149D01*
X62595061Y17231929D01*
X62890571Y17527439D01*
X63050500Y17913542D01*
X63050500Y18331458D01*
X62890571Y18717561D01*
X62595061Y19013071D01*
X62485429Y19058482D01*
X62208959Y19173000D01*
X62208958Y19173000D01*
X61791042Y19173000D01*
X61791040Y19173000D01*
X61404938Y19013071D01*
X61109429Y18717562D01*
X60949500Y18331460D01*
X60949500Y17913541D01*
X61020848Y17741292D01*
X61109429Y17527439D01*
X61404939Y17231929D01*
X61653071Y17129150D01*
X61720179Y17062042D01*
X61720179Y16967136D01*
X61653071Y16900028D01*
X61235285Y16726975D01*
X61222182Y16713873D01*
X61222181Y16713872D01*
X61853554Y16082500D01*
X61792893Y16082500D01*
X61500000Y15789607D01*
X61500000Y15728947D01*
X60868628Y16360319D01*
X60868627Y16360318D01*
X60855525Y16347215D01*
X60650000Y15851034D01*
X55400500Y15851034D01*
X55400500Y17924471D01*
X51792718Y21532253D01*
X60949500Y21532253D01*
X60949500Y19792748D01*
X60961131Y19734271D01*
X60961132Y19734270D01*
X61005447Y19667948D01*
X61071769Y19623633D01*
X61071770Y19623632D01*
X61130247Y19612001D01*
X61130250Y19612000D01*
X61130252Y19612000D01*
X62869750Y19612000D01*
X62869751Y19612001D01*
X62884568Y19614948D01*
X62928229Y19623632D01*
X62928229Y19623633D01*
X62928231Y19623633D01*
X62994552Y19667948D01*
X63038867Y19734269D01*
X63038867Y19734271D01*
X63038868Y19734271D01*
X63050499Y19792748D01*
X63050500Y19792750D01*
X63050500Y21532251D01*
X63050499Y21532253D01*
X63038868Y21590730D01*
X63038867Y21590731D01*
X62994552Y21657053D01*
X62928230Y21701368D01*
X62928229Y21701369D01*
X62869752Y21713000D01*
X62869748Y21713000D01*
X61130252Y21713000D01*
X61130247Y21713000D01*
X61071770Y21701369D01*
X61071769Y21701368D01*
X61005447Y21657053D01*
X60961132Y21590731D01*
X60961131Y21590730D01*
X60949500Y21532253D01*
X51792718Y21532253D01*
X47336819Y25988152D01*
X47300500Y26075833D01*
X47300500Y28124471D01*
X46136819Y29288152D01*
X46100500Y29375833D01*
X46100500Y29607314D01*
X45807314Y29900500D01*
X45392686Y29900500D01*
X45392685Y29900500D01*
X45099500Y29607315D01*
X44088367Y29607315D01*
X40145182Y33550500D01*
X9396544Y33550500D01*
X9308863Y33586819D01*
X8786819Y34108863D01*
X8750500Y34196544D01*
X8750500Y35391324D01*
X8786819Y35479005D01*
X8900500Y35592686D01*
X8900500Y35903290D01*
X11125000Y35903290D01*
X11125000Y35276711D01*
X11364780Y34697834D01*
X11409530Y34653084D01*
X12125000Y35368554D01*
X12125000Y35351827D01*
X12461827Y35015000D01*
X12478554Y35015000D01*
X11763084Y34299530D01*
X11807833Y34254781D01*
X12386710Y34015001D01*
X12386714Y34015000D01*
X13013286Y34015000D01*
X13013289Y34015001D01*
X13592166Y34254781D01*
X13592167Y34254782D01*
X13636916Y34299530D01*
X12921446Y35015000D01*
X12938173Y35015000D01*
X13275000Y35351827D01*
X13275000Y35368554D01*
X13990470Y34653084D01*
X14035218Y34697833D01*
X14035219Y34697834D01*
X14274999Y35276711D01*
X14275000Y35276715D01*
X14275000Y35903286D01*
X14274999Y35903290D01*
X14061794Y36418010D01*
X14044659Y36459376D01*
X16024500Y36459376D01*
X16024500Y34720632D01*
X16028704Y34699499D01*
X16050638Y34589224D01*
X16050639Y34589222D01*
X16050638Y34589222D01*
X16150206Y34440208D01*
X16299223Y34340638D01*
X16342628Y34332005D01*
X16430629Y34314500D01*
X18169370Y34314501D01*
X18300776Y34340638D01*
X18449793Y34440207D01*
X18549362Y34589224D01*
X18575500Y34720629D01*
X18575499Y36459370D01*
X18549362Y36590776D01*
X18549360Y36590779D01*
X18549361Y36590779D01*
X18449793Y36739793D01*
X18300776Y36839363D01*
X18169373Y36865500D01*
X16430631Y36865500D01*
X16343223Y36848114D01*
X16299224Y36839362D01*
X16299223Y36839362D01*
X16299221Y36839361D01*
X16150207Y36739794D01*
X16050637Y36590777D01*
X16050637Y36590776D01*
X16024500Y36459376D01*
X14044659Y36459376D01*
X14035219Y36482167D01*
X13990470Y36526916D01*
X13275000Y35811446D01*
X13275000Y35828173D01*
X12938173Y36165000D01*
X12921446Y36165000D01*
X13636916Y36880470D01*
X13592166Y36925220D01*
X13013289Y37165000D01*
X12386710Y37165000D01*
X11807833Y36925220D01*
X11807832Y36925219D01*
X11763084Y36880470D01*
X12478554Y36165000D01*
X12461827Y36165000D01*
X12125000Y35828173D01*
X12125000Y35811446D01*
X11409530Y36526916D01*
X11364781Y36482168D01*
X11364780Y36482167D01*
X11125000Y35903290D01*
X8900500Y35903290D01*
X8900500Y36007314D01*
X8607314Y36300500D01*
X8192686Y36300500D01*
X8192685Y36300500D01*
X7899500Y36007315D01*
X500500Y36007315D01*
X500500Y40290158D01*
X34299500Y40290158D01*
X34299500Y37509843D01*
X34727283Y37082060D01*
X34727285Y37082059D01*
X36682058Y35127286D01*
X36682059Y35127284D01*
X36699500Y35109843D01*
X37109843Y34699500D01*
X37109844Y34699499D01*
X37714820Y34699499D01*
X37714824Y34699500D01*
X41090157Y34699500D01*
X41500500Y35109843D01*
X41500500Y35690157D01*
X41090157Y36100500D01*
X37741519Y36100500D01*
X37653838Y36136819D01*
X35736819Y38053838D01*
X35700500Y38141519D01*
X35700500Y40290157D01*
X35290157Y40700500D01*
X34709843Y40700500D01*
X34709842Y40700500D01*
X34299500Y40290158D01*
X500500Y40290158D01*
X500500Y41524472D01*
X41099500Y41524472D01*
X41099500Y36675529D01*
X42463181Y35311848D01*
X42499500Y35224167D01*
X42499500Y34992686D01*
X42792686Y34699500D01*
X43207314Y34699500D01*
X43500500Y34992686D01*
X43500500Y35407314D01*
X43207314Y35700500D01*
X42975833Y35700500D01*
X42888152Y35736819D01*
X41736819Y36888152D01*
X41700500Y36975833D01*
X41700500Y40369753D01*
X43949500Y40369753D01*
X43949500Y38630248D01*
X43961131Y38571771D01*
X43961132Y38571770D01*
X44005447Y38505448D01*
X44071769Y38461133D01*
X44071770Y38461132D01*
X44130247Y38449501D01*
X44130250Y38449500D01*
X44130252Y38449500D01*
X45869750Y38449500D01*
X45869751Y38449501D01*
X45884568Y38452448D01*
X45928229Y38461132D01*
X45928229Y38461133D01*
X45928231Y38461133D01*
X45994552Y38505448D01*
X46038867Y38571769D01*
X46038867Y38571771D01*
X46038868Y38571771D01*
X46050499Y38630248D01*
X46050500Y38630250D01*
X46050500Y39708960D01*
X46489500Y39708960D01*
X46489500Y39291041D01*
X46518852Y39220180D01*
X46649429Y38904939D01*
X46944939Y38609429D01*
X47331042Y38449500D01*
X47331044Y38449500D01*
X47748956Y38449500D01*
X47748958Y38449500D01*
X48135061Y38609429D01*
X48430571Y38904939D01*
X48533351Y39153074D01*
X48600458Y39220180D01*
X48695364Y39220180D01*
X48762472Y39153072D01*
X48935525Y38735286D01*
X48948628Y38722183D01*
X49580000Y39353555D01*
X49580000Y39292893D01*
X49872893Y39000000D01*
X49933553Y39000000D01*
X49295190Y38361638D01*
X49265863Y38290835D01*
X48711848Y37736819D01*
X48624167Y37700500D01*
X48392685Y37700500D01*
X48099500Y37407315D01*
X48099500Y37407314D01*
X48099500Y36992686D01*
X48392686Y36699500D01*
X48575500Y36699500D01*
X48663181Y36663181D01*
X48699500Y36575500D01*
X48699500Y36192686D01*
X48992686Y35899500D01*
X49407314Y35899500D01*
X49536583Y36028770D01*
X49624262Y36065088D01*
X49711942Y36028771D01*
X49841213Y35899500D01*
X50255841Y35899500D01*
X50549027Y36192686D01*
X50549027Y36192689D01*
X50558466Y36215474D01*
X50564542Y36212958D01*
X50585346Y36263181D01*
X50673027Y36299500D01*
X57424167Y36299500D01*
X57511848Y36263181D01*
X63263181Y30511848D01*
X63299500Y30424167D01*
X63299500Y25324471D01*
X63299500Y25075529D01*
X66763029Y21612000D01*
X67400162Y21612000D01*
X67487843Y21575681D01*
X67514722Y21535454D01*
X67546369Y21459053D01*
X67771553Y21233869D01*
X67879515Y21189150D01*
X67946624Y21122042D01*
X67946624Y21027137D01*
X67879516Y20960028D01*
X67601899Y20845035D01*
X67292465Y20535601D01*
X67137922Y20162501D01*
X67137922Y20162500D01*
X68219670Y20162500D01*
X68125000Y20067830D01*
X68125000Y19757170D01*
X68219670Y19662500D01*
X67137922Y19662500D01*
X67292465Y19289400D01*
X67601899Y18979966D01*
X67879516Y18864973D01*
X67946624Y18797865D01*
X67946624Y18702959D01*
X67879516Y18635851D01*
X67771552Y18591131D01*
X67546369Y18365948D01*
X67424500Y18071731D01*
X67424500Y17753273D01*
X67424501Y17753267D01*
X67426567Y17748279D01*
X67426566Y17742882D01*
X67426883Y17741292D01*
X67426566Y17741230D01*
X67426565Y17653373D01*
X67359455Y17586267D01*
X67264549Y17586269D01*
X67224324Y17613148D01*
X65336819Y19500653D01*
X65300500Y19588334D01*
X65300500Y22324471D01*
X63924471Y23700500D01*
X52775833Y23700500D01*
X52688152Y23736819D01*
X48936819Y27488152D01*
X48900500Y27575833D01*
X48900500Y28741324D01*
X48936819Y28829005D01*
X49008314Y28900500D01*
X49100500Y28992686D01*
X49100500Y29407314D01*
X48807314Y29700500D01*
X48392686Y29700500D01*
X48392685Y29700500D01*
X48099500Y29407315D01*
X48099500Y28992686D01*
X48263181Y28829005D01*
X48299500Y28741324D01*
X48299500Y27524471D01*
X48299500Y27275529D01*
X52475529Y23099500D01*
X63624167Y23099500D01*
X63711848Y23063181D01*
X64663181Y22111848D01*
X64699500Y22024167D01*
X64699500Y19288029D01*
X67509811Y16477718D01*
X67546130Y16390037D01*
X67536691Y16342585D01*
X67424501Y16071733D01*
X67424500Y16071728D01*
X67424500Y15753270D01*
X67539544Y15475529D01*
X67546369Y15459053D01*
X67771553Y15233869D01*
X68065771Y15112000D01*
X68065773Y15112000D01*
X68934227Y15112000D01*
X68934229Y15112000D01*
X69228447Y15233869D01*
X69453631Y15459053D01*
X69575500Y15753271D01*
X69575500Y16071729D01*
X69453631Y16365947D01*
X69228447Y16591131D01*
X69147955Y16624472D01*
X68934230Y16713000D01*
X68934229Y16713000D01*
X68175834Y16713000D01*
X68088153Y16749319D01*
X67925647Y16911825D01*
X67889328Y16999506D01*
X67925647Y17087187D01*
X68013328Y17123506D01*
X68060780Y17114068D01*
X68065771Y17112000D01*
X68065773Y17112000D01*
X68934227Y17112000D01*
X68934229Y17112000D01*
X69228447Y17233869D01*
X69453631Y17459053D01*
X69485277Y17535454D01*
X69552386Y17602561D01*
X69599838Y17612000D01*
X69836971Y17612000D01*
X71100500Y18875529D01*
X71100500Y19124471D01*
X71100500Y28724471D01*
X70924471Y28900500D01*
X61324471Y38500500D01*
X51289051Y38500500D01*
X51201370Y38536819D01*
X51165051Y38624500D01*
X51201370Y38712181D01*
X51224473Y38735285D01*
X51224474Y38735286D01*
X51429999Y39231467D01*
X51430000Y39231470D01*
X51430000Y39768531D01*
X51429999Y39768534D01*
X51306218Y40067369D01*
X51296778Y40090158D01*
X58899500Y40090158D01*
X58899500Y40090157D01*
X58899500Y39509843D01*
X59309843Y39099500D01*
X60890157Y39099500D01*
X61300500Y39509843D01*
X61300500Y39509844D01*
X62053838Y40263181D01*
X62141519Y40299500D01*
X67010063Y40299500D01*
X67420406Y40709843D01*
X67420406Y40709844D01*
X68132906Y41422344D01*
X68132906Y42002656D01*
X67722562Y42413000D01*
X67142250Y42413000D01*
X67142249Y42413000D01*
X66466069Y41736819D01*
X66378388Y41700500D01*
X61509842Y41700500D01*
X60346163Y40536819D01*
X60258482Y40500500D01*
X59309842Y40500500D01*
X58899500Y40090158D01*
X51296778Y40090158D01*
X51224474Y40264715D01*
X51211371Y40277818D01*
X51211370Y40277818D01*
X50580000Y39646447D01*
X50580000Y39707107D01*
X50287107Y40000000D01*
X50226447Y40000000D01*
X50857817Y40631372D01*
X50844714Y40644475D01*
X50348533Y40850000D01*
X49811466Y40850000D01*
X49315285Y40644475D01*
X49302182Y40631373D01*
X49302181Y40631372D01*
X49933554Y40000000D01*
X49872893Y40000000D01*
X49580000Y39707107D01*
X49580000Y39646447D01*
X48948628Y40277819D01*
X48948627Y40277818D01*
X48935525Y40264715D01*
X48762472Y39846929D01*
X48695364Y39779821D01*
X48600458Y39779821D01*
X48533350Y39846929D01*
X48430571Y40095061D01*
X48135061Y40390571D01*
X47869669Y40500500D01*
X47748959Y40550500D01*
X47748958Y40550500D01*
X47331042Y40550500D01*
X47331040Y40550500D01*
X46944938Y40390571D01*
X46649429Y40095062D01*
X46489500Y39708960D01*
X46050500Y39708960D01*
X46050500Y40369751D01*
X46050499Y40369753D01*
X46038868Y40428230D01*
X46038867Y40428231D01*
X45994552Y40494553D01*
X45928230Y40538868D01*
X45928229Y40538869D01*
X45869752Y40550500D01*
X45869748Y40550500D01*
X44130252Y40550500D01*
X44130247Y40550500D01*
X44071770Y40538869D01*
X44071769Y40538868D01*
X44005447Y40494553D01*
X43961132Y40428231D01*
X43961131Y40428230D01*
X43949500Y40369753D01*
X41700500Y40369753D01*
X41700500Y41224167D01*
X41736819Y41311848D01*
X46888152Y46463181D01*
X46975833Y46499500D01*
X56541324Y46499500D01*
X56629005Y46463181D01*
X56792686Y46299500D01*
X57207314Y46299500D01*
X57500500Y46592686D01*
X57500500Y47007314D01*
X57207314Y47300500D01*
X56792686Y47300500D01*
X56792685Y47300500D01*
X56629005Y47136819D01*
X56541324Y47100500D01*
X46675528Y47100500D01*
X41099500Y41524472D01*
X500500Y41524472D01*
X500500Y48499212D01*
X11145500Y48499212D01*
X11145500Y47880789D01*
X11382159Y47309447D01*
X11819447Y46872159D01*
X12223444Y46704818D01*
X12390788Y46635501D01*
X12390789Y46635501D01*
X12390791Y46635500D01*
X12390792Y46635500D01*
X13009208Y46635500D01*
X13009209Y46635500D01*
X13580553Y46872159D01*
X14017841Y47309447D01*
X14254500Y47880791D01*
X14254500Y48499209D01*
X14254499Y48499212D01*
X15745500Y48499212D01*
X15745500Y47880789D01*
X15982159Y47309447D01*
X16419447Y46872159D01*
X16823444Y46704818D01*
X16990788Y46635501D01*
X16990789Y46635501D01*
X16990791Y46635500D01*
X16990792Y46635500D01*
X17609208Y46635500D01*
X17609209Y46635500D01*
X18180553Y46872159D01*
X18617841Y47309447D01*
X18854500Y47880791D01*
X18854500Y48499209D01*
X18617841Y49070553D01*
X18180553Y49507841D01*
X17609211Y49744500D01*
X17609209Y49744500D01*
X16990791Y49744500D01*
X16990788Y49744500D01*
X16419446Y49507841D01*
X15982159Y49070554D01*
X15745500Y48499212D01*
X14254499Y48499212D01*
X14017841Y49070553D01*
X13580553Y49507841D01*
X13009211Y49744500D01*
X13009209Y49744500D01*
X12390791Y49744500D01*
X12390788Y49744500D01*
X11819446Y49507841D01*
X11382159Y49070554D01*
X11145500Y48499212D01*
X500500Y48499212D01*
X500500Y49875500D01*
X536819Y49963181D01*
X624500Y49999500D01*
X71875500Y49999500D01*
X71963181Y49963181D01*
G37*
%TD.AperFunction*%
%TA.AperFunction,Conductor*%
G36*
X2175000Y16680000D02*
G01*
X2523910Y16680000D01*
X2523913Y16680001D01*
X2891454Y16832242D01*
X2891455Y16832243D01*
X3087819Y17028606D01*
X3175500Y17064925D01*
X3263181Y17028606D01*
X3299500Y16940925D01*
X3299500Y11141518D01*
X3263181Y11053837D01*
X2346163Y10136819D01*
X2258482Y10100500D01*
X909842Y10100500D01*
X712181Y9902838D01*
X624500Y9866519D01*
X536819Y9902838D01*
X500500Y9990519D01*
X500500Y16990925D01*
X536819Y17078606D01*
X624500Y17114925D01*
X712181Y17078606D01*
X958545Y16832242D01*
X1326086Y16680001D01*
X1326090Y16680000D01*
X1675000Y16680000D01*
X1675000Y17380000D01*
X2175000Y17380000D01*
X2175000Y16680000D01*
G37*
%TD.AperFunction*%
%TA.AperFunction,Conductor*%
G36*
X2175000Y25320000D02*
G01*
X2523910Y25320000D01*
X2523913Y25320001D01*
X2891454Y25472242D01*
X2891455Y25472243D01*
X3087819Y25668606D01*
X3175500Y25704925D01*
X3263181Y25668606D01*
X3299500Y25580925D01*
X3299500Y18419075D01*
X3263181Y18331394D01*
X3175500Y18295075D01*
X3087819Y18331394D01*
X2891454Y18527759D01*
X2523913Y18680000D01*
X2175000Y18680000D01*
X2175000Y17980000D01*
X1675000Y17980000D01*
X1675000Y18680000D01*
X1326086Y18680000D01*
X958545Y18527759D01*
X958544Y18527758D01*
X712181Y18281394D01*
X624500Y18245075D01*
X536819Y18281394D01*
X500500Y18369075D01*
X500500Y25630925D01*
X536819Y25718606D01*
X624500Y25754925D01*
X712181Y25718606D01*
X958545Y25472242D01*
X1326086Y25320001D01*
X1326090Y25320000D01*
X1675000Y25320000D01*
X1675000Y26020000D01*
X2175000Y26020000D01*
X2175000Y25320000D01*
G37*
%TD.AperFunction*%
%TD*%
M02*
