M48
; DRILL file {KiCad 9.0.7-9.0.7~ubuntu24.04.1} date 2026-02-27T22:41:25+0000
; FORMAT={-:-/ absolute / metric / decimal}
; #@! TF.CreationDate,2026-02-27T22:41:25+00:00
; #@! TF.GenerationSoftware,Kicad,Pcbnew,9.0.7-9.0.7~ubuntu24.04.1
; #@! TF.FileFunction,Plated,1,2,PTH
FMAT,2
METRIC
; #@! TA.AperFunction,Plated,PTH,ViaDrill
T1C0.300
; #@! TA.AperFunction,Plated,PTH,ComponentDrill
T2C0.500
; #@! TA.AperFunction,Plated,PTH,ComponentDrill
T3C0.600
; #@! TA.AperFunction,Plated,PTH,ComponentDrill
T4C0.750
; #@! TA.AperFunction,Plated,PTH,ComponentDrill
T5C1.000
; #@! TA.AperFunction,Plated,PTH,ComponentDrill
T6C3.200
%
G90
G05
T1
X1.25Y22.5
X1.75Y34.75
X1.75Y29.0
X2.0Y16.25
X2.75Y10.25
X3.25Y31.0
X3.75Y25.25
X4.25Y33.25
X4.25Y20.0
X5.75Y13.5
X6.0Y30.0
X6.25Y21.0
X6.375Y25.625
X6.625Y16.875
X7.25Y36.5
X8.25Y31.25
X9.0Y34.0
X10.75Y27.5
X10.75Y23.0
X10.75Y18.25
X11.5Y37.25
X11.5Y34.0
X13.25Y22.75
X13.675Y18.0
X14.0Y8.75
X14.5Y26.25
X15.0Y30.25
X17.0Y25.25
X17.75Y7.0
X18.25Y30.0
X18.75Y26.75
X21.5Y41.0
X21.5Y37.0
X23.0Y39.0
X24.0Y40.5
X24.0Y25.5
X24.75Y27.75
X25.0Y36.0
X25.25Y25.5
X25.25Y22.75
X25.35Y30.25
X26.5Y34.25
X26.636Y23.35
X26.75Y7.25
X26.9Y12.5
X27.0Y8.75
X27.188Y11.3
X27.188Y9.75
X27.75Y30.0
X27.75Y27.75
X28.387Y10.25
X28.387Y9.0
X29.0Y30.25
X29.25Y42.75
X29.5Y34.75
X29.588Y11.3
X29.825Y28.8
X30.482Y30.463
X30.6Y26.269
X30.85Y10.25
X30.95Y25.55
X32.35Y30.325
X32.552Y26.132
X32.761Y25.36
X33.25Y13.5
X33.75Y30.5
X33.75Y26.676
X35.25Y24.75
X35.25Y2.0
X35.75Y20.95
X35.75Y14.25
X36.0Y15.5
X36.0Y10.5
X36.926Y27.151
X37.0Y1.0
X37.206Y15.601
X37.25Y42.5
X37.25Y18.0
X37.5Y12.75
X38.0Y15.5
X38.25Y23.0
X38.665Y13.915
X39.5Y37.5
X40.1Y15.501
X40.5Y24.75
X41.0Y34.25
X42.25Y39.0
X43.0Y42.5
X43.451Y20.049
X44.0Y2.75
X44.75Y34.0
X44.75Y10.75
X45.0Y20.0
X45.0Y7.5
X45.0Y1.25
X45.875Y9.625
X46.0Y5.5
X46.5Y19.25
X48.0Y14.75
X48.0Y7.5
X48.25Y35.5
X50.0Y6.5
X50.5Y39.5
X50.75Y42.5
X51.25Y22.5
X51.5Y25.5
X51.75Y17.25
X52.75Y14.0
X53.25Y41.25
X55.5Y33.25
X55.5Y15.5
X56.25Y17.5
X56.384Y21.326
X56.5Y25.0
X58.5Y25.5
X58.5Y9.0
X59.0Y27.5
X59.5Y34.0
X60.75Y11.0
X61.0Y27.25
X62.0Y35.0
X62.0Y31.5
X62.5Y7.75
X63.0Y10.75
T2
X1.547Y3.947
X1.6Y40.5
X2.25Y5.644
X2.25Y2.25
X2.303Y42.197
X2.303Y38.803
X3.947Y6.347
X3.947Y1.547
X4.0Y42.9
X4.0Y38.1
X5.644Y5.644
X5.644Y2.25
X5.697Y42.197
X5.697Y38.803
X6.347Y3.947
X6.4Y40.5
X58.297Y3.947
X58.35Y40.697
X59.0Y5.644
X59.0Y2.25
X59.053Y42.394
X59.053Y39.0
X60.697Y6.347
X60.697Y1.547
X60.75Y43.097
X60.75Y38.297
X62.394Y5.644
X62.394Y2.25
X62.447Y42.394
X62.447Y39.0
X63.097Y3.947
X63.15Y40.697
T3
X14.675Y36.15
X18.275Y36.15
T4
X14.5Y2.76
X16.5Y2.76
X18.5Y2.76
X20.5Y2.76
X22.5Y2.76
X24.5Y2.76
X26.5Y2.76
X28.5Y2.76
X28.675Y38.15
X30.675Y38.15
X32.675Y38.15
X34.675Y38.15
X53.95Y10.5
X53.95Y8.5
T5
X22.425Y33.23
X22.425Y30.69
X22.425Y28.15
X33.0Y7.26
X33.0Y4.72
X33.0Y2.18
T6
X3.947Y3.947
X4.0Y40.5
X60.697Y3.947
X60.75Y40.697
T3
G00X57.92Y23.87
M15
G01X59.02Y23.87
M16
G05
G00X57.92Y15.23
M15
G01X59.02Y15.23
M16
G05
G00X62.25Y23.87
M15
G01X63.05Y23.87
M16
G05
G00X62.25Y15.23
M15
G01X63.05Y15.23
M16
G05
M30
